<svg xmlns="http://www.w3.org/2000/svg" xmlns:xlink="http://www.w3.org/1999/xlink" viewBox="0 0 256.15 256.15"><defs><style>.cls-1{fill:url(#radial-gradient);}.cls-2{opacity:0.5;}.cls-3{fill:#f9b000;}.cls-4{fill:none;}.cls-5{mask:url(#mask);}.cls-6{filter:url(#luminosity-noclip);}#forme_1 {
    transform-origin: 50% 50%;
    animation: turn 50s linear infinite;
}
#forme_2 {
    transform-origin: 50% 50%;
    animation: turnReverse 50s linear infinite;
}
#forme_3{
    transform-origin: 50% 50%;
    animation: turn 50s linear infinite;
}
@keyframes turn {
    0% {
        transform: rotate(0deg);
    }
    
    100% {
        transform: rotate(360deg);
    }
}
@keyframes turnReverse {
    0% {
        transform: rotate(0deg);
    }
    100% {
        transform: rotate(-360deg);
    }
}</style><radialGradient id="radial-gradient" cx="58.81" cy="94.36" r="140.88" gradientTransform="translate(66.13 33.32)" gradientUnits="userSpaceOnUse"><stop offset="0.32"/><stop offset="0.73" stop-color="#fff"/></radialGradient><filter id="luminosity-noclip" x="-17.13" y="-14.39" width="281.75" height="281.75" filterUnits="userSpaceOnUse" color-interpolation-filters="sRGB"><feFlood flood-color="#fff" result="bg"/><feBlend in="SourceGraphic" in2="bg"/></filter><mask id="mask" x="-17.13" y="-14.39" width="281.75" height="281.75" maskUnits="userSpaceOnUse"><g class="cls-6"><circle class="cls-1" cx="123.75" cy="126.49" r="140.88" transform="translate(-53.19 124.55) rotate(-45)"/></g></mask></defs><g id="Calque_2" data-name="Calque 2"><g id="Calque_1-2" data-name="Calque 1"><g id="clair"><g id="forme_3" class="cls-2"><path class="cls-3" d="M205.36,157.1a1.92,1.92,0,1,0-.87,2.57A1.92,1.92,0,0,0,205.36,157.1Z"/><path class="cls-3" d="M199.16,153.34a1.67,1.67,0,0,0-2.26-.77,1.69,1.69,0,1,0,1.5,3A1.68,1.68,0,0,0,199.16,153.34Z"/><path class="cls-3" d="M207.16,154.13a.54.54,0,0,0-.73-.25.54.54,0,0,0-.24.73.55.55,0,0,0,.73.25A.54.54,0,0,0,207.16,154.13Z"/><path class="cls-3" d="M196.79,145.88a1,1,0,1,0-.45,1.34A1,1,0,0,0,196.79,145.88Z"/><path class="cls-3" d="M202.87,144.49a.48.48,0,0,0-.65-.22.48.48,0,0,0-.22.65.49.49,0,0,0,.87-.43Z"/><path class="cls-3" d="M194.1,135.55a1.62,1.62,0,0,0-2.9,1.43,1.62,1.62,0,0,0,2.9-1.43Z"/><path class="cls-3" d="M199.36,136.69a1.82,1.82,0,1,0-.82,2.45A1.82,1.82,0,0,0,199.36,136.69Z"/><path class="cls-3" d="M195.51,134.31a.55.55,0,0,0-.74-.25.55.55,0,1,0,.74.25Z"/><path class="cls-3" d="M202.59,129.46a2.09,2.09,0,1,0-1,2.8A2.1,2.1,0,0,0,202.59,129.46Z"/><path class="cls-3" d="M203,126.2a.81.81,0,0,0-1.07-.36.8.8,0,0,0-.36,1.06.8.8,0,0,0,1.43-.7Z"/><path class="cls-3" d="M196.35,122.33a1.64,1.64,0,1,0-.74,2.2A1.64,1.64,0,0,0,196.35,122.33Z"/><path class="cls-3" d="M203.85,119.44a1.14,1.14,0,1,0-.52,1.53A1.15,1.15,0,0,0,203.85,119.44Z"/><path class="cls-3" d="M207.58,114.2a1.37,1.37,0,0,0-1.86-.62,1.39,1.39,0,1,0,1.86.62Z"/><path class="cls-3" d="M195.61,112.29a1.84,1.84,0,1,0-.83,2.46A1.83,1.83,0,0,0,195.61,112.29Z"/><path class="cls-3" d="M204.75,108.48a1.66,1.66,0,1,0-.75,2.23A1.67,1.67,0,0,0,204.75,108.48Z"/><path class="cls-3" d="M206.78,103.34a.49.49,0,1,0-.22.65A.48.48,0,0,0,206.78,103.34Z"/><path class="cls-3" d="M196.36,102.56a1,1,0,1,0-.46,1.36A1,1,0,0,0,196.36,102.56Z"/><path class="cls-3" d="M190,100.26a.44.44,0,0,0-.58-.19.43.43,0,0,0-.19.57.42.42,0,0,0,.57.19A.43.43,0,0,0,190,100.26Z"/><path class="cls-3" d="M200.82,89a1.09,1.09,0,0,0-2,1,1.08,1.08,0,0,0,1.46.5A1.1,1.1,0,0,0,200.82,89Z"/><path class="cls-3" d="M187.33,91.23a1.75,1.75,0,1,0-.79,2.35A1.76,1.76,0,0,0,187.33,91.23Z"/><path class="cls-3" d="M196.34,85.43a.6.6,0,1,0-.27.8A.61.61,0,0,0,196.34,85.43Z"/><path class="cls-3" d="M188.72,86a.25.25,0,1,0-.11.33A.25.25,0,0,0,188.72,86Z"/><path class="cls-3" d="M192.21,82.78a1.18,1.18,0,0,0-2.12,1,1.18,1.18,0,1,0,2.12-1Z"/><path class="cls-3" d="M186,83.74a.19.19,0,0,0-.25-.08.18.18,0,0,0-.09.25A.19.19,0,0,0,186,84,.2.2,0,0,0,186,83.74Z"/><path class="cls-3" d="M178.62,85.82a1.27,1.27,0,1,0-.57,1.7A1.27,1.27,0,0,0,178.62,85.82Z"/><path class="cls-3" d="M190.29,69.42A1.27,1.27,0,0,0,188,70.54a1.27,1.27,0,1,0,2.27-1.12Z"/><path class="cls-3" d="M186.81,67.88a1.08,1.08,0,1,0-.48,1.45A1.08,1.08,0,0,0,186.81,67.88Z"/><path class="cls-3" d="M181.4,69a1,1,0,0,0-1.78.88A1,1,0,0,0,181.4,69Z"/><path class="cls-3" d="M172.75,73.29a.84.84,0,1,0-1.51.75.85.85,0,0,0,1.13.38A.84.84,0,0,0,172.75,73.29Z"/><path class="cls-3" d="M169.15,74.11a1.46,1.46,0,1,0-.66,2A1.47,1.47,0,0,0,169.15,74.11Z"/><path class="cls-3" d="M182.46,59.8a1,1,0,1,0-.44,1.29A1,1,0,0,0,182.46,59.8Z"/><path class="cls-3" d="M170.34,69.93a1.2,1.2,0,1,0-.54,1.61A1.2,1.2,0,0,0,170.34,69.93Z"/><path class="cls-3" d="M164.52,69.85a1.11,1.11,0,0,0-1.5-.51,1.12,1.12,0,1,0,1.5.51Z"/><path class="cls-3" d="M173.57,54.62a1.58,1.58,0,0,0-2.12-.72,1.58,1.58,0,1,0,1.4,2.83A1.57,1.57,0,0,0,173.57,54.62Z"/><path class="cls-3" d="M167.35,58.38a2,2,0,1,0-.93,2.73A2,2,0,0,0,167.35,58.38Z"/><path class="cls-3" d="M167.92,55.54a1.34,1.34,0,1,0-.61,1.8A1.33,1.33,0,0,0,167.92,55.54Z"/><path class="cls-3" d="M164.37,52.53a1.61,1.61,0,1,0-.73,2.17A1.62,1.62,0,0,0,164.37,52.53Z"/><path class="cls-3" d="M160.31,51.14a1.41,1.41,0,1,0-.63,1.88A1.4,1.4,0,0,0,160.31,51.14Z"/><path class="cls-3" d="M150.64,61.85a.85.85,0,1,0-.38,1.15A.85.85,0,0,0,150.64,61.85Z"/><path class="cls-3" d="M154.07,47.44a1,1,0,1,0-.46,1.36A1,1,0,0,0,154.07,47.44Z"/><path class="cls-3" d="M144.58,59.69a1.29,1.29,0,1,0-.58,1.73A1.29,1.29,0,0,0,144.58,59.69Z"/><path class="cls-3" d="M139.8,61.61a.14.14,0,0,0-.2-.07.15.15,0,0,0-.06.2.14.14,0,0,0,.19.06A.14.14,0,0,0,139.8,61.61Z"/><path class="cls-3" d="M139.23,45.8a.92.92,0,0,0-1.23-.41.91.91,0,1,0,1.23.41Z"/><path class="cls-3" d="M135.46,45.07a1.81,1.81,0,0,0-2.42-.81,1.8,1.8,0,1,0,2.42.81Z"/><path class="cls-3" d="M130.11,42.4a.21.21,0,0,0-.28-.1.22.22,0,0,0-.1.29.22.22,0,0,0,.29.1A.22.22,0,0,0,130.11,42.4Z"/><path class="cls-3" d="M131.26,41.56a1.81,1.81,0,1,0-.81,2.42A1.8,1.8,0,0,0,131.26,41.56Z"/><path class="cls-3" d="M127.61,60.46a.72.72,0,1,0-1.29.63.72.72,0,1,0,1.29-.63Z"/><path class="cls-3" d="M124.39,49.88a1.25,1.25,0,1,0-.56,1.67A1.24,1.24,0,0,0,124.39,49.88Z"/><path class="cls-3" d="M119.81,45.4a1.35,1.35,0,0,0-1.81-.62,1.36,1.36,0,1,0,1.2,2.43A1.35,1.35,0,0,0,119.81,45.4Z"/><path class="cls-3" d="M115.13,47.25a1.44,1.44,0,1,0-.65,1.93A1.44,1.44,0,0,0,115.13,47.25Z"/><path class="cls-3" d="M113.88,57.93a.64.64,0,0,0-1.14.56.64.64,0,1,0,1.14-.56Z"/><path class="cls-3" d="M108.38,41.29a1.5,1.5,0,1,0-.68,2A1.49,1.49,0,0,0,108.38,41.29Z"/><path class="cls-3" d="M111.05,59.8a.49.49,0,1,0-.22.65A.48.48,0,0,0,111.05,59.8Z"/><path class="cls-3" d="M106.78,57.55a.69.69,0,0,0-.93-.32.69.69,0,0,0,.62,1.24A.69.69,0,0,0,106.78,57.55Z"/><path class="cls-3" d="M102.74,45.71a.64.64,0,1,0-.29.86A.64.64,0,0,0,102.74,45.71Z"/><path class="cls-3" d="M102.66,57.26a1.28,1.28,0,0,0-1.73-.58A1.29,1.29,0,1,0,102.08,59,1.29,1.29,0,0,0,102.66,57.26Z"/><path class="cls-3" d="M96.09,47.18a1.31,1.31,0,1,0-.59,1.76A1.31,1.31,0,0,0,96.09,47.18Z"/><path class="cls-3" d="M93.18,48.07a.46.46,0,0,0-.61-.2.46.46,0,0,0,.4.82A.47.47,0,0,0,93.18,48.07Z"/><path class="cls-3" d="M99.17,59.78a1,1,0,1,0-.46,1.36A1,1,0,0,0,99.17,59.78Z"/><path class="cls-3" d="M91.09,54.73a.76.76,0,0,0-1-.35.77.77,0,0,0-.35,1,.78.78,0,0,0,1,.35A.77.77,0,0,0,91.09,54.73Z"/><path class="cls-3" d="M94.21,63.29a.91.91,0,0,0-1.22-.4.9.9,0,0,0-.41,1.21.91.91,0,1,0,1.63-.81Z"/><path class="cls-3" d="M89.3,60.88a2,2,0,1,0-.92,2.72A2,2,0,0,0,89.3,60.88Z"/><path class="cls-3" d="M85.92,63.58a.8.8,0,1,0-.36,1.08A.81.81,0,0,0,85.92,63.58Z"/><path class="cls-3" d="M86.59,70.24a1.79,1.79,0,1,0-.81,2.4A1.8,1.8,0,0,0,86.59,70.24Z"/><path class="cls-3" d="M86.52,71.15a1.69,1.69,0,1,0-.77,2.27A1.69,1.69,0,0,0,86.52,71.15Z"/><path class="cls-3" d="M69.05,60.85a.28.28,0,0,0-.37-.13.29.29,0,0,0-.12.37.28.28,0,0,0,.36.12A.27.27,0,0,0,69.05,60.85Z"/><path class="cls-3" d="M72.25,67.19a1.1,1.1,0,1,0-.5,1.48A1.11,1.11,0,0,0,72.25,67.19Z"/><path class="cls-3" d="M66.14,68.64a.9.9,0,1,0-.41,1.2A.9.9,0,0,0,66.14,68.64Z"/><path class="cls-3" d="M72.61,77.21a.75.75,0,1,0-.34,1A.76.76,0,0,0,72.61,77.21Z"/><path class="cls-3" d="M70.31,78.66a1.89,1.89,0,1,0-.85,2.53A1.89,1.89,0,0,0,70.31,78.66Z"/><path class="cls-3" d="M59.46,74.83a.75.75,0,1,0-.34,1A.75.75,0,0,0,59.46,74.83Z"/><path class="cls-3" d="M61.35,77.11a.35.35,0,0,0-.46-.15.34.34,0,0,0-.15.45.33.33,0,0,0,.45.15A.34.34,0,0,0,61.35,77.11Z"/><path class="cls-3" d="M72.41,86.29a1.43,1.43,0,1,0-.65,1.92A1.43,1.43,0,0,0,72.41,86.29Z"/><path class="cls-3" d="M65.58,86.32a1.39,1.39,0,0,0-1.84-.62,1.37,1.37,0,1,0,1.84.62Z"/><path class="cls-3" d="M68.52,94.42a1.54,1.54,0,1,0-.7,2.06A1.53,1.53,0,0,0,68.52,94.42Z"/><path class="cls-3" d="M60.63,91.57a1.32,1.32,0,1,0-.6,1.77A1.33,1.33,0,0,0,60.63,91.57Z"/><path class="cls-3" d="M57.79,94.51a1.61,1.61,0,1,0-.73,2.16A1.6,1.6,0,0,0,57.79,94.51Z"/><path class="cls-3" d="M50.18,96.21a.77.77,0,0,0-1-.35.78.78,0,0,0-.35,1,.77.77,0,0,0,1.38-.69Z"/><path class="cls-3" d="M51.23,96.08a1.89,1.89,0,1,0-.86,2.53A1.9,1.9,0,0,0,51.23,96.08Z"/><path class="cls-3" d="M48.38,99.51a1.87,1.87,0,1,0-.85,2.51A1.87,1.87,0,0,0,48.38,99.51Z"/><path class="cls-3" d="M46.51,104.23a1.28,1.28,0,1,0-.57,1.71A1.28,1.28,0,0,0,46.51,104.23Z"/><path class="cls-3" d="M42.08,105a.2.2,0,0,0-.27-.09.2.2,0,0,0-.09.27.21.21,0,0,0,.27.08A.19.19,0,0,0,42.08,105Z"/><path class="cls-3" d="M51.43,110.61a.23.23,0,0,0-.31-.11.24.24,0,0,0-.1.31.23.23,0,0,0,.31.1A.22.22,0,0,0,51.43,110.61Z"/><path class="cls-3" d="M42.51,115.05a.2.2,0,0,0-.24-.08.17.17,0,0,0-.08.24.18.18,0,0,0,.24.08A.19.19,0,0,0,42.51,115.05Z"/><path class="cls-3" d="M50.43,117.11a1.36,1.36,0,1,0-.62,1.82A1.36,1.36,0,0,0,50.43,117.11Z"/><path class="cls-3" d="M46.71,120.15a1,1,0,1,0-.46,1.37A1,1,0,0,0,46.71,120.15Z"/><path class="cls-3" d="M55.16,125.71a.82.82,0,0,0-1.11-.38.84.84,0,0,0-.38,1.12.83.83,0,0,0,1.12.37A.82.82,0,0,0,55.16,125.71Z"/><path class="cls-3" d="M50.74,126.62a1.63,1.63,0,1,0-.74,2.19A1.63,1.63,0,0,0,50.74,126.62Z"/><path class="cls-3" d="M62,129.75a1.06,1.06,0,1,0-.48,1.41A1,1,0,0,0,62,129.75Z"/><path class="cls-3" d="M54.7,134.08a.47.47,0,0,0-.64-.21.48.48,0,0,0-.22.64.49.49,0,0,0,.65.21A.48.48,0,0,0,54.7,134.08Z"/><path class="cls-3" d="M48.3,135.76a.95.95,0,1,0-.43,1.27A.95.95,0,0,0,48.3,135.76Z"/><path class="cls-3" d="M59.1,137.27a.9.9,0,1,0-.41,1.21A.9.9,0,0,0,59.1,137.27Z"/><path class="cls-3" d="M60.43,139.2a.6.6,0,0,0-.79-.26.6.6,0,0,0-.27.79.59.59,0,0,0,.79.26A.59.59,0,0,0,60.43,139.2Z"/><path class="cls-3" d="M52.44,144.07a1.55,1.55,0,1,0-2.77,1.38,1.55,1.55,0,1,0,2.77-1.38Z"/><path class="cls-3" d="M50.13,145.91a1,1,0,1,0-.44,1.29A1,1,0,0,0,50.13,145.91Z"/><path class="cls-3" d="M54.42,148.2a.83.83,0,0,0-1.09-.37.81.81,0,0,0,.72,1.46A.83.83,0,0,0,54.42,148.2Z"/><path class="cls-3" d="M59.32,149.12a.65.65,0,1,0-1.16.57.65.65,0,0,0,1.16-.57Z"/><path class="cls-3" d="M64,148.39a.91.91,0,0,0-1.22-.42.92.92,0,1,0,1.22.42Z"/><path class="cls-3" d="M49.53,157.41a.46.46,0,0,0-.62-.21.47.47,0,0,0-.21.63.46.46,0,0,0,.62.21A.46.46,0,0,0,49.53,157.41Z"/><path class="cls-3" d="M53.7,161.12a.6.6,0,0,0-.81-.27.61.61,0,1,0,.81.27Z"/><path class="cls-3" d="M70.43,155.77a1.69,1.69,0,0,0-3,1.5,1.69,1.69,0,0,0,3-1.5Z"/><path class="cls-3" d="M53.77,165.35a.3.3,0,1,0-.54.27.3.3,0,0,0,.54-.27Z"/><path class="cls-3" d="M69.58,161.76a2,2,0,1,0-.91,2.7A2,2,0,0,0,69.58,161.76Z"/><path class="cls-3" d="M67,167.84a1.22,1.22,0,1,0-.55,1.63A1.22,1.22,0,0,0,67,167.84Z"/><path class="cls-3" d="M73.2,169.74a1.86,1.86,0,1,0-.84,2.5A1.86,1.86,0,0,0,73.2,169.74Z"/><path class="cls-3" d="M70,175a1.25,1.25,0,1,0-2.24,1.11,1.24,1.24,0,0,0,1.67.57A1.25,1.25,0,0,0,70,175Z"/><path class="cls-3" d="M73.6,179.19a1.08,1.08,0,0,0-1.45-.48,1.07,1.07,0,1,0,1,1.92A1.08,1.08,0,0,0,73.6,179.19Z"/><path class="cls-3" d="M81.47,175.06a1.4,1.4,0,1,0-.63,1.87A1.4,1.4,0,0,0,81.47,175.06Z"/><path class="cls-3" d="M78.67,183a1.44,1.44,0,1,0-.66,1.93A1.44,1.44,0,0,0,78.67,183Z"/><path class="cls-3" d="M82.62,179.82a.55.55,0,0,0-.75-.26.56.56,0,0,0,.5,1A.56.56,0,0,0,82.62,179.82Z"/><path class="cls-3" d="M83.23,184a.28.28,0,0,0-.37-.12.26.26,0,0,0-.12.36.27.27,0,0,0,.36.13A.28.28,0,0,0,83.23,184Z"/><path class="cls-3" d="M82.12,191.58a.49.49,0,1,0-.22.65A.48.48,0,0,0,82.12,191.58Z"/><path class="cls-3" d="M83.18,191.83a.59.59,0,1,0-1.05.52.57.57,0,0,0,.78.26A.58.58,0,0,0,83.18,191.83Z"/><path class="cls-3" d="M86,191.12a1,1,0,0,0-1.4-.47,1.06,1.06,0,0,0-.48,1.41,1.05,1.05,0,0,0,1.88-.94Z"/><path class="cls-3" d="M84.41,199.68a1.06,1.06,0,1,0-.48,1.43A1.07,1.07,0,0,0,84.41,199.68Z"/><path class="cls-3" d="M95.32,191.91a.93.93,0,1,0-.42,1.24A.93.93,0,0,0,95.32,191.91Z"/><path class="cls-3" d="M101.1,186.07a.49.49,0,0,0-.65-.22.49.49,0,1,0,.65.22Z"/><path class="cls-3" d="M99.41,205.35a1,1,0,1,0-.47,1.37A1,1,0,0,0,99.41,205.35Z"/><path class="cls-3" d="M104.23,204.83a1.78,1.78,0,1,0-.8,2.38A1.77,1.77,0,0,0,104.23,204.83Z"/><path class="cls-3" d="M105.43,202.62a.36.36,0,0,0-.49-.17.37.37,0,1,0,.33.66A.36.36,0,0,0,105.43,202.62Z"/><path class="cls-3" d="M109.62,196.45a1.38,1.38,0,0,0-1.83-.62,1.36,1.36,0,1,0,1.83.62Z"/><path class="cls-3" d="M111,204.94a.68.68,0,0,0-.9-.3.67.67,0,0,0,.59,1.2A.67.67,0,0,0,111,204.94Z"/><path class="cls-3" d="M115.54,198.78a.75.75,0,0,0-1.34.66.75.75,0,1,0,1.34-.66Z"/><path class="cls-3" d="M119.51,191.91a.55.55,0,0,0-.72-.24.54.54,0,0,0-.25.72.55.55,0,0,0,.72.24A.54.54,0,0,0,119.51,191.91Z"/><path class="cls-3" d="M121.59,207.26a.51.51,0,0,0-.67-.23.5.5,0,1,0,.67.23Z"/><path class="cls-3" d="M126.44,204.21a1.73,1.73,0,1,0-.77,2.32A1.73,1.73,0,0,0,126.44,204.21Z"/><path class="cls-3" d="M128.89,211a1.14,1.14,0,0,0-2,1,1.14,1.14,0,0,0,2-1Z"/><path class="cls-3" d="M131.78,200.92a1.66,1.66,0,1,0-3,1.47,1.66,1.66,0,0,0,3-1.47Z"/><path class="cls-3" d="M136.33,210.08a1.61,1.61,0,1,0-.73,2.15A1.6,1.6,0,0,0,136.33,210.08Z"/><path class="cls-3" d="M135.75,207.22a.47.47,0,0,0-.64-.22.47.47,0,1,0,.42.85A.47.47,0,0,0,135.75,207.22Z"/><path class="cls-3" d="M138.7,204.68a.8.8,0,0,0-1.43.7.8.8,0,0,0,1.43-.7Z"/><path class="cls-3" d="M137.19,196.63a.41.41,0,1,0-.73.36.41.41,0,0,0,.73-.36Z"/><path class="cls-3" d="M141.38,191.11a1.82,1.82,0,1,0-.82,2.44A1.83,1.83,0,0,0,141.38,191.11Z"/><path class="cls-3" d="M144.47,194.55a1.65,1.65,0,0,0-2.2-.74,1.64,1.64,0,0,0,1.46,2.94A1.65,1.65,0,0,0,144.47,194.55Z"/><path class="cls-3" d="M147.57,203.27a.3.3,0,0,0-.41-.14.29.29,0,0,0-.14.41.31.31,0,1,0,.55-.27Z"/><path class="cls-3" d="M150.3,200.41a1.84,1.84,0,1,0-.84,2.47A1.85,1.85,0,0,0,150.3,200.41Z"/><path class="cls-3" d="M150.38,189.74a1.78,1.78,0,1,0-.81,2.38A1.78,1.78,0,0,0,150.38,189.74Z"/><path class="cls-3" d="M154.59,189.28a2.1,2.1,0,1,0-1,2.81A2.1,2.1,0,0,0,154.59,189.28Z"/><path class="cls-3" d="M161.5,197.14a1.5,1.5,0,1,0-.68,2A1.51,1.51,0,0,0,161.5,197.14Z"/><path class="cls-3" d="M156.54,188.16a.58.58,0,0,0-.79-.27.59.59,0,1,0,.52,1.06A.58.58,0,0,0,156.54,188.16Z"/><path class="cls-3" d="M156.31,183.05a1.57,1.57,0,0,0-2.11-.71,1.58,1.58,0,1,0,2.11.71Z"/><path class="cls-3" d="M165.38,189.38a1.72,1.72,0,1,0-.77,2.3A1.72,1.72,0,0,0,165.38,189.38Z"/><path class="cls-3" d="M165.37,182a1,1,0,1,0-.46,1.36A1,1,0,0,0,165.37,182Z"/><path class="cls-3" d="M174.51,189.23a2,2,0,1,0-.9,2.65A2,2,0,0,0,174.51,189.23Z"/><path class="cls-3" d="M174.25,183.62a.16.16,0,1,0-.28.14.16.16,0,0,0,.21.07A.16.16,0,0,0,174.25,183.62Z"/><path class="cls-3" d="M169.69,172.39a.57.57,0,0,0-1,.51.57.57,0,0,0,1-.51Z"/><path class="cls-3" d="M181.55,177.28a1.05,1.05,0,1,0-1.88.94,1,1,0,0,0,1.4.47A1.05,1.05,0,0,0,181.55,177.28Z"/><path class="cls-3" d="M189.47,180.41a1.25,1.25,0,1,0-.56,1.68A1.25,1.25,0,0,0,189.47,180.41Z"/><path class="cls-3" d="M185.53,170.63a.48.48,0,0,0-.64-.21.47.47,0,0,0-.22.64.48.48,0,0,0,.65.22A.49.49,0,0,0,185.53,170.63Z"/><path class="cls-3" d="M187.6,170.77a.35.35,0,0,0-.46-.16.34.34,0,1,0,.46.16Z"/><path class="cls-3" d="M195.42,172.24a1,1,0,1,0-.44,1.3A1,1,0,0,0,195.42,172.24Z"/><path class="cls-3" d="M189.48,161.76a1.08,1.08,0,1,0-1.94,1,1.08,1.08,0,0,0,1.94-1Z"/><path class="cls-3" d="M195.89,163.58a1.51,1.51,0,1,0-.69,2A1.51,1.51,0,0,0,195.89,163.58Z"/><path class="cls-3" d="M184.23,155.18a.26.26,0,0,0-.34-.12.25.25,0,1,0,.23.45A.25.25,0,0,0,184.23,155.18Z"/><path class="cls-3" d="M202.78,162.23a1.15,1.15,0,1,0-.52,1.55A1.16,1.16,0,0,0,202.78,162.23Z"/><path class="cls-3" d="M184.05,187.86a1.92,1.92,0,1,0-1.87,2A1.92,1.92,0,0,0,184.05,187.86Z"/><path class="cls-3" d="M180,181.83a1.7,1.7,0,1,0-1.65,1.74A1.7,1.7,0,0,0,180,181.83Z"/><path class="cls-3" d="M186.94,185.93a.54.54,0,0,0-.56-.53.54.54,0,1,0,.56.53Z"/><path class="cls-3" d="M181,174.07a1,1,0,0,0-2,.05,1,1,0,1,0,2-.05Z"/><path class="cls-3" d="M187.11,175.38a.49.49,0,0,0-1,0,.5.5,0,0,0,.5.48A.49.49,0,0,0,187.11,175.38Z"/><path class="cls-3" d="M182.93,163.57a1.62,1.62,0,1,0-1.57,1.65A1.62,1.62,0,0,0,182.93,163.57Z"/><path class="cls-3" d="M187.22,166.83a1.82,1.82,0,1,0-3.64.09,1.82,1.82,0,0,0,3.64-.09Z"/><path class="cls-3" d="M184.73,163a.54.54,0,0,0-.57-.54.56.56,0,0,0,0,1.11A.55.55,0,0,0,184.73,163Z"/><path class="cls-3" d="M193.2,161.63a2.1,2.1,0,1,0-2,2.14A2.1,2.1,0,0,0,193.2,161.63Z"/><path class="cls-3" d="M194.93,158.84a.79.79,0,1,0-.77.82A.79.79,0,0,0,194.93,158.84Z"/><path class="cls-3" d="M190.55,152.53a1.64,1.64,0,1,0-1.6,1.68A1.64,1.64,0,0,0,190.55,152.53Z"/><path class="cls-3" d="M198.56,153.08a1.13,1.13,0,0,0-1.17-1.11,1.15,1.15,0,0,0-1.11,1.17,1.14,1.14,0,1,0,2.28-.06Z"/><path class="cls-3" d="M204.16,149.91a1.39,1.39,0,1,0-1.35,1.42A1.38,1.38,0,0,0,204.16,149.91Z"/><path class="cls-3" d="M194.12,143.12a1.84,1.84,0,1,0-1.8,1.89A1.85,1.85,0,0,0,194.12,143.12Z"/><path class="cls-3" d="M204,143.52a1.67,1.67,0,1,0-1.62,1.7A1.67,1.67,0,0,0,204,143.52Z"/><path class="cls-3" d="M208,139.72a.48.48,0,0,0-.5-.47.47.47,0,0,0-.47.49.49.49,0,1,0,1,0Z"/><path class="cls-3" d="M198.9,134.61a1,1,0,1,0-1,1A1,1,0,0,0,198.9,134.61Z"/><path class="cls-3" d="M194.13,129.86a.43.43,0,1,0-.42.43A.43.43,0,0,0,194.13,129.86Z"/><path class="cls-3" d="M208.66,124.22a1.1,1.1,0,1,0-2.19,0,1.1,1.1,0,0,0,2.19,0Z"/><path class="cls-3" d="M195.49,120.53a1.75,1.75,0,1,0-1.71,1.8A1.74,1.74,0,0,0,195.49,120.53Z"/><path class="cls-3" d="M206.11,119.08a.59.59,0,0,0-.61-.58.6.6,0,0,0-.58.61.59.59,0,0,0,.61.57A.58.58,0,0,0,206.11,119.08Z"/><path class="cls-3" d="M199,116.36a.23.23,0,0,0-.25-.24.25.25,0,0,0-.24.25.26.26,0,0,0,.26.24A.24.24,0,0,0,199,116.36Z"/><path class="cls-3" d="M203.49,114.93a1.19,1.19,0,1,0-1.16,1.22A1.2,1.2,0,0,0,203.49,114.93Z"/><path class="cls-3" d="M197.48,113.2a.18.18,0,0,0-.19-.18.18.18,0,0,0-.18.19.19.19,0,1,0,.37,0Z"/><path class="cls-3" d="M189.88,112a1.27,1.27,0,0,0-2.53.06,1.27,1.27,0,1,0,2.53-.06Z"/><path class="cls-3" d="M207.38,102a1.26,1.26,0,0,0-1.3-1.23,1.26,1.26,0,1,0,.06,2.52A1.26,1.26,0,0,0,207.38,102Z"/><path class="cls-3" d="M204.88,99.15a1.09,1.09,0,0,0-2.17,0,1.09,1.09,0,1,0,2.17,0Z"/><path class="cls-3" d="M199.49,97.89a1,1,0,1,0-1,1A1,1,0,0,0,199.49,97.89Z"/><path class="cls-3" d="M189.85,98.12a.85.85,0,0,0-1.69,0,.85.85,0,0,0,1.69,0Z"/><path class="cls-3" d="M186.23,97.34a1.46,1.46,0,1,0-1.42,1.49A1.45,1.45,0,0,0,186.23,97.34Z"/><path class="cls-3" d="M204.34,90a1,1,0,1,0-.94,1A1,1,0,0,0,204.34,90Z"/><path class="cls-3" d="M189.08,94.05a1.2,1.2,0,1,0-1.17,1.23A1.2,1.2,0,0,0,189.08,94.05Z"/><path class="cls-3" d="M183.84,91.53a1.13,1.13,0,1,0-1.1,1.15A1.13,1.13,0,0,0,183.84,91.53Z"/><path class="cls-3" d="M198.47,81.53a1.58,1.58,0,1,0-1.54,1.62A1.58,1.58,0,0,0,198.47,81.53Z"/><path class="cls-3" d="M191.24,82.32a2,2,0,1,0-2,2.09A2,2,0,0,0,191.24,82.32Z"/><path class="cls-3" d="M193,80a1.34,1.34,0,1,0-1.3,1.37A1.33,1.33,0,0,0,193,80Z"/><path class="cls-3" d="M191,75.76a1.62,1.62,0,1,0-1.58,1.65A1.61,1.61,0,0,0,191,75.76Z"/><path class="cls-3" d="M187.92,72.79a1.41,1.41,0,1,0-1.38,1.44A1.41,1.41,0,0,0,187.92,72.79Z"/><path class="cls-3" d="M174.63,78.42a.85.85,0,0,0-.87-.84.86.86,0,1,0,.87.84Z"/><path class="cls-3" d="M183.82,66.8a1,1,0,0,0-2,0,1,1,0,0,0,2,0Z"/><path class="cls-3" d="M170,73.9a1.27,1.27,0,0,0-1.31-1.25,1.29,1.29,0,1,0,.06,2.57A1.28,1.28,0,0,0,170,73.9Z"/><path class="cls-3" d="M164.9,73.62a.15.15,0,1,0-.14.15A.15.15,0,0,0,164.9,73.62Z"/><path class="cls-3" d="M171.05,59.05a.91.91,0,1,0-.89.94A.91.91,0,0,0,171.05,59.05Z"/><path class="cls-3" d="M167.94,56.8a1.8,1.8,0,1,0-1.75,1.85A1.8,1.8,0,0,0,167.94,56.8Z"/><path class="cls-3" d="M164.23,52.12a.22.22,0,0,0-.43,0,.22.22,0,1,0,.43,0Z"/><path class="cls-3" d="M165.62,51.84a1.81,1.81,0,1,0-1.76,1.85A1.81,1.81,0,0,0,165.62,51.84Z"/><path class="cls-3" d="M154.34,67.43a.72.72,0,1,0-1.44,0,.71.71,0,0,0,.73.7A.73.73,0,0,0,154.34,67.43Z"/><path class="cls-3" d="M155.88,56.49a1.25,1.25,0,1,0-1.22,1.27A1.24,1.24,0,0,0,155.88,56.49Z"/><path class="cls-3" d="M153.62,50.49a1.36,1.36,0,1,0-1.32,1.39A1.35,1.35,0,0,0,153.62,50.49Z"/><path class="cls-3" d="M148.6,50.2a1.45,1.45,0,1,0-1.41,1.47A1.44,1.44,0,0,0,148.6,50.2Z"/><path class="cls-3" d="M143,59.35a.62.62,0,0,0-.64-.62.64.64,0,0,0-.63.65.65.65,0,0,0,.66.62A.62.62,0,0,0,143,59.35Z"/><path class="cls-3" d="M145,41.94a1.5,1.5,0,1,0-1.46,1.54A1.51,1.51,0,0,0,145,41.94Z"/><path class="cls-3" d="M139.6,59.85a.48.48,0,0,0-.5-.47.49.49,0,0,0,0,1A.48.48,0,0,0,139.6,59.85Z"/><path class="cls-3" d="M136.68,56a.69.69,0,1,0-.67.71A.69.69,0,0,0,136.68,56Z"/><path class="cls-3" d="M138,43.58a.64.64,0,1,0-.62.65A.64.64,0,0,0,138,43.58Z"/><path class="cls-3" d="M133.07,54a1.3,1.3,0,0,0-1.32-1.26,1.29,1.29,0,0,0,.06,2.58A1.3,1.3,0,0,0,133.07,54Z"/><path class="cls-3" d="M131.36,42.1a1.31,1.31,0,1,0-1.28,1.35A1.31,1.31,0,0,0,131.36,42.1Z"/><path class="cls-3" d="M128.35,41.68a.46.46,0,1,0-.45.47A.47.47,0,0,0,128.35,41.68Z"/><path class="cls-3" d="M128.84,54.82a1,1,0,1,0-1,1A1,1,0,0,0,128.84,54.82Z"/><path class="cls-3" d="M123.65,46.83a.77.77,0,1,0-.75.79A.77.77,0,0,0,123.65,46.83Z"/><path class="cls-3" d="M122.86,55.91A.91.91,0,0,0,121,56a.91.91,0,0,0,1.82-.05Z"/><path class="cls-3" d="M119.43,51.65a2,2,0,1,0-2,2.08A2,2,0,0,0,119.43,51.65Z"/><path class="cls-3" d="M115.22,52.68a.8.8,0,1,0-.78.82A.8.8,0,0,0,115.22,52.68Z"/><path class="cls-3" d="M113,59a1.79,1.79,0,1,0-1.74,1.83A1.79,1.79,0,0,0,113,59Z"/><path class="cls-3" d="M112.57,59.79a1.7,1.7,0,1,0-1.65,1.73A1.7,1.7,0,0,0,112.57,59.79Z"/><path class="cls-3" d="M101.08,43.08a.28.28,0,0,0-.28-.27.28.28,0,0,0-.26.28.26.26,0,0,0,.28.26A.27.27,0,0,0,101.08,43.08Z"/><path class="cls-3" d="M101.3,50.18a1.11,1.11,0,0,0-1.13-1.08,1.09,1.09,0,0,0-1.07,1.13,1.1,1.1,0,1,0,2.2,0Z"/><path class="cls-3" d="M95.15,48.92a.9.9,0,1,0-1.79,0,.9.9,0,0,0,1.79,0Z"/><path class="cls-3" d="M97.4,59.42a.75.75,0,0,0-1.5,0,.75.75,0,1,0,1.5,0Z"/><path class="cls-3" d="M94.71,59.76a1.89,1.89,0,1,0-1.84,1.94A1.89,1.89,0,0,0,94.71,59.76Z"/><path class="cls-3" d="M86.49,51.71a.76.76,0,1,0-1.51,0,.76.76,0,0,0,1.51,0Z"/><path class="cls-3" d="M87.23,54.57a.32.32,0,0,0-.34-.32.33.33,0,0,0-.33.34.34.34,0,1,0,.67,0Z"/><path class="cls-3" d="M93.39,67.56a1.43,1.43,0,0,0-2.86.07,1.43,1.43,0,1,0,2.86-.07Z"/><path class="cls-3" d="M87.18,64.71a1.37,1.37,0,1,0-1.34,1.41A1.37,1.37,0,0,0,87.18,64.71Z"/><path class="cls-3" d="M86.43,73.3a1.54,1.54,0,1,0-1.5,1.57A1.53,1.53,0,0,0,86.43,73.3Z"/><path class="cls-3" d="M80.48,67.38a1.32,1.32,0,1,0-1.28,1.35A1.32,1.32,0,0,0,80.48,67.38Z"/><path class="cls-3" d="M76.66,68.85A1.61,1.61,0,1,0,75.1,70.5,1.6,1.6,0,0,0,76.66,68.85Z"/><path class="cls-3" d="M69.05,67.18a.77.77,0,0,0-1.54,0,.78.78,0,0,0,.79.75A.76.76,0,0,0,69.05,67.18Z"/><path class="cls-3" d="M70.05,67.5a1.89,1.89,0,1,0-1.84,1.94A1.89,1.89,0,0,0,70.05,67.5Z"/><path class="cls-3" d="M66,69.41a1.88,1.88,0,1,0-1.83,1.92A1.87,1.87,0,0,0,66,69.41Z"/><path class="cls-3" d="M62.34,72.9a1.28,1.28,0,1,0-2.55.06,1.28,1.28,0,1,0,2.55-.06Z"/><path class="cls-3" d="M58,71.73a.2.2,0,0,0-.2-.2.21.21,0,0,0-.2.21.2.2,0,0,0,.21.19A.19.19,0,0,0,58,71.73Z"/><path class="cls-3" d="M64.11,80.76a.23.23,0,0,0-.23-.23.23.23,0,1,0,0,.46A.23.23,0,0,0,64.11,80.76Z"/><path class="cls-3" d="M54.14,81a.18.18,0,0,0-.18-.17.17.17,0,0,0-.17.18.17.17,0,0,0,.18.17A.17.17,0,0,0,54.14,81Z"/><path class="cls-3" d="M60.45,86.23a1.36,1.36,0,1,0-1.32,1.39A1.35,1.35,0,0,0,60.45,86.23Z"/><path class="cls-3" d="M55.8,87.42a1,1,0,1,0-1,1A1,1,0,0,0,55.8,87.42Z"/><path class="cls-3" d="M61.12,96a.83.83,0,1,0-.81.85A.83.83,0,0,0,61.12,96Z"/><path class="cls-3" d="M56.73,95a1.64,1.64,0,1,0-1.59,1.67A1.62,1.62,0,0,0,56.73,95Z"/><path class="cls-3" d="M65.59,102.56a1.06,1.06,0,1,0-1,1.08A1.05,1.05,0,0,0,65.59,102.56Z"/><path class="cls-3" d="M57.17,103.42a.48.48,0,0,0-.49-.47.49.49,0,0,0-.47.49.48.48,0,1,0,1,0Z"/><path class="cls-3" d="M50.66,102.24a1,1,0,0,0-1-.92.93.93,0,0,0-.92,1,.94.94,0,0,0,1,.92A1,1,0,0,0,50.66,102.24Z"/><path class="cls-3" d="M59.81,108.17a.9.9,0,1,0-.88.92A.9.9,0,0,0,59.81,108.17Z"/><path class="cls-3" d="M60.2,110.48a.59.59,0,0,0-.6-.57.6.6,0,0,0-.58.6.59.59,0,0,0,.6.57A.58.58,0,0,0,60.2,110.48Z"/><path class="cls-3" d="M50.9,111.53a1.55,1.55,0,1,0-1.51,1.58A1.54,1.54,0,0,0,50.9,111.53Z"/><path class="cls-3" d="M48,112.21a1,1,0,0,0-1.93.05,1,1,0,0,0,1,.94A1,1,0,0,0,48,112.21Z"/><path class="cls-3" d="M51,116.1a.81.81,0,1,0-.79.83A.81.81,0,0,0,51,116.1Z"/><path class="cls-3" d="M55,119a.65.65,0,1,0-.63.66A.64.64,0,0,0,55,119Z"/><path class="cls-3" d="M59.54,120.3a.92.92,0,0,0-.94-.89.92.92,0,0,0,0,1.83A.92.92,0,0,0,59.54,120.3Z"/><path class="cls-3" d="M42.64,122.39a.47.47,0,0,0-.48-.45.47.47,0,0,0,0,.93A.47.47,0,0,0,42.64,122.39Z"/><path class="cls-3" d="M44.85,127.52a.61.61,0,0,0-.62-.6.61.61,0,1,0,.62.6Z"/><path class="cls-3" d="M62.28,129.72a1.69,1.69,0,1,0-1.64,1.73A1.68,1.68,0,0,0,62.28,129.72Z"/><path class="cls-3" d="M43.13,131.37a.29.29,0,0,0-.31-.29.29.29,0,0,0-.29.3.3.3,0,0,0,.31.3A.3.3,0,0,0,43.13,131.37Z"/><path class="cls-3" d="M59,134.79a2,2,0,1,0-2,2.06A2,2,0,0,0,59,134.79Z"/><path class="cls-3" d="M54.08,139.21a1.22,1.22,0,0,0-2.44.06,1.22,1.22,0,0,0,2.44-.06Z"/><path class="cls-3" d="M58.9,143.55a1.87,1.87,0,1,0-1.82,1.91A1.87,1.87,0,0,0,58.9,143.55Z"/><path class="cls-3" d="M53.76,147a1.26,1.26,0,1,0-1.23,1.29A1.26,1.26,0,0,0,53.76,147Z"/><path class="cls-3" d="M55.27,152.29a1.08,1.08,0,0,0-2.16.05,1.08,1.08,0,0,0,2.16-.05Z"/><path class="cls-3" d="M64.15,151.87a1.41,1.41,0,0,0-1.43-1.37,1.4,1.4,0,0,0,.07,2.79A1.38,1.38,0,0,0,64.15,151.87Z"/><path class="cls-3" d="M58.25,157.89a1.44,1.44,0,1,0-1.41,1.48A1.44,1.44,0,0,0,58.25,157.89Z"/><path class="cls-3" d="M63.19,156.67a.57.57,0,0,0-.58-.55.56.56,0,0,0,0,1.12A.57.57,0,0,0,63.19,156.67Z"/><path class="cls-3" d="M62,160.75a.28.28,0,0,0-.28-.27.28.28,0,1,0,0,.55A.28.28,0,0,0,62,160.75Z"/><path class="cls-3" d="M57.77,167.12a.48.48,0,0,0-.5-.47.47.47,0,0,0-.47.49.49.49,0,0,0,.49.48A.5.5,0,0,0,57.77,167.12Z"/><path class="cls-3" d="M58.62,167.79a.59.59,0,1,0-.57.6A.59.59,0,0,0,58.62,167.79Z"/><path class="cls-3" d="M61.52,168.36a1.06,1.06,0,0,0-1.08-1,1,1,0,0,0-1,1.07,1.05,1.05,0,0,0,1.07,1A1.07,1.07,0,0,0,61.52,168.36Z"/><path class="cls-3" d="M56.42,175.43a1.06,1.06,0,0,0-1.08-1,1.08,1.08,0,0,0-1,1.09,1.06,1.06,0,1,0,2.12,0Z"/><path class="cls-3" d="M69.59,173a.91.91,0,0,0-1-.9.92.92,0,1,0,1,.9Z"/><path class="cls-3" d="M77.29,170.13a.47.47,0,0,0-.49-.47.49.49,0,0,0,0,1A.48.48,0,0,0,77.29,170.13Z"/><path class="cls-3" d="M67.63,186.9a1,1,0,1,0-2,0,1,1,0,0,0,2,0Z"/><path class="cls-3" d="M72.22,188.46a1.78,1.78,0,1,0-1.73,1.82A1.78,1.78,0,0,0,72.22,188.46Z"/><path class="cls-3" d="M74.24,187a.37.37,0,1,0-.73,0,.37.37,0,1,0,.73,0Z"/><path class="cls-3" d="M80.64,183.13a1.36,1.36,0,0,0-2.72.07,1.36,1.36,0,1,0,2.72-.07Z"/><path class="cls-3" d="M78.3,191.41a.67.67,0,1,0-.65.69A.67.67,0,0,0,78.3,191.41Z"/><path class="cls-3" d="M85,187.75a.75.75,0,1,0-.73.76A.75.75,0,0,0,85,187.75Z"/><path class="cls-3" d="M91.52,183.19a.54.54,0,0,0-1.07,0,.52.52,0,0,0,.55.52A.53.53,0,0,0,91.52,183.19Z"/><path class="cls-3" d="M86.93,198a.5.5,0,0,0-1,0,.5.5,0,1,0,1,0Z"/><path class="cls-3" d="M92.62,197.27A1.73,1.73,0,1,0,90.94,199,1.72,1.72,0,0,0,92.62,197.27Z"/><path class="cls-3" d="M92,204.5a1.14,1.14,0,1,0-1.11,1.17A1.13,1.13,0,0,0,92,204.5Z"/><path class="cls-3" d="M98.84,196.54a1.66,1.66,0,1,0-1.61,1.7A1.65,1.65,0,0,0,98.84,196.54Z"/><path class="cls-3" d="M99.11,206.76a1.61,1.61,0,1,0-1.57,1.65A1.61,1.61,0,0,0,99.11,206.76Z"/><path class="cls-3" d="M99.79,203.92a.48.48,0,0,0-.49-.46.47.47,0,0,0-.46.49.46.46,0,0,0,.48.46A.49.49,0,0,0,99.79,203.92Z"/><path class="cls-3" d="M103.53,202.87a.79.79,0,1,0-.77.81A.79.79,0,0,0,103.53,202.87Z"/><path class="cls-3" d="M105.56,194.93a.41.41,0,0,0-.42-.4.41.41,0,0,0,0,.82A.41.41,0,0,0,105.56,194.93Z"/><path class="cls-3" d="M111.69,191.7a1.83,1.83,0,1,0-1.78,1.86A1.82,1.82,0,0,0,111.69,191.7Z"/><path class="cls-3" d="M113,196.12a1.65,1.65,0,0,0-3.29.08,1.65,1.65,0,1,0,3.29-.08Z"/><path class="cls-3" d="M112.17,205.33a.31.31,0,0,0-.61,0,.31.31,0,0,0,.31.31A.31.31,0,0,0,112.17,205.33Z"/><path class="cls-3" d="M115.85,203.89a1.84,1.84,0,1,0-1.8,1.89A1.84,1.84,0,0,0,115.85,203.89Z"/><path class="cls-3" d="M120.43,194.25a1.78,1.78,0,1,0-1.74,1.82A1.78,1.78,0,0,0,120.43,194.25Z"/><path class="cls-3" d="M124.44,195.61a2.1,2.1,0,1,0-2,2.15A2.09,2.09,0,0,0,124.44,195.61Z"/><path class="cls-3" d="M127.39,205.65a1.51,1.51,0,1,0-1.47,1.55A1.51,1.51,0,0,0,127.39,205.65Z"/><path class="cls-3" d="M126.68,195.42a.58.58,0,0,0-.6-.58.6.6,0,0,0-.58.61.59.59,0,0,0,1.18,0Z"/><path class="cls-3" d="M128.63,190.7a1.58,1.58,0,0,0-3.16.07,1.58,1.58,0,0,0,3.16-.07Z"/><path class="cls-3" d="M134.18,200.26A1.72,1.72,0,1,0,132.5,202,1.72,1.72,0,0,0,134.18,200.26Z"/><path class="cls-3" d="M137.27,193.6a1,1,0,0,0-1-1,1,1,0,1,0,1,1Z"/><path class="cls-3" d="M142.52,204a2,2,0,1,0-1.93,2A2,2,0,0,0,142.52,204Z"/><path class="cls-3" d="M144.65,198.77a.15.15,0,0,0-.16-.15.16.16,0,0,0-.15.16.16.16,0,0,0,.16.16A.16.16,0,0,0,144.65,198.77Z"/><path class="cls-3" d="M145.25,186.67a.57.57,0,1,0-.55.58A.56.56,0,0,0,145.25,186.67Z"/><path class="cls-3" d="M153.94,196.11a1.05,1.05,0,0,0-1.07-1,1.06,1.06,0,0,0,0,2.11A1.05,1.05,0,0,0,153.94,196.11Z"/><path class="cls-3" d="M159.81,202.29a1.26,1.26,0,1,0-1.22,1.28A1.25,1.25,0,0,0,159.81,202.29Z"/><path class="cls-3" d="M160.36,191.76a.48.48,0,0,0-.49-.46.47.47,0,0,0-.47.49.48.48,0,0,0,.49.47A.49.49,0,0,0,160.36,191.76Z"/><path class="cls-3" d="M162.17,192.76a.34.34,0,0,0-.67,0,.34.34,0,0,0,.67,0Z"/><path class="cls-3" d="M168.65,197.39a1,1,0,1,0-1,1A1,1,0,0,0,168.65,197.39Z"/><path class="cls-3" d="M167.68,185.38a1.07,1.07,0,0,0-1.1-1,1.08,1.08,0,0,0-1.06,1.11,1.08,1.08,0,1,0,2.16-.06Z"/><path class="cls-3" d="M172.72,189.74a1.51,1.51,0,1,0-1.47,1.54A1.51,1.51,0,0,0,172.72,189.74Z"/><path class="cls-3" d="M165.7,177.2a.26.26,0,1,0-.51,0,.26.26,0,0,0,.51,0Z"/><path class="cls-3" d="M179.55,191.42a1.16,1.16,0,1,0-1.13,1.19A1.17,1.17,0,0,0,179.55,191.42Z"/><circle class="cls-4" cx="128.08" cy="128.08" r="128.08"/></g><g id="forme_2"><path class="cls-3" d="M217.57,131.67a2.07,2.07,0,1,0,0,2.92A2.06,2.06,0,0,0,217.57,131.67Z"/><path class="cls-3" d="M210,129.85a1.82,1.82,0,1,0,0,2.58A1.83,1.83,0,0,0,210,129.85Z"/><path class="cls-3" d="M218.44,128a.58.58,0,1,0-.84.81.58.58,0,1,0,.84-.81Z"/><path class="cls-3" d="M205.1,123a1.07,1.07,0,1,0,0,1.52A1.07,1.07,0,0,0,205.1,123Z"/><path class="cls-3" d="M210.88,119.57a.52.52,0,0,0-.74,0,.51.51,0,0,0,0,.74.52.52,0,0,0,.74,0A.53.53,0,0,0,210.88,119.57Z"/><path class="cls-3" d="M199,113.28a1.74,1.74,0,1,0,0,2.46A1.74,1.74,0,0,0,199,113.28Z"/><path class="cls-3" d="M204.72,112.73a2,2,0,1,0,0,2.77A2,2,0,0,0,204.72,112.73Z"/><path class="cls-3" d="M200,111.55a.6.6,0,0,0-.84,0,.61.61,0,0,0,0,.85.6.6,0,0,0,.85,0A.59.59,0,0,0,200,111.55Z"/><path class="cls-3" d="M205.66,104.25a2.26,2.26,0,1,0,0,3.19A2.27,2.27,0,0,0,205.66,104.25Z"/><path class="cls-3" d="M205,100.78a.86.86,0,1,0,0,1.21A.85.85,0,0,0,205,100.78Z"/><path class="cls-3" d="M196.92,99a1.77,1.77,0,1,0,0,2.5A1.77,1.77,0,0,0,196.92,99Z"/><path class="cls-3" d="M203.66,93.58a1.23,1.23,0,1,0,0,1.73A1.23,1.23,0,0,0,203.66,93.58Z"/><path class="cls-3" d="M205.77,87a1.49,1.49,0,1,0,0,2.11A1.49,1.49,0,0,0,205.77,87Z"/><path class="cls-3" d="M192.88,89a2,2,0,1,0,0,2.79A2,2,0,0,0,192.88,89Z"/><path class="cls-3" d="M201,82a1.79,1.79,0,1,0,0,2.53A1.79,1.79,0,0,0,201,82Z"/><path class="cls-3" d="M201.38,76.1a.52.52,0,0,0-.74,0,.53.53,0,0,0,0,.74.52.52,0,1,0,.75-.73Z"/><path class="cls-3" d="M190.44,78.72a1.09,1.09,0,1,0,0,1.55A1.1,1.1,0,0,0,190.44,78.72Z"/><path class="cls-3" d="M183.2,78.45a.46.46,0,0,0-.66.64.46.46,0,0,0,.66-.64Z"/><path class="cls-3" d="M190.57,63.37a1.18,1.18,0,1,0,0,1.67A1.19,1.19,0,0,0,190.57,63.37Z"/><path class="cls-3" d="M177.47,70.08a1.88,1.88,0,1,0,0,2.66A1.88,1.88,0,0,0,177.47,70.08Z"/><path class="cls-3" d="M184.8,61.17a.63.63,0,0,0-.9,0,.63.63,0,0,0,0,.9.64.64,0,1,0,.91-.89Z"/><path class="cls-3" d="M177.17,64.23a.27.27,0,0,0-.37,0,.27.27,0,1,0,.37.38A.27.27,0,0,0,177.17,64.23Z"/><path class="cls-3" d="M179.7,59.81a1.28,1.28,0,1,0,0,1.8A1.28,1.28,0,0,0,179.7,59.81Z"/><path class="cls-3" d="M173.69,62.82a.21.21,0,0,0-.29,0,.2.2,0,0,0,.28.29A.22.22,0,0,0,173.69,62.82Z"/><path class="cls-3" d="M166.77,67.38a1.36,1.36,0,0,0-2,1.9,1.35,1.35,0,0,0,1.93,0A1.37,1.37,0,0,0,166.77,67.38Z"/><path class="cls-3" d="M173.34,46.75a1.36,1.36,0,1,0,0,1.92A1.36,1.36,0,0,0,173.34,46.75Z"/><path class="cls-3" d="M169.28,46.31a1.17,1.17,0,0,0-1.65,0A1.17,1.17,0,0,0,169.26,48,1.17,1.17,0,0,0,169.28,46.31Z"/><path class="cls-3" d="M164.1,49.25a1.06,1.06,0,1,0,0,1.5A1.06,1.06,0,0,0,164.1,49.25Z"/><path class="cls-3" d="M156.64,56.47a.91.91,0,1,0,0,1.28A.9.9,0,0,0,156.64,56.47Z"/><path class="cls-3" d="M153.21,58.49a1.57,1.57,0,1,0,0,2.22A1.57,1.57,0,0,0,153.21,58.49Z"/><path class="cls-3" d="M162.16,39.45a1,1,0,0,0-1.47,0,1,1,0,1,0,1.47,0Z"/><path class="cls-3" d="M153.06,53.81a1.29,1.29,0,1,0,0,1.83A1.28,1.28,0,0,0,153.06,53.81Z"/><path class="cls-3" d="M147.08,55.64a1.21,1.21,0,1,0,0,1.71A1.2,1.2,0,0,0,147.08,55.64Z"/><path class="cls-3" d="M151.35,37.06a1.7,1.7,0,1,0,0,2.4A1.71,1.71,0,0,0,151.35,37.06Z"/><path class="cls-3" d="M146.21,43a2.19,2.19,0,1,0-.05,3.1A2.2,2.2,0,0,0,146.21,43Z"/><path class="cls-3" d="M145.86,39.87a1.44,1.44,0,1,0,0,2A1.44,1.44,0,0,0,145.86,39.87Z"/><path class="cls-3" d="M141.24,37.94a1.74,1.74,0,1,0,0,2.46A1.74,1.74,0,0,0,141.24,37.94Z"/><path class="cls-3" d="M136.62,37.84a1.51,1.51,0,1,0,0,2.15A1.52,1.52,0,0,0,136.62,37.84Z"/><path class="cls-3" d="M130.22,52a.92.92,0,1,0,0,1.3A.91.91,0,0,0,130.22,52Z"/><path class="cls-3" d="M129,36.11a1.09,1.09,0,1,0-1.56,1.51A1.09,1.09,0,1,0,129,36.11Z"/><path class="cls-3" d="M123.3,51.78a1.38,1.38,0,1,0,0,1.95A1.39,1.39,0,0,0,123.3,51.78Z"/><path class="cls-3" d="M119,55.31a.16.16,0,0,0-.23,0,.16.16,0,0,0,0,.22.16.16,0,1,0,.23-.21Z"/><path class="cls-3" d="M113.26,39.29a1,1,0,0,0-1.41,1.37,1,1,0,0,0,1.38,0A1,1,0,0,0,113.26,39.29Z"/><path class="cls-3" d="M109.15,39.78a1.94,1.94,0,1,0,0,2.75A1.93,1.93,0,0,0,109.15,39.78Z"/><path class="cls-3" d="M102.8,38.8a.23.23,0,1,0-.33.32.23.23,0,0,0,.33-.32Z"/><path class="cls-3" d="M103.7,37.56a1.94,1.94,0,1,0,0,2.75A1.93,1.93,0,0,0,103.7,37.56Z"/><path class="cls-3" d="M106.16,58.12a.78.78,0,0,0-1.1,0,.78.78,0,0,0,0,1.1.78.78,0,0,0,1.1,0A.78.78,0,0,0,106.16,58.12Z"/><path class="cls-3" d="M99.38,48.34a1.34,1.34,0,1,0,0,1.9A1.34,1.34,0,0,0,99.38,48.34Z"/><path class="cls-3" d="M93.22,45.25a1.46,1.46,0,1,0,0,2.06A1.45,1.45,0,0,0,93.22,45.25Z"/><path class="cls-3" d="M89,48.69a1.55,1.55,0,1,0-2.23,2.16,1.57,1.57,0,0,0,2.2,0A1.55,1.55,0,0,0,89,48.69Z"/><path class="cls-3" d="M91.25,60a.68.68,0,0,0-1,1,.69.69,0,0,0,1,0A.68.68,0,0,0,91.25,60Z"/><path class="cls-3" d="M80.15,44.79a1.62,1.62,0,1,0,0,2.28A1.6,1.6,0,0,0,80.15,44.79Z"/><path class="cls-3" d="M89,62.89a.52.52,0,0,0-.74,0,.52.52,0,1,0,.74,0Z"/><path class="cls-3" d="M83.85,62a.73.73,0,0,0-1,0,.75.75,0,0,0,0,1.06.75.75,0,0,0,1.06,0A.74.74,0,0,0,83.85,62Z"/><path class="cls-3" d="M75.82,51.18a.68.68,0,1,0,0,1A.68.68,0,0,0,75.82,51.18Z"/><path class="cls-3" d="M79.53,63a1.39,1.39,0,1,0,0,2A1.38,1.38,0,0,0,79.53,63Z"/><path class="cls-3" d="M69.49,54.86a1.41,1.41,0,1,0,0,2A1.42,1.42,0,0,0,69.49,54.86Z"/><path class="cls-3" d="M66.8,56.73a.5.5,0,1,0,0,.7A.49.49,0,0,0,66.8,56.73Z"/><path class="cls-3" d="M76.78,66.77a1.09,1.09,0,1,0-1.56,1.51,1.09,1.09,0,1,0,1.56-1.51Z"/><path class="cls-3" d="M66.84,64.24a.82.82,0,0,0-1.17,0,.82.82,0,0,0,0,1.17.84.84,0,0,0,1.18,0A.82.82,0,0,0,66.84,64.24Z"/><path class="cls-3" d="M72.85,72a1,1,0,0,0-1.41,1.36,1,1,0,0,0,1.39,0A1,1,0,0,0,72.85,72Z"/><path class="cls-3" d="M64.45,75a.87.87,0,0,0-1.22,0,.86.86,0,1,0,1.2,1.23A.87.87,0,0,0,64.45,75Z"/><path class="cls-3" d="M67.32,81.62a1.93,1.93,0,1,0,0,2.73A1.94,1.94,0,0,0,67.32,81.62Z"/><path class="cls-3" d="M67.54,82.57a1.82,1.82,0,1,0,0,2.58A1.82,1.82,0,0,0,67.54,82.57Z"/><path class="cls-3" d="M46.25,77.74a.3.3,0,0,0-.41,0,.29.29,0,0,0,0,.41.29.29,0,0,0,.41-.41Z"/><path class="cls-3" d="M51.61,83.2a1.18,1.18,0,1,0,0,1.67A1.18,1.18,0,0,0,51.61,83.2Z"/><path class="cls-3" d="M45.83,86.69a1,1,0,1,0,0,1.36A1,1,0,0,0,45.83,86.69Z"/><path class="cls-3" d="M55.27,93.35a.81.81,0,0,0-1.14,0,.81.81,0,1,0,1.13,1.16A.81.81,0,0,0,55.27,93.35Z"/><path class="cls-3" d="M53.39,95.58a2,2,0,1,0,0,2.88A2,2,0,0,0,53.39,95.58Z"/><path class="cls-3" d="M41,95.22a.81.81,0,0,0-1.17,1.13.8.8,0,0,0,1.15,0A.82.82,0,0,0,41,95.22Z"/><path class="cls-3" d="M43.7,96.94a.37.37,0,1,0,0,.52A.37.37,0,0,0,43.7,96.94Z"/><path class="cls-3" d="M58.05,102.72a1.54,1.54,0,1,0,0,2.18A1.54,1.54,0,0,0,58.05,102.72Z"/><path class="cls-3" d="M51.06,105a1.47,1.47,0,1,0,0,2.09A1.47,1.47,0,0,0,51.06,105Z"/><path class="cls-3" d="M56.73,112.33a1.65,1.65,0,1,0,0,2.34A1.66,1.66,0,0,0,56.73,112.33Z"/><path class="cls-3" d="M47.71,112a1.42,1.42,0,1,0,0,2A1.42,1.42,0,0,0,47.71,112Z"/><path class="cls-3" d="M45.76,116a1.73,1.73,0,1,0,0,2.45A1.72,1.72,0,0,0,45.76,116Z"/><path class="cls-3" d="M38.52,120.19a.83.83,0,1,0,0,1.17A.82.82,0,0,0,38.52,120.19Z"/><path class="cls-3" d="M39.55,119.71a2,2,0,1,0,0,2.87A2,2,0,0,0,39.55,119.71Z"/><path class="cls-3" d="M37.76,124.15a2,2,0,1,0,0,2.86A2,2,0,0,0,37.76,124.15Z"/><path class="cls-3" d="M37.39,129.61a1.37,1.37,0,1,0,0,1.94A1.36,1.36,0,0,0,37.39,129.61Z"/><path class="cls-3" d="M33.1,131.85a.22.22,0,0,0-.31,0,.23.23,0,0,0,0,.31.21.21,0,0,0,.31,0A.22.22,0,0,0,33.1,131.85Z"/><path class="cls-3" d="M44.52,134.53a.24.24,0,0,0-.35.34.25.25,0,0,0,.35,0A.24.24,0,0,0,44.52,134.53Z"/><path class="cls-3" d="M36.83,142a.19.19,0,0,0-.26,0,.2.2,0,0,0,0,.28.2.2,0,0,0,.27,0A.18.18,0,0,0,36.83,142Z"/><path class="cls-3" d="M45.63,141.53a1.46,1.46,0,1,0,0,2.07A1.47,1.47,0,0,0,45.63,141.53Z"/><path class="cls-3" d="M42.82,145.86a1.1,1.1,0,1,0-1.58,1.54,1.1,1.1,0,0,0,1.56,0A1.11,1.11,0,0,0,42.82,145.86Z"/><path class="cls-3" d="M53.31,148.79a.9.9,0,0,0-1.27,0,.9.9,0,1,0,1.27,0Z"/><path class="cls-3" d="M49.07,151.17a1.76,1.76,0,1,0,0,2.49A1.76,1.76,0,0,0,49.07,151.17Z"/><path class="cls-3" d="M61.61,150.7A1.14,1.14,0,0,0,60,152.28a1.14,1.14,0,0,0,1.61,0A1.13,1.13,0,0,0,61.61,150.7Z"/><path class="cls-3" d="M55.58,157.52a.52.52,0,1,0,0,.73A.52.52,0,0,0,55.58,157.52Z"/><path class="cls-3" d="M49.57,161.34a1,1,0,0,0-1.44,0,1,1,0,0,0,1.42,1.46A1,1,0,0,0,49.57,161.34Z"/><path class="cls-3" d="M61.14,159.35a1,1,0,0,0-1.4,1.35,1,1,0,0,0,1.4-1.35Z"/><path class="cls-3" d="M63.13,160.9a.63.63,0,1,0-.91.88.64.64,0,0,0,.9,0A.63.63,0,0,0,63.13,160.9Z"/><path class="cls-3" d="M56.54,168.51a1.67,1.67,0,1,0,0,2.35A1.66,1.66,0,0,0,56.54,168.51Z"/><path class="cls-3" d="M54.77,171.15a1,1,0,1,0,0,1.47A1,1,0,0,0,54.77,171.15Z"/><path class="cls-3" d="M59.92,172.09a.87.87,0,0,0-1.23,0,.87.87,0,1,0,1.23,0Z"/><path class="cls-3" d="M65.25,171.42a.7.7,0,1,0-1,1,.69.69,0,0,0,1,0A.69.69,0,0,0,65.25,171.42Z"/><path class="cls-3" d="M69.78,169.14a1,1,0,0,0-1.42,1.38,1,1,0,0,0,1.42-1.38Z"/><path class="cls-3" d="M57.94,183.14a.5.5,0,1,0,0,.71A.5.5,0,0,0,57.94,183.14Z"/><path class="cls-3" d="M63.43,185.57a.65.65,0,0,0-.94.91.65.65,0,1,0,.94-.91Z"/><path class="cls-3" d="M78.82,174.59a1.81,1.81,0,1,0-2.6,2.53,1.81,1.81,0,1,0,2.6-2.53Z"/><path class="cls-3" d="M64.88,189.88a.31.31,0,0,0-.46,0,.33.33,0,0,0,0,.46.32.32,0,0,0,.46,0A.31.31,0,0,0,64.88,189.88Z"/><path class="cls-3" d="M79.92,181a2.17,2.17,0,1,0,0,3.07A2.18,2.18,0,0,0,79.92,181Z"/><path class="cls-3" d="M79.26,188.09a1.31,1.31,0,1,0,0,1.85A1.31,1.31,0,0,0,79.26,188.09Z"/><path class="cls-3" d="M86.25,188a2,2,0,1,0,0,2.84A2,2,0,0,0,86.25,188Z"/><path class="cls-3" d="M84.67,194.45a1.35,1.35,0,1,0,0,1.91A1.36,1.36,0,0,0,84.67,194.45Z"/><path class="cls-3" d="M89.75,197.56a1.16,1.16,0,0,0-1.64,0,1.14,1.14,0,0,0,0,1.63,1.16,1.16,0,1,0,1.66-1.61Z"/><path class="cls-3" d="M96.47,190.74a1.5,1.5,0,1,0,0,2.12A1.5,1.5,0,0,0,96.47,190.74Z"/><path class="cls-3" d="M96.2,199.81a1.55,1.55,0,1,0,0,2.2A1.55,1.55,0,0,0,96.2,199.81Z"/><path class="cls-3" d="M99.21,195.24a.59.59,0,0,0-.85,0,.6.6,0,0,0,0,.85.61.61,0,0,0,.86,0A.6.6,0,0,0,99.21,195.24Z"/><path class="cls-3" d="M101.21,199.37a.29.29,0,0,0-.42.41.3.3,0,0,0,.42,0A.29.29,0,0,0,101.21,199.37Z"/><path class="cls-3" d="M102.56,207.46a.53.53,0,0,0-.74,0,.52.52,0,0,0,.72.75A.52.52,0,0,0,102.56,207.46Z"/><path class="cls-3" d="M103.72,207.37a.63.63,0,1,0-.9.88.62.62,0,0,0,.89,0A.63.63,0,0,0,103.72,207.37Z"/><path class="cls-3" d="M106.43,205.71a1.13,1.13,0,0,0-1.6,0,1.13,1.13,0,0,0,1.57,1.62A1.14,1.14,0,0,0,106.43,205.71Z"/><path class="cls-3" d="M107.56,215a1.13,1.13,0,0,0-1.61,0,1.14,1.14,0,1,0,1.61,0Z"/><path class="cls-3" d="M116.19,203.47a1,1,0,0,0-1.41,0,1,1,0,0,0,1.39,1.43A1,1,0,0,0,116.19,203.47Z"/><path class="cls-3" d="M120.2,195.59a.52.52,0,0,0-.74,0,.52.52,0,0,0,.73.75A.52.52,0,0,0,120.2,195.59Z"/><path class="cls-3" d="M124.79,215.9a1.1,1.1,0,1,0,0,1.56A1.1,1.1,0,0,0,124.79,215.9Z"/><path class="cls-3" d="M129.57,213.79a1.91,1.91,0,1,0,0,2.7A1.9,1.9,0,0,0,129.57,213.79Z"/><path class="cls-3" d="M130.07,211.13a.4.4,0,0,0-.56,0,.4.4,0,1,0,.56.57A.4.4,0,0,0,130.07,211.13Z"/><path class="cls-3" d="M132.33,203.43a1.46,1.46,0,1,0,0,2.07A1.45,1.45,0,0,0,132.33,203.43Z"/><path class="cls-3" d="M136.53,211.69a.72.72,0,1,0-1,1,.72.72,0,1,0,1-1Z"/><path class="cls-3" d="M139.17,203.88A.8.8,0,1,0,138,205a.8.8,0,1,0,1.15-1.12Z"/><path class="cls-3" d="M141,195.53a.58.58,0,0,0-.83.81.57.57,0,0,0,.81,0A.58.58,0,0,0,141,195.53Z"/><path class="cls-3" d="M148.16,210.58a.54.54,0,1,0,0,.77A.55.55,0,0,0,148.16,210.58Z"/><path class="cls-3" d="M152.14,205.87a1.86,1.86,0,1,0,0,2.62A1.86,1.86,0,0,0,152.14,205.87Z"/><path class="cls-3" d="M156.88,212.07a1.23,1.23,0,1,0,0,1.73A1.23,1.23,0,0,0,156.88,212.07Z"/><path class="cls-3" d="M156.53,200.75a1.79,1.79,0,1,0,0,2.52A1.79,1.79,0,0,0,156.53,200.75Z"/><path class="cls-3" d="M164.19,208.64a1.71,1.71,0,0,0-2.44,0,1.73,1.73,0,1,0,2.44,0Z"/><path class="cls-3" d="M162.66,205.9a.52.52,0,0,0-.73,0,.53.53,0,0,0,0,.73.51.51,0,0,0,.74-.71Z"/><path class="cls-3" d="M164.85,202.32a.86.86,0,0,0-1.21,0,.84.84,0,0,0,0,1.2.86.86,0,0,0,1.23-1.19Z"/><path class="cls-3" d="M160.66,194.56a.44.44,0,1,0-.63.62.44.44,0,0,0,.62,0A.45.45,0,0,0,160.66,194.56Z"/><path class="cls-3" d="M163.15,187.53a2,2,0,1,0-.05,2.78A2,2,0,0,0,163.15,187.53Z"/><path class="cls-3" d="M167.44,190.05a1.77,1.77,0,0,0-2.54,2.46,1.77,1.77,0,1,0,2.54-2.46Z"/><path class="cls-3" d="M173.48,198a.32.32,0,0,0-.47,0,.33.33,0,0,0,0,.47.34.34,0,0,0,.47,0A.33.33,0,0,0,173.48,198Z"/><path class="cls-3" d="M175.34,194.15a2,2,0,1,0-.05,2.79A2,2,0,0,0,175.34,194.15Z"/><path class="cls-3" d="M171.92,183.18a1.91,1.91,0,1,0,0,2.7A1.91,1.91,0,0,0,171.92,183.18Z"/><path class="cls-3" d="M176.08,181.33a2.25,2.25,0,1,0,0,3.18A2.25,2.25,0,0,0,176.08,181.33Z"/><path class="cls-3" d="M185.75,187.11a1.63,1.63,0,1,0,0,2.3A1.63,1.63,0,0,0,185.75,187.11Z"/><path class="cls-3" d="M177.72,179.53a.64.64,0,0,0-.9,0,.62.62,0,0,0,0,.89.63.63,0,0,0,.9,0A.64.64,0,0,0,177.72,179.53Z"/><path class="cls-3" d="M175.81,174.38a1.7,1.7,0,1,0,0,2.4A1.69,1.69,0,0,0,175.81,174.38Z"/><path class="cls-3" d="M187.18,177.89a1.85,1.85,0,1,0,0,2.61A1.83,1.83,0,0,0,187.18,177.89Z"/><path class="cls-3" d="M184.76,170.37a1.09,1.09,0,1,0,0,1.54A1.08,1.08,0,0,0,184.76,170.37Z"/><path class="cls-3" d="M196.49,174.74a2.13,2.13,0,1,0-.05,3A2.12,2.12,0,0,0,196.49,174.74Z"/><path class="cls-3" d="M194.38,169.07a.17.17,0,0,0-.24,0,.16.16,0,0,0,0,.24.17.17,0,0,0,.24,0A.16.16,0,0,0,194.38,169.07Z"/><path class="cls-3" d="M186,159.06a.61.61,0,1,0,0,.86A.61.61,0,0,0,186,159.06Z"/><path class="cls-3" d="M199.79,160.18a1.14,1.14,0,0,0-1.61,0,1.13,1.13,0,0,0,1.58,1.62A1.14,1.14,0,0,0,199.79,160.18Z"/><path class="cls-3" d="M208.93,160.79a1.34,1.34,0,1,0,0,1.9A1.33,1.33,0,0,0,208.93,160.79Z"/><path class="cls-3" d="M201.69,152.06a.52.52,0,1,0,0,.73A.52.52,0,0,0,201.69,152.06Z"/><path class="cls-3" d="M203.84,151.52a.36.36,0,1,0,0,.51A.35.35,0,0,0,203.84,151.52Z"/><path class="cls-3" d="M212.35,150.46a1,1,0,1,0,0,1.48A1,1,0,0,0,212.35,150.46Z"/><path class="cls-3" d="M202.82,141.67a1.16,1.16,0,1,0,0,1.64A1.15,1.15,0,0,0,202.82,141.67Z"/><path class="cls-3" d="M210,141.43a1.62,1.62,0,1,0,0,2.29A1.61,1.61,0,0,0,210,141.43Z"/><path class="cls-3" d="M195.28,136.64a.28.28,0,0,0-.39,0,.27.27,0,0,0,0,.39.27.27,0,0,0,.38,0A.28.28,0,0,0,195.28,136.64Z"/><path class="cls-3" d="M216.61,137.78a1.24,1.24,0,1,0,0,1.76A1.24,1.24,0,0,0,216.61,137.78Z"/><path class="cls-3" d="M205.82,170.2a2.07,2.07,0,1,0-1.28,2.63A2.06,2.06,0,0,0,205.82,170.2Z"/><path class="cls-3" d="M199.71,165.35a1.82,1.82,0,1,0-1.13,2.32A1.82,1.82,0,0,0,199.71,165.35Z"/><path class="cls-3" d="M208.15,167.27a.6.6,0,0,0-.75-.36.59.59,0,0,0,.38,1.11A.6.6,0,0,0,208.15,167.27Z"/><path class="cls-3" d="M198.18,157.07a1.07,1.07,0,0,0-1.37-.66,1.07,1.07,0,1,0,1.37.66Z"/><path class="cls-3" d="M204.86,156.4a.54.54,0,0,0-.67-.32.53.53,0,1,0,.67.32Z"/><path class="cls-3" d="M196.7,145.67a1.74,1.74,0,1,0-1.07,2.21A1.73,1.73,0,0,0,196.7,145.67Z"/><path class="cls-3" d="M202.17,147.6a2,2,0,1,0-1.22,2.5A2,2,0,0,0,202.17,147.6Z"/><path class="cls-3" d="M198.37,144.54a.58.58,0,0,0-.76-.37.6.6,0,1,0,.76.37Z"/><path class="cls-3" d="M206.59,140.31a2.25,2.25,0,1,0-1.39,2.87A2.27,2.27,0,0,0,206.59,140.31Z"/><path class="cls-3" d="M207.46,136.89a.86.86,0,1,0-1.62.56.86.86,0,0,0,1.62-.56Z"/><path class="cls-3" d="M200.89,131.86a1.77,1.77,0,1,0-1.09,2.25A1.75,1.75,0,0,0,200.89,131.86Z"/><path class="cls-3" d="M209.28,129.79a1.23,1.23,0,1,0-2.32.81,1.23,1.23,0,0,0,2.32-.81Z"/><path class="cls-3" d="M214,124.7a1.49,1.49,0,1,0-.92,1.9A1.49,1.49,0,0,0,214,124.7Z"/><path class="cls-3" d="M201.46,121a2,2,0,1,0-1.22,2.52A2,2,0,0,0,201.46,121Z"/><path class="cls-3" d="M211.73,118.2a1.79,1.79,0,1,0-1.11,2.28A1.79,1.79,0,0,0,211.73,118.2Z"/><path class="cls-3" d="M214.6,113a.53.53,0,0,0-.67-.32.52.52,0,0,0-.33.66.53.53,0,0,0,.67.33A.54.54,0,0,0,214.6,113Z"/><path class="cls-3" d="M203.57,110.75a1.09,1.09,0,0,0-2.06.71,1.09,1.09,0,1,0,2.06-.71Z"/><path class="cls-3" d="M197.11,107.44a.46.46,0,0,0-.86.3.46.46,0,1,0,.86-.3Z"/><path class="cls-3" d="M210.16,96.89a1.18,1.18,0,1,0-.73,1.5A1.18,1.18,0,0,0,210.16,96.89Z"/><path class="cls-3" d="M195.45,97.43a1.88,1.88,0,1,0-1.16,2.41A1.89,1.89,0,0,0,195.45,97.43Z"/><path class="cls-3" d="M205.86,92.46a.64.64,0,1,0-.4.81A.64.64,0,0,0,205.86,92.46Z"/><path class="cls-3" d="M197.65,92a.26.26,0,0,0-.33-.16.26.26,0,1,0,.33.16Z"/><path class="cls-3" d="M201.81,89.07a1.28,1.28,0,0,0-1.62-.79,1.27,1.27,0,1,0,.83,2.41A1.27,1.27,0,0,0,201.81,89.07Z"/><path class="cls-3" d="M195.09,89.26a.21.21,0,0,0-.26-.12.19.19,0,0,0-.12.25.2.2,0,0,0,.25.13A.21.21,0,0,0,195.09,89.26Z"/><path class="cls-3" d="M186.89,90.48a1.37,1.37,0,0,0-1.74-.84,1.35,1.35,0,0,0-.84,1.73,1.36,1.36,0,1,0,2.58-.89Z"/><path class="cls-3" d="M201.56,74.55a1.36,1.36,0,1,0-.84,1.73A1.37,1.37,0,0,0,201.56,74.55Z"/><path class="cls-3" d="M198.06,72.43a1.17,1.17,0,1,0-.72,1.49A1.17,1.17,0,0,0,198.06,72.43Z"/><path class="cls-3" d="M192.12,72.91a1.06,1.06,0,1,0-.66,1.35A1.06,1.06,0,0,0,192.12,72.91Z"/><path class="cls-3" d="M182.31,76.31a.9.9,0,1,0-.56,1.15A.89.89,0,0,0,182.31,76.31Z"/><path class="cls-3" d="M178.35,76.7a1.57,1.57,0,1,0-3,1,1.57,1.57,0,0,0,3-1Z"/><path class="cls-3" d="M194.5,63.21a1,1,0,1,0-.64,1.32A1,1,0,0,0,194.5,63.21Z"/><path class="cls-3" d="M180.19,72.39A1.29,1.29,0,1,0,179.4,74,1.29,1.29,0,0,0,180.19,72.39Z"/><path class="cls-3" d="M174,71.52a1.21,1.21,0,1,0-.75,1.54A1.21,1.21,0,0,0,174,71.52Z"/><path class="cls-3" d="M178.56,59.66a2.19,2.19,0,1,0-1.36,2.79A2.2,2.2,0,0,0,178.56,59.66Z"/><path class="cls-3" d="M179.55,56.71a1.44,1.44,0,1,0-.89,1.83A1.44,1.44,0,0,0,179.55,56.71Z"/><path class="cls-3" d="M176.17,53a1.74,1.74,0,0,0-3.29,1.14A1.74,1.74,0,0,0,176.17,53Z"/><path class="cls-3" d="M172,51a1.51,1.51,0,1,0-.93,1.93A1.52,1.52,0,0,0,172,51Z"/><path class="cls-3" d="M160.25,61.11a.92.92,0,1,0-.57,1.17A.92.92,0,0,0,160.25,61.11Z"/><path class="cls-3" d="M165.85,46.19a1.08,1.08,0,1,0-.67,1.38A1.07,1.07,0,0,0,165.85,46.19Z"/><path class="cls-3" d="M154.07,58a1.39,1.39,0,1,0-.86,1.76A1.38,1.38,0,0,0,154.07,58Z"/><path class="cls-3" d="M148.7,59.38a.16.16,0,0,0-.2-.09.16.16,0,1,0,.11.29A.15.15,0,0,0,148.7,59.38Z"/><path class="cls-3" d="M150.23,42.43a1,1,0,0,0-1.26-.6,1,1,0,1,0,1.26.6Z"/><path class="cls-3" d="M146.3,41.14a1.94,1.94,0,1,0-1.2,2.47A1.93,1.93,0,0,0,146.3,41.14Z"/><path class="cls-3" d="M141,37.57a.23.23,0,0,0-.29-.15.24.24,0,0,0-.14.3.23.23,0,0,0,.29.14A.22.22,0,0,0,141,37.57Z"/><path class="cls-3" d="M142.3,36.82a1.95,1.95,0,1,0-1.2,2.48A2,2,0,0,0,142.3,36.82Z"/><path class="cls-3" d="M135.84,56.51a.77.77,0,1,0-1.46.51.78.78,0,0,0,1,.48A.77.77,0,0,0,135.84,56.51Z"/><path class="cls-3" d="M133.83,44.78a1.34,1.34,0,1,0-.83,1.71A1.33,1.33,0,0,0,133.83,44.78Z"/><path class="cls-3" d="M129.55,39.38a1.46,1.46,0,1,0-.9,1.85A1.46,1.46,0,0,0,129.55,39.38Z"/><path class="cls-3" d="M124.3,40.72a1.55,1.55,0,1,0-1,2A1.55,1.55,0,0,0,124.3,40.72Z"/><path class="cls-3" d="M121.52,52a.67.67,0,0,0-.87-.42.69.69,0,0,0-.42.87.7.7,0,0,0,.87.42A.68.68,0,0,0,121.52,52Z"/><path class="cls-3" d="M117.9,33.44a1.62,1.62,0,1,0-3.06,1.06,1.62,1.62,0,0,0,3.06-1.06Z"/><path class="cls-3" d="M118.25,53.57a.52.52,0,0,0-1,.34.52.52,0,0,0,1-.34Z"/><path class="cls-3" d="M114,50.59a.75.75,0,1,0-.46.95A.75.75,0,0,0,114,50.59Z"/><path class="cls-3" d="M111.28,37.41a.69.69,0,0,0-.88-.42.68.68,0,1,0,.45,1.29A.69.69,0,0,0,111.28,37.41Z"/><path class="cls-3" d="M109.63,49.73a1.39,1.39,0,1,0-2.62.91,1.39,1.39,0,1,0,2.62-.91Z"/><path class="cls-3" d="M104,38.08a1.41,1.41,0,1,0-.87,1.8A1.43,1.43,0,0,0,104,38.08Z"/><path class="cls-3" d="M100.75,38.64a.49.49,0,0,0-.93.32.5.5,0,0,0,.63.31A.5.5,0,0,0,100.75,38.64Z"/><path class="cls-3" d="M105.56,52a1.08,1.08,0,1,0-.67,1.38A1.09,1.09,0,0,0,105.56,52Z"/><path class="cls-3" d="M97.63,45.46A.84.84,0,0,0,96.57,45a.83.83,0,0,0,.54,1.57A.83.83,0,0,0,97.63,45.46Z"/><path class="cls-3" d="M99.79,55a1,1,0,1,0-.6,1.24A1,1,0,0,0,99.79,55Z"/><path class="cls-3" d="M94.88,51.79a2.19,2.19,0,1,0-1.36,2.78A2.19,2.19,0,0,0,94.88,51.79Z"/><path class="cls-3" d="M90.9,54.22a.86.86,0,0,0-1.1-.53.86.86,0,1,0,1.1.53Z"/><path class="cls-3" d="M90.72,61.42a1.93,1.93,0,1,0-1.19,2.46A1.94,1.94,0,0,0,90.72,61.42Z"/><path class="cls-3" d="M90.52,62.38a1.82,1.82,0,1,0-1.13,2.32A1.82,1.82,0,0,0,90.52,62.38Z"/><path class="cls-3" d="M73.26,49a.3.3,0,0,0-.37-.18.29.29,0,0,0,.19.55A.3.3,0,0,0,73.26,49Z"/><path class="cls-3" d="M75.82,56.22a1.2,1.2,0,0,0-1.52-.73,1.19,1.19,0,1,0,1.52.73Z"/><path class="cls-3" d="M69.1,57a1,1,0,0,0-1.23-.6,1,1,0,1,0,1.23.6Z"/><path class="cls-3" d="M74.85,67a.81.81,0,1,0-.5,1A.81.81,0,0,0,74.85,67Z"/><path class="cls-3" d="M72.2,68.2A2,2,0,1,0,71,70.8,2,2,0,0,0,72.2,68.2Z"/><path class="cls-3" d="M61.13,62.66a.81.81,0,1,0-.5,1A.8.8,0,0,0,61.13,62.66Z"/><path class="cls-3" d="M62.84,65.35a.38.38,0,0,0-.47-.23.36.36,0,0,0-.22.46.36.36,0,0,0,.69-.23Z"/><path class="cls-3" d="M73.41,76.64a1.54,1.54,0,1,0-1,2A1.54,1.54,0,0,0,73.41,76.64Z"/><path class="cls-3" d="M66.11,75.76a1.48,1.48,0,0,0-2.79,1,1.48,1.48,0,1,0,2.79-1Z"/><path class="cls-3" d="M68.16,84.8A1.65,1.65,0,1,0,65,85.89a1.65,1.65,0,0,0,3.12-1.09Z"/><path class="cls-3" d="M60.12,80.69a1.42,1.42,0,1,0-2.68.93,1.42,1.42,0,1,0,2.68-.93Z"/><path class="cls-3" d="M56.69,83.45a1.73,1.73,0,1,0-1.07,2.2A1.73,1.73,0,0,0,56.69,83.45Z"/><path class="cls-3" d="M48.34,84.23a.83.83,0,1,0-.51,1.06A.83.83,0,0,0,48.34,84.23Z"/><path class="cls-3" d="M49.47,84.24a2,2,0,1,0-1.25,2.58A2,2,0,0,0,49.47,84.24Z"/><path class="cls-3" d="M46,87.51a2,2,0,1,0-3.81,1.32A2,2,0,1,0,46,87.51Z"/><path class="cls-3" d="M43.34,92.3a1.38,1.38,0,1,0-.85,1.75A1.38,1.38,0,0,0,43.34,92.3Z"/><path class="cls-3" d="M38.5,92.52a.21.21,0,0,0-.27-.13.21.21,0,0,0-.14.27.22.22,0,0,0,.28.14A.22.22,0,0,0,38.5,92.52Z"/><path class="cls-3" d="M47.73,99.77a.25.25,0,1,0-.47.17.26.26,0,0,0,.31.15A.26.26,0,0,0,47.73,99.77Z"/><path class="cls-3" d="M37.6,103.32a.2.2,0,0,0-.25-.12.19.19,0,0,0-.12.24.21.21,0,0,0,.25.12A.19.19,0,0,0,37.6,103.32Z"/><path class="cls-3" d="M45.77,106.59a1.46,1.46,0,0,0-1.86-.91,1.47,1.47,0,0,0,1,2.77A1.46,1.46,0,0,0,45.77,106.59Z"/><path class="cls-3" d="M41.4,109.33a1.1,1.1,0,1,0-.68,1.4A1.1,1.1,0,0,0,41.4,109.33Z"/><path class="cls-3" d="M49.67,116.4a.9.9,0,1,0-.55,1.14A.88.88,0,0,0,49.67,116.4Z"/><path class="cls-3" d="M44.83,116.77A1.76,1.76,0,1,0,43.75,119,1.76,1.76,0,0,0,44.83,116.77Z"/><path class="cls-3" d="M56.4,121.64a1.14,1.14,0,1,0-2.15.75,1.14,1.14,0,0,0,2.15-.75Z"/><path class="cls-3" d="M48.05,125.28a.51.51,0,1,0-.32.66A.53.53,0,0,0,48.05,125.28Z"/><path class="cls-3" d="M41,126.21a1,1,0,1,0-.63,1.3A1,1,0,0,0,41,126.21Z"/><path class="cls-3" d="M52.32,129.28a1,1,0,0,0-1.84.64,1,1,0,0,0,1.24.6A1,1,0,0,0,52.32,129.28Z"/><path class="cls-3" d="M53.47,131.53a.62.62,0,0,0-.8-.39.61.61,0,0,0-.39.8.62.62,0,0,0,.8.39A.63.63,0,0,0,53.47,131.53Z"/><path class="cls-3" d="M44.29,135.65a1.67,1.67,0,1,0-1,2.12A1.68,1.68,0,0,0,44.29,135.65Z"/><path class="cls-3" d="M41.57,137.29a1,1,0,1,0-.64,1.33A1,1,0,0,0,41.57,137.29Z"/><path class="cls-3" d="M45.84,140.32a.87.87,0,0,0-1.65.57.87.87,0,0,0,1.65-.57Z"/><path class="cls-3" d="M51,142a.7.7,0,0,0-1.32.45A.7.7,0,0,0,51,142Z"/><path class="cls-3" d="M56,141.81a1,1,0,1,0-.61,1.26A1,1,0,0,0,56,141.81Z"/><path class="cls-3" d="M39.38,149.5a.5.5,0,1,0-.31.64A.51.51,0,0,0,39.38,149.5Z"/><path class="cls-3" d="M43.33,154a.65.65,0,0,0-.83-.41.66.66,0,1,0,.43,1.24A.65.65,0,0,0,43.33,154Z"/><path class="cls-3" d="M61.92,150.56a1.82,1.82,0,1,0-1.12,2.31A1.81,1.81,0,0,0,61.92,150.56Z"/><path class="cls-3" d="M42.83,158.54a.32.32,0,1,0-.2.41A.32.32,0,0,0,42.83,158.54Z"/><path class="cls-3" d="M60.2,156.84a2.17,2.17,0,1,0-1.34,2.76A2.16,2.16,0,0,0,60.2,156.84Z"/><path class="cls-3" d="M56.62,163a1.31,1.31,0,1,0-.8,1.66A1.3,1.3,0,0,0,56.62,163Z"/><path class="cls-3" d="M63,165.85a2,2,0,1,0-1.24,2.56A2,2,0,0,0,63,165.85Z"/><path class="cls-3" d="M58.84,171a1.35,1.35,0,1,0-.83,1.72A1.35,1.35,0,0,0,58.84,171Z"/><path class="cls-3" d="M62.13,176a1.15,1.15,0,1,0-.71,1.48A1.16,1.16,0,0,0,62.13,176Z"/><path class="cls-3" d="M71.1,172.65a1.5,1.5,0,1,0-.92,1.91A1.49,1.49,0,0,0,71.1,172.65Z"/><path class="cls-3" d="M67,180.76a1.55,1.55,0,1,0-1,2A1.56,1.56,0,0,0,67,180.76Z"/><path class="cls-3" d="M71.69,177.89a.6.6,0,0,0-.77-.38.61.61,0,0,0-.37.77.6.6,0,0,0,1.14-.39Z"/><path class="cls-3" d="M71.76,182.48a.29.29,0,0,0-.37-.18.28.28,0,0,0-.18.37.29.29,0,0,0,.37.19A.3.3,0,0,0,71.76,182.48Z"/><path class="cls-3" d="M69.56,190.38a.52.52,0,1,0-1,.34.52.52,0,0,0,.66.33A.52.52,0,0,0,69.56,190.38Z"/><path class="cls-3" d="M70.66,190.79a.63.63,0,1,0-.39.8A.63.63,0,0,0,70.66,190.79Z"/><path class="cls-3" d="M73.81,190.43a1.13,1.13,0,1,0-.69,1.43A1.11,1.11,0,0,0,73.81,190.43Z"/><path class="cls-3" d="M70.92,199.34a1.14,1.14,0,0,0-2.16.75,1.13,1.13,0,0,0,1.45.7A1.14,1.14,0,0,0,70.92,199.34Z"/><path class="cls-3" d="M83.61,192.52a1,1,0,1,0-.61,1.26A1,1,0,0,0,83.61,192.52Z"/><path class="cls-3" d="M90.57,187.06a.52.52,0,1,0-.32.67A.52.52,0,0,0,90.57,187.06Z"/><path class="cls-3" d="M86.16,207.42a1.09,1.09,0,0,0-1.4-.68,1.1,1.1,0,1,0,1.4.68Z"/><path class="cls-3" d="M91.39,207.52A1.91,1.91,0,1,0,90.21,210,1.92,1.92,0,0,0,91.39,207.52Z"/><path class="cls-3" d="M93,205.32a.4.4,0,0,0-.51-.25.39.39,0,0,0-.24.51.4.4,0,0,0,.75-.26Z"/><path class="cls-3" d="M98.27,199.29a1.47,1.47,0,1,0-.91,1.87A1.47,1.47,0,0,0,98.27,199.29Z"/><path class="cls-3" d="M98.58,208.55a.72.72,0,1,0-.44.91A.72.72,0,0,0,98.58,208.55Z"/><path class="cls-3" d="M104.27,202.58a.81.81,0,0,0-1-.49.8.8,0,1,0,1,.49Z"/><path class="cls-3" d="M109.44,195.78a.58.58,0,0,0-.74-.35.56.56,0,0,0-.35.73.58.58,0,1,0,1.09-.38Z"/><path class="cls-3" d="M109.59,212.45a.54.54,0,0,0-.69-.33.53.53,0,0,0-.33.68.54.54,0,1,0,1-.35Z"/><path class="cls-3" d="M115.19,209.85a1.86,1.86,0,1,0-1.15,2.37A1.86,1.86,0,0,0,115.19,209.85Z"/><path class="cls-3" d="M116.87,217.48a1.22,1.22,0,0,0-2.31.8,1.23,1.23,0,0,0,1.56.76A1.21,1.21,0,0,0,116.87,217.48Z"/><path class="cls-3" d="M121.33,207.06a1.78,1.78,0,1,0-1.1,2.27A1.79,1.79,0,0,0,121.33,207.06Z"/><path class="cls-3" d="M125,217.46a1.73,1.73,0,1,0-1.06,2.2A1.73,1.73,0,0,0,125,217.46Z"/><path class="cls-3" d="M124.71,214.32a.51.51,0,0,0-.65-.32.52.52,0,0,0-.31.65.51.51,0,0,0,.65.32A.5.5,0,0,0,124.71,214.32Z"/><path class="cls-3" d="M128.21,212a.86.86,0,1,0-.53,1.08A.86.86,0,0,0,128.21,212Z"/><path class="cls-3" d="M127.69,203.21a.44.44,0,1,0-.84.28.44.44,0,0,0,.84-.28Z"/><path class="cls-3" d="M132.91,197.88a2,2,0,1,0-1.21,2.5A2,2,0,0,0,132.91,197.88Z"/><path class="cls-3" d="M135.74,202a1.77,1.77,0,1,0-1.09,2.25A1.77,1.77,0,0,0,135.74,202Z"/><path class="cls-3" d="M137.87,211.7a.33.33,0,1,0-.62.22.33.33,0,0,0,.42.2A.33.33,0,0,0,137.87,211.7Z"/><path class="cls-3" d="M141.17,209a2,2,0,1,0-1.22,2.52A2,2,0,0,0,141.17,209Z"/><path class="cls-3" d="M142.7,197.63a1.91,1.91,0,1,0-1.18,2.43A1.91,1.91,0,0,0,142.7,197.63Z"/><path class="cls-3" d="M153.58,207a1.63,1.63,0,1,0-1,2.07A1.63,1.63,0,0,0,153.58,207Z"/><path class="cls-3" d="M149.5,196.77a.64.64,0,0,0-.81-.39.63.63,0,0,0-.39.81.62.62,0,0,0,.8.39A.65.65,0,0,0,149.5,196.77Z"/><path class="cls-3" d="M149.94,191.29a1.7,1.7,0,1,0-1.05,2.16A1.7,1.7,0,0,0,149.94,191.29Z"/><path class="cls-3" d="M158.77,199.28a1.85,1.85,0,1,0-1.14,2.35A1.86,1.86,0,0,0,158.77,199.28Z"/><path class="cls-3" d="M159.75,191.44a1.1,1.1,0,0,0-1.39-.68,1.09,1.09,0,1,0,1.39.68Z"/><path class="cls-3" d="M168.53,200.35a2.13,2.13,0,1,0-1.31,2.71A2.13,2.13,0,0,0,168.53,200.35Z"/><path class="cls-3" d="M169,194.32a.18.18,0,0,0-.22-.11.17.17,0,0,0-.1.22.16.16,0,0,0,.21.1A.17.17,0,0,0,169,194.32Z"/><path class="cls-3" d="M165.66,181.72a.61.61,0,1,0-1.15.4.61.61,0,0,0,1.15-.4Z"/><path class="cls-3" d="M177.66,188.54A1.13,1.13,0,1,0,177,190,1.13,1.13,0,0,0,177.66,188.54Z"/><path class="cls-3" d="M185.7,193a1.34,1.34,0,1,0-.83,1.71A1.34,1.34,0,0,0,185.7,193Z"/><path class="cls-3" d="M182.82,182a.53.53,0,0,0-.66-.32.51.51,0,0,0-.32.66.52.52,0,1,0,1-.34Z"/><path class="cls-3" d="M185,182.4a.37.37,0,0,0-.46-.23.38.38,0,0,0-.23.47.37.37,0,0,0,.47.22A.37.37,0,0,0,185,182.4Z"/><path class="cls-3" d="M193.16,185a1,1,0,1,0-.65,1.33A1,1,0,0,0,193.16,185Z"/><path class="cls-3" d="M188.23,173a1.16,1.16,0,1,0-.72,1.48A1.16,1.16,0,0,0,188.23,173Z"/><path class="cls-3" d="M194.82,175.85a1.62,1.62,0,0,0-3.06,1.06,1.62,1.62,0,1,0,3.06-1.06Z"/><path class="cls-3" d="M183.51,165.29a.27.27,0,0,0-.35-.16.26.26,0,0,0-.16.34.26.26,0,0,0,.34.17A.28.28,0,0,0,183.51,165.29Z"/><path class="cls-3" d="M202.37,175.33a1.24,1.24,0,1,0-.77,1.59A1.24,1.24,0,0,0,202.37,175.33Z"/><circle class="cls-4" cx="128.08" cy="128.08" r="128.08"/></g><g class="cls-5"><g id="forme_1"><path class="cls-3" d="M142.7,230.2a.8.8,0,0,1,.21,1.11.8.8,0,0,1-1.32-.9A.8.8,0,0,1,142.7,230.2Z"/><path class="cls-3" d="M145.82,213.37a.8.8,0,1,1-1.11.21A.8.8,0,0,1,145.82,213.37Z"/><path class="cls-3" d="M126.17,208.15a.8.8,0,1,1-1.1.21A.77.77,0,0,1,126.17,208.15Z"/><path class="cls-3" d="M135.63,199.94a.8.8,0,0,1-.9,1.33.8.8,0,0,1,.9-1.33Z"/><path class="cls-3" d="M155.18,213.7a.8.8,0,1,1-1.11.21A.8.8,0,0,1,155.18,213.7Z"/><path class="cls-3" d="M120.37,214.61a1,1,0,1,1-1.11,1.62,1,1,0,1,1,1.11-1.62Z"/><path class="cls-3" d="M130.41,228.78A1,1,0,1,1,129,229,1,1,0,0,1,130.41,228.78Z"/><path class="cls-3" d="M135.86,212.79a1,1,0,1,1-1.37.26A1,1,0,0,1,135.86,212.79Z"/><path class="cls-3" d="M151.72,204.49a1,1,0,1,1-1.37.26A1,1,0,0,1,151.72,204.49Z"/><path class="cls-3" d="M148.69,223.06a1,1,0,1,1-1.37.26A1,1,0,0,1,148.69,223.06Z"/><path class="cls-3" d="M133.55,245.32a1,1,0,1,1-1.37.26A1,1,0,0,1,133.55,245.32Z"/><path class="cls-3" d="M149.34,239.66a1,1,0,0,1,.26,1.36,1,1,0,1,1-.26-1.36Z"/><path class="cls-3" d="M164.35,229a1,1,0,0,1,.26,1.37,1,1,0,0,1-1.36.26,1,1,0,0,1,1.1-1.63Z"/><path class="cls-3" d="M165,212.54a1,1,0,1,1-1.36.26A1,1,0,0,1,165,212.54Z"/><path class="cls-3" d="M124.26,183.22a.79.79,0,0,1-.22,1.11.81.81,0,0,1-1.11-.23.79.79,0,0,1,.23-1.1A.78.78,0,0,1,124.26,183.22Z"/><path class="cls-3" d="M133.47,168.78a.8.8,0,0,1-.23,1.11.78.78,0,0,1-1.1-.22.79.79,0,0,1,.22-1.11A.8.8,0,0,1,133.47,168.78Z"/><path class="cls-3" d="M142,172.6a.8.8,0,0,1-.22,1.11.81.81,0,0,1-1.11-.23.79.79,0,0,1,.23-1.1A.78.78,0,0,1,142,172.6Z"/><path class="cls-3" d="M156.28,191.29a.8.8,0,0,1-1.33.89.8.8,0,1,1,1.33-.89Z"/><path class="cls-3" d="M113.4,177.3a1,1,0,0,1-.27,1.36A1,1,0,1,1,112,177,1,1,0,0,1,113.4,177.3Z"/><path class="cls-3" d="M124.45,164.51a1,1,0,1,1-1.37-.27A1,1,0,0,1,124.45,164.51Z"/><path class="cls-3" d="M142.26,162.75a1,1,0,0,1-.27,1.37,1,1,0,1,1,.27-1.37Z"/><path class="cls-3" d="M157,158.76a1,1,0,1,1-1.37-.27A1,1,0,0,1,157,158.76Z"/><path class="cls-3" d="M132.49,178.84a1,1,0,0,1-.27,1.37,1,1,0,1,1,.27-1.37Z"/><path class="cls-3" d="M110.12,193.8a1,1,0,0,1-.28,1.37,1,1,0,0,1-1.09-1.64A1,1,0,0,1,110.12,193.8Z"/><path class="cls-3" d="M126.88,194.47a1,1,0,1,1-1.64,1.09,1,1,0,0,1,.27-1.36A1,1,0,0,1,126.88,194.47Z"/><path class="cls-3" d="M144.79,190.22a1,1,0,1,1-1.36-.27A1,1,0,0,1,144.79,190.22Z"/><path class="cls-3" d="M151.58,175.21a1,1,0,0,1-.27,1.36,1,1,0,0,1-1.37-.27,1,1,0,0,1,1.64-1.09Z"/><path class="cls-3" d="M165.07,179.77a1,1,0,1,1-1.36-.27A1,1,0,0,1,165.07,179.77Z"/><path class="cls-3" d="M160.07,199.61a1,1,0,1,1-1.36-.26A1,1,0,0,1,160.07,199.61Z"/><path class="cls-3" d="M168,164.58a.8.8,0,1,1-1.1-.22A.8.8,0,0,1,168,164.58Z"/><path class="cls-3" d="M177.16,150.15a.81.81,0,0,1-.22,1.11.8.8,0,0,1-1.11-.23.78.78,0,0,1,.22-1.1A.79.79,0,0,1,177.16,150.15Z"/><path class="cls-3" d="M160,137a.8.8,0,1,1-1.33.89A.8.8,0,0,1,160,137Z"/><path class="cls-3" d="M172.74,133.88a.8.8,0,1,1-1.33.89.8.8,0,0,1,1.33-.89Z"/><path class="cls-3" d="M185.71,154a.79.79,0,0,1-.22,1.11.8.8,0,1,1-.89-1.33A.8.8,0,0,1,185.71,154Z"/><path class="cls-3" d="M200,172.66a.79.79,0,0,1-.22,1.11.81.81,0,0,1-1.11-.23.79.79,0,0,1,.23-1.1A.78.78,0,0,1,200,172.66Z"/><path class="cls-3" d="M166.34,125.14a1,1,0,0,1-.27,1.36,1,1,0,0,1-1.37-.27,1,1,0,0,1,.27-1.36A1,1,0,0,1,166.34,125.14Z"/><path class="cls-3" d="M151.6,140.26a1,1,0,1,1-1.36-.27A1,1,0,0,1,151.6,140.26Z"/><path class="cls-3" d="M142.77,148.6a1,1,0,0,1-1.63,1.09,1,1,0,0,1,.27-1.37A1,1,0,0,1,142.77,148.6Z"/><path class="cls-3" d="M157.09,158.66a1,1,0,1,1-1.36-.27A1,1,0,0,1,157.09,158.66Z"/><path class="cls-3" d="M168.14,145.87A1,1,0,1,1,166.5,147a1,1,0,0,1,1.64-1.09Z"/><path class="cls-3" d="M185.52,130.05a1,1,0,1,1-1.36-.27A1,1,0,0,1,185.52,130.05Z"/><path class="cls-3" d="M186,144.12a1,1,0,1,1-1.36-.27A1,1,0,0,1,186,144.12Z"/><path class="cls-3" d="M200.73,140.13a1,1,0,1,1-1.36-.28A1,1,0,0,1,200.73,140.13Z"/><path class="cls-3" d="M176.18,160.21a1,1,0,0,1-1.63,1.09,1,1,0,1,1,1.63-1.09Z"/><path class="cls-3" d="M170.57,175.84a1,1,0,1,1-1.63,1.09,1,1,0,1,1,1.63-1.09Z"/><path class="cls-3" d="M188.48,171.58a1,1,0,1,1-1.63,1.09,1,1,0,0,1,1.63-1.09Z"/><path class="cls-3" d="M195.27,156.57a1,1,0,1,1-1.37-.27A1,1,0,0,1,195.27,156.57Z"/><path class="cls-3" d="M208.77,161.13a1,1,0,1,1-1.37-.27A1,1,0,0,1,208.77,161.13Z"/><path class="cls-3" d="M203.76,181a1,1,0,1,1-1.63,1.09,1,1,0,1,1,1.63-1.09Z"/><path class="cls-3" d="M89.45,48.36a.8.8,0,0,1-.21-1.11.8.8,0,0,1,1.32.9A.8.8,0,0,1,89.45,48.36Z"/><path class="cls-3" d="M109.1,53.59a.8.8,0,1,1,1.11-.21A.8.8,0,0,1,109.1,53.59Z"/><path class="cls-3" d="M99.64,61.79a.8.8,0,1,1,1.11-.21A.8.8,0,0,1,99.64,61.79Z"/><path class="cls-3" d="M80.09,48a.8.8,0,0,1,.9-1.32.8.8,0,1,1-.9,1.32Z"/><path class="cls-3" d="M59.86,36a.8.8,0,0,1-.21-1.11.8.8,0,1,1,1.32.9A.8.8,0,0,1,59.86,36Z"/><path class="cls-3" d="M114.9,47.13a1,1,0,0,1-.25-1.37A1,1,0,0,1,116,45.5a1,1,0,1,1-1.11,1.63Z"/><path class="cls-3" d="M104.86,33a1,1,0,1,1,1.37-.26A1,1,0,0,1,104.86,33Z"/><path class="cls-3" d="M99.41,48.94a1,1,0,1,1,1.11-1.62,1,1,0,0,1,.26,1.36A1,1,0,0,1,99.41,48.94Z"/><path class="cls-3" d="M83.55,57.25A1,1,0,1,1,84.92,57,1,1,0,0,1,83.55,57.25Z"/><path class="cls-3" d="M86.58,38.67A1,1,0,1,1,88,38.41,1,1,0,0,1,86.58,38.67Z"/><path class="cls-3" d="M70.92,32.73a1,1,0,1,1,1.36-.26A1,1,0,0,1,70.92,32.73Z"/><path class="cls-3" d="M70.25,49.19a1,1,0,1,1,1.37-.26A1,1,0,0,1,70.25,49.19Z"/><path class="cls-3" d="M56,50a1,1,0,1,1,1.36-.26A1,1,0,0,1,56,50Z"/><path class="cls-3" d="M53.23,29.74a1,1,0,1,1,1.37-.26A1,1,0,0,1,53.23,29.74Z"/><path class="cls-3" d="M111,78.52a.8.8,0,1,1,1.33-.89.8.8,0,0,1-1.33.89Z"/><path class="cls-3" d="M101.81,93a.8.8,0,1,1,1.33-.89.81.81,0,0,1-.22,1.11A.79.79,0,0,1,101.81,93Z"/><path class="cls-3" d="M93.25,89.14a.8.8,0,1,1,1.11.22A.81.81,0,0,1,93.25,89.14Z"/><path class="cls-3" d="M79,70.44a.8.8,0,0,1,1.33-.89.8.8,0,1,1-1.33.89Z"/><path class="cls-3" d="M121.87,84.44a1,1,0,1,1,1.36.27A1,1,0,0,1,121.87,84.44Z"/><path class="cls-3" d="M110.83,97.22a1,1,0,0,1,1.63-1.09,1,1,0,0,1-.27,1.37A1,1,0,0,1,110.83,97.22Z"/><path class="cls-3" d="M93,99a1,1,0,0,1,.27-1.37A1,1,0,1,1,93,99Z"/><path class="cls-3" d="M78.23,103a1,1,0,1,1,1.37.27A1,1,0,0,1,78.23,103Z"/><path class="cls-3" d="M102.78,82.89a1,1,0,0,1,.27-1.36,1,1,0,1,1,1.09,1.63A1,1,0,0,1,102.78,82.89Z"/><path class="cls-3" d="M125.16,67.93a1,1,0,1,1,1.63-1.09,1,1,0,1,1-1.63,1.09Z"/><path class="cls-3" d="M108.39,67.26a1,1,0,1,1,1.37.27A1,1,0,0,1,108.39,67.26Z"/><path class="cls-3" d="M90.48,71.51a1,1,0,0,1,.27-1.36,1,1,0,1,1,1.09,1.64A1,1,0,0,1,90.48,71.51Z"/><path class="cls-3" d="M83.69,86.52a1,1,0,0,1,1.64-1.09,1,1,0,1,1-1.64,1.09Z"/><path class="cls-3" d="M70.2,82a1,1,0,1,1,1.36.26A1,1,0,0,1,70.2,82Z"/><path class="cls-3" d="M75.2,62.11a1,1,0,0,1,.27-1.36,1,1,0,1,1-.27,1.36Z"/><path class="cls-3" d="M67.32,97.15A.79.79,0,0,1,67.54,96a.8.8,0,1,1,.88,1.33A.78.78,0,0,1,67.32,97.15Z"/><path class="cls-3" d="M58.12,111.58a.79.79,0,1,1,1.32-.88.79.79,0,1,1-1.32.88Z"/><path class="cls-3" d="M75.27,124.69a.8.8,0,0,1,1.33-.89.81.81,0,0,1-.22,1.11A.8.8,0,0,1,75.27,124.69Z"/><path class="cls-3" d="M62.53,127.85a.8.8,0,0,1,1.33-.89.8.8,0,1,1-1.33.89Z"/><path class="cls-3" d="M49.56,107.77a.79.79,0,0,1,.22-1.11.8.8,0,0,1,.89,1.33A.79.79,0,0,1,49.56,107.77Z"/><path class="cls-3" d="M35.3,89.07a.78.78,0,0,1,.22-1.1.79.79,0,0,1,1.11.22.81.81,0,0,1-.22,1.11A.8.8,0,0,1,35.3,89.07Z"/><path class="cls-3" d="M68.93,136.59a1,1,0,1,1,1.37.27A1,1,0,0,1,68.93,136.59Z"/><path class="cls-3" d="M83.67,121.47a1,1,0,1,1,1.36.27A1,1,0,0,1,83.67,121.47Z"/><path class="cls-3" d="M92.5,113.13a1,1,0,1,1,1.36.28A1,1,0,0,1,92.5,113.13Z"/><path class="cls-3" d="M78.18,103.07a1,1,0,0,1,.27-1.36,1,1,0,0,1,1.37.27,1,1,0,0,1-1.64,1.09Z"/><path class="cls-3" d="M67.14,115.86a1,1,0,1,1,1.36.27A1,1,0,0,1,67.14,115.86Z"/><path class="cls-3" d="M49.75,131.68a1,1,0,0,1,.27-1.37,1,1,0,1,1-.27,1.37Z"/><path class="cls-3" d="M49.32,117.61a1,1,0,0,1,.27-1.36,1,1,0,1,1,1.09,1.64A1,1,0,0,1,49.32,117.61Z"/><path class="cls-3" d="M34.54,121.61a1,1,0,1,1,1.37.27A1,1,0,0,1,34.54,121.61Z"/><path class="cls-3" d="M59.09,101.52a1,1,0,0,1,1.63-1.09,1,1,0,0,1-.27,1.37A1,1,0,0,1,59.09,101.52Z"/><path class="cls-3" d="M64.7,85.9a1,1,0,1,1,1.37.27A1,1,0,0,1,64.7,85.9Z"/><path class="cls-3" d="M46.79,90.15a1,1,0,1,1,1.36.27A1,1,0,0,1,46.79,90.15Z"/><path class="cls-3" d="M40,105.16a1,1,0,0,1,.27-1.36,1,1,0,0,1,1.37.27,1,1,0,0,1-.27,1.36A1,1,0,0,1,40,105.16Z"/><path class="cls-3" d="M26.51,100.6a1,1,0,1,1,1.36.27A1,1,0,0,1,26.51,100.6Z"/><path class="cls-3" d="M31.51,80.75a1,1,0,0,1,.27-1.36,1,1,0,0,1,1.37.27A1,1,0,0,1,32.87,81,1,1,0,0,1,31.51,80.75Z"/><path class="cls-3" d="M208.66,100.37a.8.8,0,0,1,1.11-.21.81.81,0,0,1,.21,1.11.8.8,0,0,1-1.32-.9Z"/><path class="cls-3" d="M203.43,120a.8.8,0,1,1,.21,1.11A.8.8,0,0,1,203.43,120Z"/><path class="cls-3" d="M195.23,110.56a.8.8,0,1,1,1.32.9.8.8,0,0,1-1.32-.9Z"/><path class="cls-3" d="M209,91a.8.8,0,0,1,1.11-.21A.8.8,0,1,1,209,91Z"/><path class="cls-3" d="M209.89,125.83a1,1,0,1,1,.26,1.36A1,1,0,0,1,209.89,125.83Z"/><path class="cls-3" d="M224.07,115.79a1,1,0,0,1,1.62,1.1,1,1,0,1,1-1.62-1.1Z"/><path class="cls-3" d="M208.07,110.34a1,1,0,1,1,.26,1.36A1,1,0,0,1,208.07,110.34Z"/><path class="cls-3" d="M199.77,94.48a1,1,0,1,1,.26,1.36A1,1,0,0,1,199.77,94.48Z"/><path class="cls-3" d="M218.35,97.51a1,1,0,0,1,1.62,1.1,1,1,0,1,1-1.62-1.1Z"/><path class="cls-3" d="M224.29,81.84a1,1,0,1,1,.26,1.37A1,1,0,0,1,224.29,81.84Z"/><path class="cls-3" d="M207.83,81.17a1,1,0,1,1,.25,1.37A1,1,0,0,1,207.83,81.17Z"/><path class="cls-3" d="M207,67a1,1,0,0,1,1.38-.26,1,1,0,0,1,.25,1.37,1,1,0,0,1-1.36.26A1,1,0,0,1,207,67Z"/><path class="cls-3" d="M178.5,121.93a.8.8,0,0,1,.89,1.33.8.8,0,1,1-.89-1.33Z"/><path class="cls-3" d="M164.06,112.73a.8.8,0,0,1,1.11.22.8.8,0,1,1-1.33.89A.81.81,0,0,1,164.06,112.73Z"/><path class="cls-3" d="M167.88,104.17a.81.81,0,0,1,1.11.22.8.8,0,0,1-.23,1.11.78.78,0,0,1-1.1-.22A.8.8,0,0,1,167.88,104.17Z"/><path class="cls-3" d="M186.58,89.92a.79.79,0,1,1-.23,1.1A.79.79,0,0,1,186.58,89.92Z"/><path class="cls-3" d="M172.58,132.8a1,1,0,1,1-.27,1.36A1,1,0,0,1,172.58,132.8Z"/><path class="cls-3" d="M159.79,121.75a1,1,0,0,1,1.36.27,1,1,0,0,1-.27,1.37,1,1,0,0,1-1.09-1.64Z"/><path class="cls-3" d="M158,103.93a1,1,0,0,1,1.37.28,1,1,0,0,1-.27,1.36,1,1,0,0,1-1.1-1.64Z"/><path class="cls-3" d="M154,89.16a1,1,0,0,1,1.37.27,1,1,0,0,1-.27,1.36,1,1,0,0,1-1.37-.27A1,1,0,0,1,154,89.16Z"/><path class="cls-3" d="M174.12,113.7a1,1,0,1,1-.27,1.37A1,1,0,0,1,174.12,113.7Z"/><path class="cls-3" d="M189.09,136.08a1,1,0,1,1-.28,1.37A1,1,0,0,1,189.09,136.08Z"/><path class="cls-3" d="M189.76,119.32a1,1,0,1,1-.28,1.36A1,1,0,0,1,189.76,119.32Z"/><path class="cls-3" d="M185.5,101.41a1,1,0,1,1-.27,1.36A1,1,0,0,1,185.5,101.41Z"/><path class="cls-3" d="M170.49,94.62a1,1,0,1,1-.27,1.36A1,1,0,0,1,170.49,94.62Z"/><path class="cls-3" d="M175.05,81.12a1,1,0,1,1-.27,1.37A1,1,0,0,1,175.05,81.12Z"/><path class="cls-3" d="M194.9,86.13a1,1,0,1,1-.27,1.36A1,1,0,0,1,194.9,86.13Z"/><path class="cls-3" d="M159.86,78.24a.8.8,0,1,1-.22,1.11A.81.81,0,0,1,159.86,78.24Z"/><path class="cls-3" d="M145.43,69a.79.79,0,0,1,1.11.22.8.8,0,1,1-1.33.89A.79.79,0,0,1,145.43,69Z"/><path class="cls-3" d="M132.33,86.19a.8.8,0,0,1,.88,1.33.78.78,0,0,1-1.1-.22A.79.79,0,0,1,132.33,86.19Z"/><path class="cls-3" d="M129.16,73.46a.79.79,0,0,1,1.11.22.8.8,0,0,1-.22,1.11.8.8,0,0,1-.89-1.33Z"/><path class="cls-3" d="M149.24,60.48a.81.81,0,0,1,1.11.22.8.8,0,1,1-1.33.89A.8.8,0,0,1,149.24,60.48Z"/><path class="cls-3" d="M167.94,46.22a.8.8,0,1,1,.89,1.33.8.8,0,0,1-.89-1.33Z"/><path class="cls-3" d="M120.42,79.86a1,1,0,0,1,1.36.27,1,1,0,0,1-.27,1.36,1,1,0,0,1-1.09-1.63Z"/><path class="cls-3" d="M135.54,94.59a1,1,0,0,1,1.37.28,1,1,0,0,1-.27,1.36,1,1,0,1,1-1.1-1.64Z"/><path class="cls-3" d="M143.88,103.42a1,1,0,1,1-.27,1.37A1,1,0,0,1,143.88,103.42Z"/><path class="cls-3" d="M153.94,89.1a1,1,0,0,1,1.37.28,1,1,0,0,1-1.64,1.09A1,1,0,0,1,153.94,89.1Z"/><path class="cls-3" d="M141.16,78.06a1,1,0,1,1-.28,1.36A1,1,0,0,1,141.16,78.06Z"/><path class="cls-3" d="M125.33,60.67a1,1,0,1,1-.27,1.37A1,1,0,0,1,125.33,60.67Z"/><path class="cls-3" d="M139.4,60.24a1,1,0,1,1-.27,1.37A1,1,0,0,1,139.4,60.24Z"/><path class="cls-3" d="M135.41,45.47a1,1,0,0,1,1.09,1.63,1,1,0,1,1-1.09-1.63Z"/><path class="cls-3" d="M155.49,70a1,1,0,1,1-.27,1.37A1,1,0,0,1,155.49,70Z"/><path class="cls-3" d="M171.12,75.63a1,1,0,1,1-.27,1.36A1,1,0,0,1,171.12,75.63Z"/><path class="cls-3" d="M166.87,57.71A1,1,0,0,1,168,59.35a1,1,0,1,1-1.09-1.64Z"/><path class="cls-3" d="M151.85,50.93a1,1,0,1,1-.27,1.36A1,1,0,0,1,151.85,50.93Z"/><path class="cls-3" d="M156.41,37.43a1,1,0,1,1,1.09,1.64,1,1,0,0,1-1.09-1.64Z"/><path class="cls-3" d="M176.26,42.44a1,1,0,1,1,1.1,1.63A1,1,0,0,1,176,43.8,1,1,0,0,1,176.26,42.44Z"/><path class="cls-3" d="M25.17,164.33a.79.79,0,0,1-1.11.21.8.8,0,1,1,.9-1.32A.79.79,0,0,1,25.17,164.33Z"/><path class="cls-3" d="M42,167.45a.8.8,0,1,1-1.32-.9.8.8,0,0,1,1.11-.21A.79.79,0,0,1,42,167.45Z"/><path class="cls-3" d="M47.23,147.8a.8.8,0,0,1-1.32-.9.8.8,0,1,1,1.32.9Z"/><path class="cls-3" d="M55.43,157.26a.8.8,0,1,1-.21-1.11A.8.8,0,0,1,55.43,157.26Z"/><path class="cls-3" d="M41.67,176.81a.8.8,0,0,1-1.32-.9.81.81,0,0,1,1.11-.21A.79.79,0,0,1,41.67,176.81Z"/><path class="cls-3" d="M40.77,142a1,1,0,1,1-.26-1.37A1,1,0,0,1,40.77,142Z"/><path class="cls-3" d="M26.59,152A1,1,0,1,1,25,150.93,1,1,0,1,1,26.59,152Z"/><path class="cls-3" d="M42.59,157.49a1,1,0,1,1-.26-1.37A1,1,0,0,1,42.59,157.49Z"/><path class="cls-3" d="M50.89,173.35a1,1,0,1,1-.26-1.37A1,1,0,0,1,50.89,173.35Z"/><path class="cls-3" d="M32.31,170.32a1,1,0,0,1-1.37.26A1,1,0,0,1,32.05,169,1,1,0,0,1,32.31,170.32Z"/><path class="cls-3" d="M42.83,186.65a1,1,0,1,1-.26-1.36A1,1,0,0,1,42.83,186.65Z"/><path class="cls-3" d="M72.16,145.89a.8.8,0,1,1,.22-1.1A.8.8,0,0,1,72.16,145.89Z"/><path class="cls-3" d="M86.59,155.1a.8.8,0,0,1-.89-1.33.8.8,0,0,1,.89,1.33Z"/><path class="cls-3" d="M82.78,163.65a.8.8,0,0,1-.89-1.33.8.8,0,1,1,.89,1.33Z"/><path class="cls-3" d="M64.08,177.91a.79.79,0,0,1-1.11-.22.81.81,0,0,1,.22-1.11.8.8,0,0,1,1.11.23A.78.78,0,0,1,64.08,177.91Z"/><path class="cls-3" d="M78.08,135a1,1,0,0,1-1.37-.27,1,1,0,1,1,1.37.27Z"/><path class="cls-3" d="M90.87,146.08a1,1,0,0,1-1.37-.28,1,1,0,0,1,1.64-1.09A1,1,0,0,1,90.87,146.08Z"/><path class="cls-3" d="M92.62,163.89a1,1,0,1,1,.27-1.36A1,1,0,0,1,92.62,163.89Z"/><path class="cls-3" d="M96.61,178.67a1,1,0,0,1-1.36-.27,1,1,0,0,1,.27-1.37,1,1,0,0,1,1.36.27A1,1,0,0,1,96.61,178.67Z"/><path class="cls-3" d="M76.53,154.12a1,1,0,1,1,.27-1.36A1,1,0,0,1,76.53,154.12Z"/><path class="cls-3" d="M61.57,131.75a1,1,0,1,1,.27-1.37A1,1,0,0,1,61.57,131.75Z"/><path class="cls-3" d="M60.9,148.51a1,1,0,0,1-1.36-.27,1,1,0,0,1,.27-1.37,1,1,0,0,1,1.09,1.64Z"/><path class="cls-3" d="M65.16,166.42a1,1,0,1,1,.27-1.36A1,1,0,0,1,65.16,166.42Z"/><path class="cls-3" d="M80.17,173.21a1,1,0,1,1,.27-1.37A1,1,0,0,1,80.17,173.21Z"/><path class="cls-3" d="M75.61,186.71a1,1,0,0,1-1.37-.28,1,1,0,0,1,.27-1.36,1,1,0,1,1,1.1,1.64Z"/><path class="cls-3" d="M55.76,181.7a1,1,0,1,1,.27-1.36A1,1,0,0,1,55.76,181.7Z"/><path class="cls-3" d="M90.79,189.59a.8.8,0,0,1-.89-1.33.8.8,0,1,1,.89,1.33Z"/><path class="cls-3" d="M105.23,198.79a.81.81,0,0,1-1.11-.22.8.8,0,0,1,1.33-.89A.81.81,0,0,1,105.23,198.79Z"/><path class="cls-3" d="M118.33,181.63a.79.79,0,0,1-1.11-.22.8.8,0,0,1,1.33-.89A.79.79,0,0,1,118.33,181.63Z"/><path class="cls-3" d="M121.49,194.37a.8.8,0,0,1-.88-1.33.78.78,0,0,1,1.1.22A.79.79,0,0,1,121.49,194.37Z"/><path class="cls-3" d="M101.41,207.34a.8.8,0,0,1-1.11-.22.81.81,0,0,1,.23-1.11.81.81,0,0,1,1.11.22A.8.8,0,0,1,101.41,207.34Z"/><path class="cls-3" d="M82.72,221.6a.79.79,0,0,1-1.11-.22.78.78,0,0,1,.22-1.1.8.8,0,1,1,.89,1.32Z"/><path class="cls-3" d="M130.23,188a1,1,0,0,1-1.36-.27,1,1,0,1,1,1.36.27Z"/><path class="cls-3" d="M115.11,173.23a1,1,0,0,1-1.36-.27,1,1,0,0,1,.27-1.37,1,1,0,0,1,1.09,1.64Z"/><path class="cls-3" d="M106.78,164.4a1,1,0,0,1-1.37-.27,1,1,0,1,1,1.37.27Z"/><path class="cls-3" d="M96.71,178.72a1,1,0,1,1,.28-1.36A1,1,0,0,1,96.71,178.72Z"/><path class="cls-3" d="M109.5,189.77a1,1,0,0,1-1.36-.27,1,1,0,0,1,.27-1.37,1,1,0,0,1,1.36.27A1,1,0,0,1,109.5,189.77Z"/><path class="cls-3" d="M125.32,207.15a1,1,0,0,1-1.36-.27,1,1,0,1,1,1.36.27Z"/><path class="cls-3" d="M111.26,207.58a1,1,0,1,1,.27-1.36A1,1,0,0,1,111.26,207.58Z"/><path class="cls-3" d="M115.25,222.36a1,1,0,1,1-1.09-1.64,1,1,0,0,1,1.09,1.64Z"/><path class="cls-3" d="M95.17,197.81a1,1,0,1,1,.27-1.36A1,1,0,0,1,95.17,197.81Z"/><path class="cls-3" d="M79.54,192.2a1,1,0,1,1-1.09-1.64,1,1,0,0,1,1.36.27A1,1,0,0,1,79.54,192.2Z"/><path class="cls-3" d="M83.79,210.11a1,1,0,1,1,.27-1.36A1,1,0,0,1,83.79,210.11Z"/><path class="cls-3" d="M98.8,216.9a1,1,0,0,1-1.36-.27,1,1,0,1,1,1.36.27Z"/><path class="cls-3" d="M94.24,230.4a1,1,0,0,1-1.36-.28A1,1,0,0,1,94.51,229,1,1,0,0,1,94.24,230.4Z"/><path class="cls-3" d="M74.39,225.39a1,1,0,1,1,.28-1.36A1,1,0,0,1,74.39,225.39Z"/><circle class="cls-4" cx="128.08" cy="128.08" r="128.08"/></g></g></g></g></g></svg>