<svg xmlns="http://www.w3.org/2000/svg" xmlns:xlink="http://www.w3.org/1999/xlink" viewBox="0 0 256.15 256.15"><defs><style>.cls-1{fill:url(#radial-gradient);filter:url(#luminosity-noclip);}.cls-2{opacity:0.5;}.cls-3{fill:#ea5b0c;}.cls-4{fill:none;}.cls-5{mask:url(#mask);}#forme_1 {
    transform-origin: 50% 50%;
    animation: turn 100s linear infinite;
}
#forme_2 {
    transform-origin: 50% 50%;
    animation: turnReverse 50s linear infinite;
}
#forme_3{
    transform-origin: 50% 50%;
    animation: turn 50s linear infinite;
}
@keyframes turn {
    0% {
        transform: rotate(0deg);
    }
    
    100% {
        transform: rotate(360deg);
    }
}
@keyframes turnReverse {
    0% {
        transform: rotate(0deg);
    }
    100% {
        transform: rotate(-360deg);
    }
}</style><radialGradient id="radial-gradient" cx="6.15" cy="381.29" r="140.88" gradientTransform="translate(-120.79 -158.66) rotate(-40.72)" gradientUnits="userSpaceOnUse"><stop offset="0.32"/><stop offset="0.73" stop-color="#fff"/></radialGradient><filter id="luminosity-noclip" x="-9.98" y="-14.71" width="281.76" height="281.76" filterUnits="userSpaceOnUse" color-interpolation-filters="sRGB"><feFlood flood-color="#fff" result="bg"/><feBlend in="SourceGraphic" in2="bg"/></filter><mask id="mask" x="-9.98" y="-14.71" width="281.76" height="281.76" maskUnits="userSpaceOnUse"><path class="cls-1" d="M237.68,34.27A140.88,140.88,0,1,1,39,19.4,140.89,140.89,0,0,1,237.68,34.27Z"/></mask></defs><g id="Calque_2" data-name="Calque 2"><g id="Calque_1-2" data-name="Calque 1"><g id="fonce"><g id="forme_3" class="cls-2"><path class="cls-3" d="M209.44,97.3a1.92,1.92,0,1,0,1,2.52A1.92,1.92,0,0,0,209.44,97.3Z"/><path class="cls-3" d="M202.28,98.49a1.69,1.69,0,1,0,.9,2.22A1.69,1.69,0,0,0,202.28,98.49Z"/><path class="cls-3" d="M208.86,93.87a.54.54,0,0,0-.71.29.55.55,0,0,0,.29.72.55.55,0,0,0,.42-1Z"/><path class="cls-3" d="M195.62,94.39a1,1,0,0,0-1.31.53,1,1,0,0,0,.53,1.31,1,1,0,0,0,.78-1.84Z"/><path class="cls-3" d="M199.32,89.37a.49.49,0,1,0,.26.64A.49.49,0,0,0,199.32,89.37Z"/><path class="cls-3" d="M186.84,88.32a1.61,1.61,0,1,0,.86,2.11A1.62,1.62,0,0,0,186.84,88.32Z"/><path class="cls-3" d="M191.58,85.75a1.82,1.82,0,1,0,1,2.39A1.82,1.82,0,0,0,191.58,85.75Z"/><path class="cls-3" d="M187.1,86.45a.56.56,0,1,0,.3.73A.56.56,0,0,0,187.1,86.45Z"/><path class="cls-3" d="M189.3,78.16a2.1,2.1,0,1,0,1.12,2.74A2.09,2.09,0,0,0,189.3,78.16Z"/><path class="cls-3" d="M187.48,75.43a.79.79,0,1,0,.42,1A.8.8,0,0,0,187.48,75.43Z"/><path class="cls-3" d="M179.92,76.82a1.64,1.64,0,1,0,.87,2.16A1.64,1.64,0,0,0,179.92,76.82Z"/><path class="cls-3" d="M183.72,69.75a1.14,1.14,0,1,0,.61,1.5A1.15,1.15,0,0,0,183.72,69.75Z"/><path class="cls-3" d="M183.14,63.34a1.39,1.39,0,0,0-1.08,2.56,1.39,1.39,0,1,0,1.08-2.56Z"/><path class="cls-3" d="M172.82,69.7a1.84,1.84,0,1,0,1,2.41A1.83,1.83,0,0,0,172.82,69.7Z"/><path class="cls-3" d="M177.25,60.85a1.66,1.66,0,1,0,.89,2.18A1.67,1.67,0,0,0,177.25,60.85Z"/><path class="cls-3" d="M175.45,55.63a.48.48,0,0,0-.64.25.5.5,0,0,0,.25.65.49.49,0,0,0,.64-.27A.48.48,0,0,0,175.45,55.63Z"/><path class="cls-3" d="M167,61.84a1,1,0,1,0,.54,1.32A1,1,0,0,0,167,61.84Z"/><path class="cls-3" d="M160.74,64.23a.43.43,0,1,0,.22.56A.43.43,0,0,0,160.74,64.23Z"/><path class="cls-3" d="M161.58,48.66a1.09,1.09,0,1,0,.58,1.43A1.09,1.09,0,0,0,161.58,48.66Z"/><path class="cls-3" d="M152.8,59.14a1.75,1.75,0,1,0,.93,2.3A1.76,1.76,0,0,0,152.8,59.14Z"/><path class="cls-3" d="M155.84,48.87a.58.58,0,0,0-.77.31.59.59,0,1,0,.77-.31Z"/><path class="cls-3" d="M150.43,54.25a.23.23,0,0,0-.32.13.24.24,0,0,0,.12.32.26.26,0,0,0,.33-.13A.25.25,0,0,0,150.43,54.25Z"/><path class="cls-3" d="M151,49.55a1.19,1.19,0,0,0-1.55.63,1.18,1.18,0,1,0,1.55-.63Z"/><path class="cls-3" d="M146.93,54.31a.18.18,0,0,0-.24.1.19.19,0,0,0,.1.24.18.18,0,1,0,.14-.34Z"/><path class="cls-3" d="M142.67,60.72a1.27,1.27,0,1,0-1,2.33,1.27,1.27,0,0,0,1-2.33Z"/><path class="cls-3" d="M140.81,40.68a1.26,1.26,0,0,0-1.65.68,1.24,1.24,0,0,0,.67,1.65,1.26,1.26,0,0,0,1-2.33Z"/><path class="cls-3" d="M137.18,41.78a1.09,1.09,0,0,0-1.42.58,1.08,1.08,0,0,0,2,.84A1.09,1.09,0,0,0,137.18,41.78Z"/><path class="cls-3" d="M133.81,46.17a1,1,0,0,0-1.3.53,1,1,0,1,0,1.3-.53Z"/><path class="cls-3" d="M130.05,55.05a.85.85,0,0,0-1.11.45.84.84,0,1,0,1.11-.45Z"/><path class="cls-3" d="M127.85,58a1.46,1.46,0,1,0,.78,1.91A1.46,1.46,0,0,0,127.85,58Z"/><path class="cls-3" d="M128.6,38.49a1,1,0,0,0-1.26.52.94.94,0,0,0,.51,1.25,1,1,0,0,0,1.26-.5A1,1,0,0,0,128.6,38.49Z"/><path class="cls-3" d="M126,54.08a1.2,1.2,0,1,0,.64,1.57A1.2,1.2,0,0,0,126,54.08Z"/><path class="cls-3" d="M121.57,57.81a1.12,1.12,0,1,0-.88,2.07,1.12,1.12,0,0,0,.88-2.07Z"/><path class="cls-3" d="M118.48,40.37a1.57,1.57,0,0,0-2.07.84,1.58,1.58,0,0,0,2.91,1.23A1.56,1.56,0,0,0,118.48,40.37Z"/><path class="cls-3" d="M116.23,47.27A2,2,0,1,0,117.31,50,2,2,0,0,0,116.23,47.27Z"/><path class="cls-3" d="M114.81,44.76a1.34,1.34,0,1,0,.71,1.75A1.33,1.33,0,0,0,114.81,44.76Z"/><path class="cls-3" d="M110.15,44.79A1.61,1.61,0,1,0,111,46.9,1.6,1.6,0,0,0,110.15,44.79Z"/><path class="cls-3" d="M106.17,46.38a1.41,1.41,0,0,0-1.1,2.59,1.41,1.41,0,1,0,1.1-2.59Z"/><path class="cls-3" d="M105.83,60.8a.86.86,0,1,0,.46,1.12A.85.85,0,0,0,105.83,60.8Z"/><path class="cls-3" d="M99,47.65A1,1,0,1,0,99.57,49,1,1,0,0,0,99,47.65Z"/><path class="cls-3" d="M99.83,63.13a1.28,1.28,0,1,0,.68,1.68A1.28,1.28,0,0,0,99.83,63.13Z"/><path class="cls-3" d="M97.45,67.69a.15.15,0,0,0-.19.08.14.14,0,0,0,.08.19.15.15,0,0,0,.19-.07A.15.15,0,0,0,97.45,67.69Z"/><path class="cls-3" d="M86.71,56.09A.91.91,0,1,0,86,57.77a.91.91,0,0,0,.71-1.68Z"/><path class="cls-3" d="M83.38,58a1.8,1.8,0,1,0,1,2.37A1.82,1.82,0,0,0,83.38,58Z"/><path class="cls-3" d="M77.58,59.45a.22.22,0,0,0-.28.12.22.22,0,0,0,.11.28.23.23,0,0,0,.29-.12A.23.23,0,0,0,77.58,59.45Z"/><path class="cls-3" d="M77.9,58.06a1.81,1.81,0,1,0,1,2.37A1.81,1.81,0,0,0,77.9,58.06Z"/><path class="cls-3" d="M87.46,74.77a.72.72,0,1,0,.38,1A.72.72,0,0,0,87.46,74.77Z"/><path class="cls-3" d="M78.12,68.86a1.25,1.25,0,0,0-1,2.3,1.25,1.25,0,1,0,1-2.3Z"/><path class="cls-3" d="M71.73,68.45a1.35,1.35,0,1,0,.72,1.77A1.36,1.36,0,0,0,71.73,68.45Z"/><path class="cls-3" d="M69.39,72.9a1.44,1.44,0,1,0,.77,1.89A1.45,1.45,0,0,0,69.39,72.9Z"/><path class="cls-3" d="M75.41,81.81a.64.64,0,0,0-.83.34.63.63,0,0,0,.33.83.64.64,0,0,0,.84-.33A.65.65,0,0,0,75.41,81.81Z"/><path class="cls-3" d="M60.38,72.79a1.5,1.5,0,0,0-2,.79,1.51,1.51,0,1,0,2.77,1.18A1.5,1.5,0,0,0,60.38,72.79Z"/><path class="cls-3" d="M74.48,85.08a.48.48,0,0,0-.63.25.48.48,0,1,0,.63-.25Z"/><path class="cls-3" d="M69.78,86.15a.69.69,0,0,0-.54,1.28.69.69,0,0,0,.54-1.28Z"/><path class="cls-3" d="M59,79.82A.64.64,0,0,0,58.5,81,.64.64,0,0,0,59,79.82Z"/><path class="cls-3" d="M66.47,88.63a1.29,1.29,0,1,0,.68,1.68A1.28,1.28,0,0,0,66.47,88.63Z"/><path class="cls-3" d="M54.91,85.27a1.31,1.31,0,1,0,.7,1.73A1.32,1.32,0,0,0,54.91,85.27Z"/><path class="cls-3" d="M53.29,87.85a.46.46,0,1,0,.24.6A.45.45,0,0,0,53.29,87.85Z"/><path class="cls-3" d="M65.46,92.81A1,1,0,1,0,66,94.14,1,1,0,0,0,65.46,92.81Z"/><path class="cls-3" d="M56.05,94.25a.77.77,0,1,0,.41,1A.78.78,0,0,0,56.05,94.25Z"/><path class="cls-3" d="M64,98.71a.91.91,0,1,0,.48,1.19A.91.91,0,0,0,64,98.71Z"/><path class="cls-3" d="M58.7,100.08a2,2,0,1,0,1.08,2.67A2,2,0,0,0,58.7,100.08Z"/><path class="cls-3" d="M57.9,104.34a.8.8,0,1,0,.43,1A.81.81,0,0,0,57.9,104.34Z"/><path class="cls-3" d="M62.75,109a1.79,1.79,0,1,0,1,2.35A1.81,1.81,0,0,0,62.75,109Z"/><path class="cls-3" d="M63.29,109.68a1.69,1.69,0,1,0,.9,2.22A1.7,1.7,0,0,0,63.29,109.68Z"/><path class="cls-3" d="M43.33,113.27a.28.28,0,0,0-.36.14.28.28,0,0,0,.15.36.27.27,0,0,0,.21-.5Z"/><path class="cls-3" d="M49.89,116a1.1,1.1,0,1,0,.59,1.45A1.11,1.11,0,0,0,49.89,116Z"/><path class="cls-3" d="M46.21,121.07a.9.9,0,0,0-.7,1.66.9.9,0,1,0,.7-1.66Z"/><path class="cls-3" d="M56.71,123.35a.76.76,0,1,0-.59,1.39.75.75,0,0,0,1-.41A.74.74,0,0,0,56.71,123.35Z"/><path class="cls-3" d="M55.91,125.94a1.9,1.9,0,1,0,1,2.48A1.89,1.89,0,0,0,55.91,125.94Z"/><path class="cls-3" d="M45.19,130.12a.76.76,0,0,0-1,.4.74.74,0,0,0,.4,1,.75.75,0,0,0,1-.4A.76.76,0,0,0,45.19,130.12Z"/><path class="cls-3" d="M48.1,130.62a.34.34,0,0,0-.44.18.35.35,0,0,0,.18.45.34.34,0,0,0,.44-.18A.33.33,0,0,0,48.1,130.62Z"/><path class="cls-3" d="M62.48,130.36A1.43,1.43,0,1,0,61.36,133a1.43,1.43,0,0,0,1.12-2.64Z"/><path class="cls-3" d="M57.32,134.84a1.37,1.37,0,1,0,.73,1.8A1.38,1.38,0,0,0,57.32,134.84Z"/><path class="cls-3" d="M64.83,139.06a1.54,1.54,0,1,0,.82,2A1.54,1.54,0,0,0,64.83,139.06Z"/><path class="cls-3" d="M57,142.05a1.32,1.32,0,1,0,.7,1.73A1.32,1.32,0,0,0,57,142.05Z"/><path class="cls-3" d="M56.76,146.13a1.61,1.61,0,1,0,.86,2.11A1.62,1.62,0,0,0,56.76,146.13Z"/><path class="cls-3" d="M52.1,152.38a.77.77,0,0,0-1,.41.78.78,0,0,0,.41,1,.77.77,0,0,0,.6-1.42Z"/><path class="cls-3" d="M52.81,151.6a1.89,1.89,0,1,0,1,2.48A1.89,1.89,0,0,0,52.81,151.6Z"/><path class="cls-3" d="M52.89,156.05a1.88,1.88,0,1,0,1,2.46A1.87,1.87,0,0,0,52.89,156.05Z"/><path class="cls-3" d="M54.55,160.85a1.28,1.28,0,1,0,.68,1.67A1.28,1.28,0,0,0,54.55,160.85Z"/><path class="cls-3" d="M51.69,164.32a.2.2,0,0,0-.26.11.19.19,0,0,0,.11.26.19.19,0,0,0,.26-.1A.21.21,0,0,0,51.69,164.32Z"/><path class="cls-3" d="M62.44,162.48a.23.23,0,1,0-.18.42.23.23,0,0,0,.18-.42Z"/><path class="cls-3" d="M58.57,171.67a.17.17,0,0,0-.23.09.19.19,0,0,0,.1.24.18.18,0,0,0,.13-.33Z"/><path class="cls-3" d="M65.92,168.06a1.36,1.36,0,1,0,.72,1.79A1.36,1.36,0,0,0,65.92,168.06Z"/><path class="cls-3" d="M65.09,172.79a1,1,0,1,0,.54,1.34A1,1,0,0,0,65.09,172.79Z"/><path class="cls-3" d="M75.12,171.49a.83.83,0,1,0-.65,1.53.83.83,0,0,0,.65-1.53Z"/><path class="cls-3" d="M72.36,175.06a1.63,1.63,0,1,0,.87,2.14A1.64,1.64,0,0,0,72.36,175.06Z"/><path class="cls-3" d="M82.92,170.11a1.06,1.06,0,0,0-1.38.56,1,1,0,0,0,.56,1.38,1.05,1.05,0,0,0,1.38-.55A1.07,1.07,0,0,0,82.92,170.11Z"/><path class="cls-3" d="M80.23,178.14a.48.48,0,1,0,.25.62A.46.46,0,0,0,80.23,178.14Z"/><path class="cls-3" d="M76.47,183.59a.94.94,0,1,0-.73,1.74.94.94,0,1,0,.73-1.74Z"/><path class="cls-3" d="M85.65,177.68a.91.91,0,1,0,.48,1.19A.92.92,0,0,0,85.65,177.68Z"/><path class="cls-3" d="M87.91,178.28a.59.59,0,0,0-.45,1.09.59.59,0,0,0,.77-.31A.61.61,0,0,0,87.91,178.28Z"/><path class="cls-3" d="M85,187.18a1.55,1.55,0,1,0,.82,2A1.57,1.57,0,0,0,85,187.18Z"/><path class="cls-3" d="M84.48,190.08a1,1,0,0,0-1.27.52,1,1,0,0,0,1.78.75A1,1,0,0,0,84.48,190.08Z"/><path class="cls-3" d="M89.22,189a.81.81,0,1,0,.44,1.07A.82.82,0,0,0,89.22,189Z"/><path class="cls-3" d="M93.54,186.52a.65.65,0,1,0,.34.85A.65.65,0,0,0,93.54,186.52Z"/><path class="cls-3" d="M96.59,182.93a.92.92,0,1,0,.49,1.2A.91.91,0,0,0,96.59,182.93Z"/><path class="cls-3" d="M91.54,199.19a.46.46,0,0,0-.61.25.45.45,0,0,0,.24.61.46.46,0,0,0,.61-.25A.47.47,0,0,0,91.54,199.19Z"/><path class="cls-3" d="M97.11,199.28a.61.61,0,0,0-.79.33.6.6,0,0,0,.32.79.6.6,0,0,0,.8-.32A.61.61,0,0,0,97.11,199.28Z"/><path class="cls-3" d="M106.3,184.31a1.68,1.68,0,1,0,.9,2.21A1.69,1.69,0,0,0,106.3,184.31Z"/><path class="cls-3" d="M99.92,202.44a.3.3,0,0,0-.4.16.32.32,0,0,0,.16.4.31.31,0,0,0,.4-.16A.31.31,0,0,0,99.92,202.44Z"/><path class="cls-3" d="M109.56,189.41a2,2,0,0,0-2.64,1.06,2,2,0,1,0,3.71,1.58A2,2,0,0,0,109.56,189.41Z"/><path class="cls-3" d="M111.57,195.7a1.22,1.22,0,1,0,.65,1.59A1.22,1.22,0,0,0,111.57,195.7Z"/><path class="cls-3" d="M117.51,193.09a1.87,1.87,0,1,0,1,2.45A1.87,1.87,0,0,0,117.51,193.09Z"/><path class="cls-3" d="M118.51,199.18a1.25,1.25,0,1,0,.66,1.64A1.26,1.26,0,0,0,118.51,199.18Z"/><path class="cls-3" d="M124,200a1.08,1.08,0,0,0-1.41.58,1.07,1.07,0,0,0,2,.83A1.08,1.08,0,0,0,124,200Z"/><path class="cls-3" d="M127.25,191.73a1.4,1.4,0,1,0,.74,1.83A1.4,1.4,0,0,0,127.25,191.73Z"/><path class="cls-3" d="M130.31,199.58a1.45,1.45,0,1,0,.77,1.9A1.45,1.45,0,0,0,130.31,199.58Z"/><path class="cls-3" d="M131.23,194.58a.57.57,0,0,0-.74.3.56.56,0,0,0,1,.44A.57.57,0,0,0,131.23,194.58Z"/><path class="cls-3" d="M134.44,197.39a.28.28,0,0,0-.36.15.28.28,0,0,0,.51.21A.28.28,0,0,0,134.44,197.39Z"/><path class="cls-3" d="M138.52,203.83a.5.5,0,0,0-.64.26.51.51,0,0,0,.26.64.5.5,0,0,0,.64-.26A.49.49,0,0,0,138.52,203.83Z"/><path class="cls-3" d="M139.48,203.33a.57.57,0,0,0-.76.31.58.58,0,1,0,1.07.45A.57.57,0,0,0,139.48,203.33Z"/><path class="cls-3" d="M141.2,200.92a1.05,1.05,0,0,0-.82,1.94,1.05,1.05,0,0,0,.82-1.94Z"/><path class="cls-3" d="M145.54,208.48a1.06,1.06,0,1,0,.57,1.39A1.06,1.06,0,0,0,145.54,208.48Z"/><path class="cls-3" d="M148.74,195.47a.92.92,0,1,0,.49,1.21A.92.92,0,0,0,148.74,195.47Z"/><path class="cls-3" d="M149.31,187.28a.47.47,0,0,0-.63.25.48.48,0,1,0,.89.38A.48.48,0,0,0,149.31,187.28Z"/><path class="cls-3" d="M160.61,203a1,1,0,1,0,.54,1.34A1,1,0,0,0,160.61,203Z"/><path class="cls-3" d="M163.93,199.45a1.78,1.78,0,1,0,.94,2.33A1.78,1.78,0,0,0,163.93,199.45Z"/><path class="cls-3" d="M163.39,197a.37.37,0,0,0-.48.19.38.38,0,0,0,.19.49.37.37,0,0,0,.49-.2A.37.37,0,0,0,163.39,197Z"/><path class="cls-3" d="M162.54,189.58a1.36,1.36,0,1,0,.72,1.79A1.37,1.37,0,0,0,162.54,189.58Z"/><path class="cls-3" d="M169.12,195.13a.66.66,0,0,0-.88.35.67.67,0,1,0,1.23.52A.65.65,0,0,0,169.12,195.13Z"/><path class="cls-3" d="M168.55,187.49a.75.75,0,0,0-1,.4.74.74,0,0,0,1.37.58A.75.75,0,0,0,168.55,187.49Z"/><path class="cls-3" d="M167.07,179.69a.54.54,0,0,0-.7.29.53.53,0,0,0,.28.7.54.54,0,1,0,.42-1Z"/><path class="cls-3" d="M178.66,190a.5.5,0,0,0-.66.26.52.52,0,0,0,.27.66.49.49,0,0,0,.65-.27A.5.5,0,0,0,178.66,190Z"/><path class="cls-3" d="M180.35,184.49a1.73,1.73,0,1,0,.93,2.26A1.73,1.73,0,0,0,180.35,184.49Z"/><path class="cls-3" d="M186.66,188.08a1.13,1.13,0,1,0,.61,1.49A1.13,1.13,0,0,0,186.66,188.08Z"/><path class="cls-3" d="M182.25,178.52a1.66,1.66,0,1,0,.88,2.17A1.66,1.66,0,0,0,182.25,178.52Z"/><path class="cls-3" d="M191.67,182.49a1.6,1.6,0,0,0-2.1.85,1.61,1.61,0,1,0,3,1.25A1.59,1.59,0,0,0,191.67,182.49Z"/><path class="cls-3" d="M189.37,180.7a.49.49,0,0,0-.63.25.47.47,0,0,0,.25.62.49.49,0,0,0,.63-.25A.47.47,0,0,0,189.37,180.7Z"/><path class="cls-3" d="M190,176.85a.79.79,0,0,0-1,.42.78.78,0,0,0,.42,1,.79.79,0,1,0,.62-1.46Z"/><path class="cls-3" d="M183.55,171.73a.4.4,0,0,0-.53.22.39.39,0,0,0,.21.53.41.41,0,0,0,.54-.21A.42.42,0,0,0,183.55,171.73Z"/><path class="cls-3" d="M183.13,164.82a1.82,1.82,0,1,0,1,2.39A1.83,1.83,0,0,0,183.13,164.82Z"/><path class="cls-3" d="M187.72,165.41a1.64,1.64,0,1,0,.87,2.15A1.64,1.64,0,0,0,187.72,165.41Z"/><path class="cls-3" d="M195.75,170a.31.31,0,1,0,.16.41A.31.31,0,0,0,195.75,170Z"/><path class="cls-3" d="M196,166.05a1.84,1.84,0,1,0,1,2.41A1.84,1.84,0,0,0,196,166.05Z"/><path class="cls-3" d="M189.05,157.91a1.77,1.77,0,0,0-2.33.94,1.78,1.78,0,1,0,3.28,1.38A1.77,1.77,0,0,0,189.05,157.91Z"/><path class="cls-3" d="M191.94,154.81a2.1,2.1,0,1,0,1.12,2.75A2.09,2.09,0,0,0,191.94,154.81Z"/><path class="cls-3" d="M202.31,156.26a1.51,1.51,0,0,0-2,.8,1.51,1.51,0,1,0,2.78,1.18A1.5,1.5,0,0,0,202.31,156.26Z"/><path class="cls-3" d="M192.69,152.69a.59.59,0,0,0-.46,1.08.59.59,0,1,0,.46-1.08Z"/><path class="cls-3" d="M189.19,149a1.58,1.58,0,0,0-1.23,2.91,1.58,1.58,0,0,0,1.23-2.91Z"/><path class="cls-3" d="M200.2,147.85a1.72,1.72,0,1,0,.91,2.25A1.73,1.73,0,0,0,200.2,147.85Z"/><path class="cls-3" d="M195.39,142.29a1,1,0,1,0,.54,1.33A1,1,0,0,0,195.39,142.29Z"/><path class="cls-3" d="M207,141.78a2,2,0,1,0,1.05,2.59A2,2,0,0,0,207,141.78Z"/><path class="cls-3" d="M203.15,137.69a.16.16,0,0,0-.2.08.15.15,0,0,0,.08.21.14.14,0,0,0,.2-.08A.15.15,0,0,0,203.15,137.69Z"/><path class="cls-3" d="M192.37,132.17a.56.56,0,0,0-.74.3.57.57,0,0,0,.3.74.56.56,0,0,0,.74-.3A.55.55,0,0,0,192.37,132.17Z"/><path class="cls-3" d="M204.55,128.13a1.05,1.05,0,0,0-.81,1.94,1,1,0,0,0,1.37-.56A1,1,0,0,0,204.55,128.13Z"/><path class="cls-3" d="M212.6,125.34a1.25,1.25,0,1,0,.66,1.63A1.24,1.24,0,0,0,212.6,125.34Z"/><path class="cls-3" d="M203.24,120.5a.48.48,0,0,0-.38.88.48.48,0,0,0,.63-.25A.47.47,0,0,0,203.24,120.5Z"/><path class="cls-3" d="M204.89,119.25a.35.35,0,0,0-.45.18.34.34,0,0,0,.18.44.33.33,0,0,0,.44-.18A.33.33,0,0,0,204.89,119.25Z"/><path class="cls-3" d="M211.78,115.26a1,1,0,1,0,.51,1.27A1,1,0,0,0,211.78,115.26Z"/><path class="cls-3" d="M200.44,111.19a1.08,1.08,0,1,0-.84,2,1.08,1.08,0,0,0,.84-2Z"/><path class="cls-3" d="M206.48,108.4a1.5,1.5,0,1,0,.8,2A1.49,1.49,0,0,0,206.48,108.4Z"/><path class="cls-3" d="M192.16,109.63a.27.27,0,0,0-.33.13.27.27,0,0,0,.14.34.26.26,0,0,0,.33-.14A.25.25,0,0,0,192.16,109.63Z"/><path class="cls-3" d="M210.83,102.87a1.16,1.16,0,1,0-.9,2.13,1.16,1.16,0,0,0,.9-2.13Z"/><path class="cls-3" d="M213.35,134.52a1.92,1.92,0,1,0-.14,2.71A1.92,1.92,0,0,0,213.35,134.52Z"/><path class="cls-3" d="M206.36,132.58a1.69,1.69,0,1,0-.12,2.39A1.69,1.69,0,0,0,206.36,132.58Z"/><path class="cls-3" d="M214.28,131.17a.55.55,0,0,0-.81.73.55.55,0,1,0,.81-.73Z"/><path class="cls-3" d="M202.05,126.05a1,1,0,1,0-.07,1.41A1,1,0,0,0,202.05,126.05Z"/><path class="cls-3" d="M207.53,123.06a.49.49,0,0,0-.69,0,.48.48,0,0,0,0,.68.49.49,0,0,0,.73-.65Z"/><path class="cls-3" d="M196.65,116.84a1.61,1.61,0,1,0-.11,2.27A1.61,1.61,0,0,0,196.65,116.84Z"/><path class="cls-3" d="M202,116.51a1.82,1.82,0,1,0-.13,2.57A1.81,1.81,0,0,0,202,116.51Z"/><path class="cls-3" d="M197.68,115.26a.56.56,0,0,0-.79,0,.57.57,0,0,0,0,.79.56.56,0,0,0,.83-.75Z"/><path class="cls-3" d="M203.17,108.67a2.09,2.09,0,1,0-.15,3A2.09,2.09,0,0,0,203.17,108.67Z"/><path class="cls-3" d="M202.67,105.43a.79.79,0,1,0-1.18,1.06.8.8,0,0,0,1.13.06A.79.79,0,0,0,202.67,105.43Z"/><path class="cls-3" d="M195.23,103.5a1.64,1.64,0,0,0-2.32-.12,1.67,1.67,0,0,0-.12,2.33,1.65,1.65,0,0,0,2.44-2.21Z"/><path class="cls-3" d="M201.66,98.69a1.14,1.14,0,1,0-.08,1.62A1.14,1.14,0,0,0,201.66,98.69Z"/><path class="cls-3" d="M203.84,92.63a1.39,1.39,0,1,0-.1,2A1.39,1.39,0,0,0,203.84,92.63Z"/><path class="cls-3" d="M191.8,94a1.84,1.84,0,1,0-.13,2.6A1.85,1.85,0,0,0,191.8,94Z"/><path class="cls-3" d="M199.55,87.9a1.66,1.66,0,1,0-.12,2.34A1.65,1.65,0,0,0,199.55,87.9Z"/><path class="cls-3" d="M200.12,82.39a.49.49,0,1,0,0,.69A.49.49,0,0,0,200.12,82.39Z"/><path class="cls-3" d="M189.87,84.48a1,1,0,1,0-.07,1.43A1,1,0,0,0,189.87,84.48Z"/><path class="cls-3" d="M183.15,84a.43.43,0,0,0-.6,0,.44.44,0,0,0,0,.61.43.43,0,0,0,.6,0A.41.41,0,0,0,183.15,84Z"/><path class="cls-3" d="M190.48,70.23a1.09,1.09,0,1,0-1.62,1.46,1.09,1.09,0,1,0,1.62-1.46Z"/><path class="cls-3" d="M178.1,76a1.74,1.74,0,0,0-2.47-.13A1.75,1.75,0,1,0,178,78.5,1.74,1.74,0,0,0,178.1,76Z"/><path class="cls-3" d="M185.2,68a.59.59,0,0,0-.84,0,.59.59,0,0,0,.8.88A.59.59,0,0,0,185.2,68Z"/><path class="cls-3" d="M178,70.59a.25.25,0,0,0-.35,0,.24.24,0,0,0,0,.34.25.25,0,0,0,.35,0A.24.24,0,0,0,178,70.59Z"/><path class="cls-3" d="M180.51,66.57a1.18,1.18,0,1,0-.08,1.67A1.18,1.18,0,0,0,180.51,66.57Z"/><path class="cls-3" d="M174.82,69.17a.17.17,0,0,0-.26,0,.18.18,0,0,0,.25.27A.18.18,0,0,0,174.82,69.17Z"/><path class="cls-3" d="M168.26,73.18a1.27,1.27,0,1,0-.1,1.79A1.27,1.27,0,0,0,168.26,73.18Z"/><path class="cls-3" d="M175,54.23a1.27,1.27,0,0,0-1.88,1.7,1.27,1.27,0,0,0,1.88-1.7Z"/><path class="cls-3" d="M171.27,53.69a1.09,1.09,0,1,0-.08,1.53A1.09,1.09,0,0,0,171.27,53.69Z"/><path class="cls-3" d="M166.36,56.25a1,1,0,0,0-1.47,1.33,1,1,0,1,0,1.47-1.33Z"/><path class="cls-3" d="M159.2,62.72a.83.83,0,0,0-1.19-.06.84.84,0,1,0,1.19.06Z"/><path class="cls-3" d="M156,64.48a1.46,1.46,0,1,0-.11,2.07A1.48,1.48,0,0,0,156,64.48Z"/><path class="cls-3" d="M164.88,47.09a1,1,0,0,0-1.36-.06.94.94,0,0,0-.07,1.35,1,1,0,0,0,1.36.07A1,1,0,0,0,164.88,47.09Z"/><path class="cls-3" d="M156,60.13a1.2,1.2,0,1,0-1.78,1.62,1.19,1.19,0,0,0,1.69.08A1.21,1.21,0,0,0,156,60.13Z"/><path class="cls-3" d="M150.35,61.64a1.13,1.13,0,1,0-.08,1.59A1.13,1.13,0,0,0,150.35,61.64Z"/><path class="cls-3" d="M154.92,44.52a1.58,1.58,0,1,0-.12,2.23A1.58,1.58,0,0,0,154.92,44.52Z"/><path class="cls-3" d="M150,49.83a2,2,0,1,0-.14,2.88A2,2,0,0,0,150,49.83Z"/><path class="cls-3" d="M149.73,47a1.34,1.34,0,1,0-.09,1.89A1.34,1.34,0,0,0,149.73,47Z"/><path class="cls-3" d="M145.5,45a1.61,1.61,0,1,0-.12,2.28A1.61,1.61,0,0,0,145.5,45Z"/><path class="cls-3" d="M141.21,44.78a1.4,1.4,0,1,0-2.08,1.88,1.4,1.4,0,1,0,2.08-1.88Z"/><path class="cls-3" d="M134.82,57.71a.86.86,0,1,0-.06,1.21A.86.86,0,0,0,134.82,57.71Z"/><path class="cls-3" d="M134.2,42.92a1,1,0,1,0-.07,1.43A1,1,0,0,0,134.2,42.92Z"/><path class="cls-3" d="M128.4,57.29a1.29,1.29,0,1,0-.1,1.81A1.28,1.28,0,0,0,128.4,57.29Z"/><path class="cls-3" d="M124.31,60.42a.14.14,0,0,0-.2,0,.15.15,0,0,0,0,.21.14.14,0,0,0,.2,0A.14.14,0,0,0,124.31,60.42Z"/><path class="cls-3" d="M119.47,45.37a.91.91,0,1,0-1.35,1.22.91.91,0,0,0,1.29.07A.92.92,0,0,0,119.47,45.37Z"/><path class="cls-3" d="M115.64,45.69A1.8,1.8,0,1,0,113,48.11a1.82,1.82,0,0,0,2.55.13A1.8,1.8,0,0,0,115.64,45.69Z"/><path class="cls-3" d="M109.78,44.57a.22.22,0,0,0-.31,0,.22.22,0,0,0,0,.3.21.21,0,0,0,.32-.28Z"/><path class="cls-3" d="M110.66,43.45a1.81,1.81,0,1,0-.13,2.55A1.82,1.82,0,0,0,110.66,43.45Z"/><path class="cls-3" d="M112.27,62.62a.72.72,0,0,0-1.07,1,.72.72,0,1,0,1.07-1Z"/><path class="cls-3" d="M106.3,53.32a1.25,1.25,0,1,0-.09,1.76A1.25,1.25,0,0,0,106.3,53.32Z"/><path class="cls-3" d="M100.68,50.25a1.36,1.36,0,1,0-2,1.82,1.36,1.36,0,0,0,2-1.82Z"/><path class="cls-3" d="M96.68,53.31a1.44,1.44,0,1,0-.11,2A1.44,1.44,0,0,0,96.68,53.31Z"/><path class="cls-3" d="M98.37,63.92a.62.62,0,0,0-.89,0,.64.64,0,0,0,0,.9.64.64,0,1,0,.94-.86Z"/><path class="cls-3" d="M88.56,49.4a1.5,1.5,0,1,0-2.23,2,1.5,1.5,0,0,0,2.23-2Z"/><path class="cls-3" d="M96.16,66.49a.49.49,0,0,0-.69,0,.48.48,0,0,0,0,.68.47.47,0,0,0,.68,0A.49.49,0,0,0,96.16,66.49Z"/><path class="cls-3" d="M91.44,65.48a.7.7,0,0,0-1,0,.69.69,0,1,0,.93,1A.69.69,0,0,0,91.44,65.48Z"/><path class="cls-3" d="M84.33,55.19a.63.63,0,0,0-.9,0,.64.64,0,0,0-.05.9.66.66,0,0,0,.91.05A.65.65,0,0,0,84.33,55.19Z"/><path class="cls-3" d="M87.39,66.33a1.29,1.29,0,1,0-.09,1.82A1.28,1.28,0,0,0,87.39,66.33Z"/><path class="cls-3" d="M78.33,58.41a1.31,1.31,0,0,0-2,1.76,1.31,1.31,0,1,0,2-1.76Z"/><path class="cls-3" d="M75.77,60.06a.45.45,0,1,0,0,.65A.46.46,0,0,0,75.77,60.06Z"/><path class="cls-3" d="M84.72,69.7a1,1,0,1,0-.08,1.43A1,1,0,0,0,84.72,69.7Z"/><path class="cls-3" d="M75.57,67a.77.77,0,1,0,0,1.09A.77.77,0,0,0,75.57,67Z"/><path class="cls-3" d="M80.89,74.43a.91.91,0,1,0-.06,1.28A.9.9,0,0,0,80.89,74.43Z"/><path class="cls-3" d="M75.51,73.44a2,2,0,1,0-.14,2.87A2,2,0,0,0,75.51,73.44Z"/><path class="cls-3" d="M73,77a.8.8,0,1,0-.06,1.13A.79.79,0,0,0,73,77Z"/><path class="cls-3" d="M75.45,83.19a1.79,1.79,0,1,0-.13,2.53A1.79,1.79,0,0,0,75.45,83.19Z"/><path class="cls-3" d="M75.63,84.07a1.7,1.7,0,1,0-.12,2.4A1.71,1.71,0,0,0,75.63,84.07Z"/><path class="cls-3" d="M56,78.91a.28.28,0,0,0-.39,0,.27.27,0,1,0,.39,0Z"/><path class="cls-3" d="M60.82,84.14a1.12,1.12,0,0,0-1.56-.08,1.1,1.1,0,0,0,1.48,1.64A1.12,1.12,0,0,0,60.82,84.14Z"/><path class="cls-3" d="M55.33,87.2a.89.89,0,1,0-.06,1.26A.88.88,0,0,0,55.33,87.2Z"/><path class="cls-3" d="M63.89,93.69a.75.75,0,0,0-1.06,0,.75.75,0,1,0,1.06,0Z"/><path class="cls-3" d="M62.07,95.7a1.89,1.89,0,1,0-.13,2.68A1.89,1.89,0,0,0,62.07,95.7Z"/><path class="cls-3" d="M50.59,95a.77.77,0,0,0-1.07-.06A.76.76,0,0,0,49.47,96a.75.75,0,0,0,1.12-1Z"/><path class="cls-3" d="M53,96.65a.32.32,0,0,0-.47,0,.34.34,0,0,0,0,.48.35.35,0,0,0,.48,0A.34.34,0,0,0,53,96.65Z"/><path class="cls-3" d="M66.16,102.48a1.43,1.43,0,1,0-.1,2A1.43,1.43,0,0,0,66.16,102.48Z"/><path class="cls-3" d="M59.6,104.37a1.37,1.37,0,1,0-.1,1.94A1.38,1.38,0,0,0,59.6,104.37Z"/><path class="cls-3" d="M64.63,111.37a1.53,1.53,0,1,0-.11,2.17A1.54,1.54,0,0,0,64.63,111.37Z"/><path class="cls-3" d="M56.26,110.76a1.32,1.32,0,1,0-.09,1.87A1.31,1.31,0,0,0,56.26,110.76Z"/><path class="cls-3" d="M54.32,114.37a1.6,1.6,0,1,0-.11,2.27A1.61,1.61,0,0,0,54.32,114.37Z"/><path class="cls-3" d="M47.47,118.07a.77.77,0,1,0-.06,1.09A.77.77,0,0,0,47.47,118.07Z"/><path class="cls-3" d="M48.44,117.66a1.89,1.89,0,1,0-.14,2.67A1.9,1.9,0,0,0,48.44,117.66Z"/><path class="cls-3" d="M46.63,121.73a1.88,1.88,0,1,0-.14,2.65A1.88,1.88,0,0,0,46.63,121.73Z"/><path class="cls-3" d="M46.11,126.78a1.27,1.27,0,1,0-1.89,1.71,1.27,1.27,0,0,0,1.89-1.71Z"/><path class="cls-3" d="M42.05,128.72a.2.2,0,1,0,0,.28A.19.19,0,0,0,42.05,128.72Z"/><path class="cls-3" d="M52.58,131.58a.24.24,0,0,0-.33,0,.23.23,0,1,0,.31.33A.23.23,0,0,0,52.58,131.58Z"/><path class="cls-3" d="M45.19,138.29a.17.17,0,0,0-.25,0,.18.18,0,0,0,0,.25.17.17,0,1,0,.26-.23Z"/><path class="cls-3" d="M53.38,138.12a1.36,1.36,0,1,0-.1,1.92A1.36,1.36,0,0,0,53.38,138.12Z"/><path class="cls-3" d="M50.63,142.05a1,1,0,0,0-1.45-.07,1,1,0,0,0,1.37,1.52A1,1,0,0,0,50.63,142.05Z"/><path class="cls-3" d="M60.27,145.1a.84.84,0,0,0-1.18-.06.84.84,0,1,0,1.12,1.24A.84.84,0,0,0,60.27,145.1Z"/><path class="cls-3" d="M56.26,147.18a1.63,1.63,0,1,0-.12,2.3A1.61,1.61,0,0,0,56.26,147.18Z"/><path class="cls-3" d="M67.92,147.15a1.05,1.05,0,1,0-1.56,1.41,1.05,1.05,0,0,0,1.56-1.41Z"/><path class="cls-3" d="M62.1,153.29a.48.48,0,0,0-.68,0,.48.48,0,0,0,.65.71A.47.47,0,0,0,62.1,153.29Z"/><path class="cls-3" d="M56.39,156.64a.94.94,0,0,0-1.33-.07.95.95,0,1,0,1.33.07Z"/><path class="cls-3" d="M67.2,155.16a.89.89,0,0,0-1.27-.06.9.9,0,0,0-.07,1.27.91.91,0,0,0,1.28.07A.9.9,0,0,0,67.2,155.16Z"/><path class="cls-3" d="M69,156.66a.59.59,0,1,0,0,.83A.59.59,0,0,0,69,156.66Z"/><path class="cls-3" d="M62.64,163.52a1.55,1.55,0,1,0-.11,2.19A1.56,1.56,0,0,0,62.64,163.52Z"/><path class="cls-3" d="M60.91,165.91a1,1,0,0,0-1.36-.07,1,1,0,1,0,1.29,1.44A1,1,0,0,0,60.91,165.91Z"/><path class="cls-3" d="M65.66,167a.81.81,0,1,0-1.2,1.09.81.81,0,0,0,1.14.06A.82.82,0,0,0,65.66,167Z"/><path class="cls-3" d="M70.63,166.5a.66.66,0,0,0-.92,0,.65.65,0,0,0,0,.91.65.65,0,0,0,1-.87Z"/><path class="cls-3" d="M74.91,164.54a.91.91,0,0,0-1.29-.07.91.91,0,1,0,1.22,1.36A.91.91,0,0,0,74.91,164.54Z"/><path class="cls-3" d="M63.46,177.15a.46.46,0,1,0,0,.66A.46.46,0,0,0,63.46,177.15Z"/><path class="cls-3" d="M68.48,179.59a.59.59,0,0,0-.85-.05.61.61,0,0,0,0,.86.6.6,0,0,0,.86,0A.59.59,0,0,0,68.48,179.59Z"/><path class="cls-3" d="M83.13,169.89a1.68,1.68,0,1,0-.12,2.37A1.68,1.68,0,0,0,83.13,169.89Z"/><path class="cls-3" d="M69.69,183.63a.3.3,0,1,0,0,.42A.29.29,0,0,0,69.69,183.63Z"/><path class="cls-3" d="M83.94,175.88a2,2,0,1,0-.15,2.85A2,2,0,0,0,83.94,175.88Z"/><path class="cls-3" d="M83.1,182.43a1.22,1.22,0,0,0-1.8,1.64,1.22,1.22,0,0,0,1.8-1.64Z"/><path class="cls-3" d="M89.59,182.58a1.87,1.87,0,1,0-2.77,2.5,1.87,1.87,0,0,0,2.77-2.5Z"/><path class="cls-3" d="M87.92,188.52a1.24,1.24,0,0,0-1.77-.09,1.25,1.25,0,1,0,1.77.09Z"/><path class="cls-3" d="M92.54,191.57a1.08,1.08,0,1,0-.08,1.52A1.08,1.08,0,0,0,92.54,191.57Z"/><path class="cls-3" d="M99,185.45a1.39,1.39,0,1,0-.1,2A1.39,1.39,0,0,0,99,185.45Z"/><path class="cls-3" d="M98.45,193.86a1.44,1.44,0,1,0-.1,2A1.44,1.44,0,0,0,98.45,193.86Z"/><path class="cls-3" d="M101.39,189.72a.56.56,0,0,0-.79,0,.57.57,0,0,0,0,.79.56.56,0,0,0,.79,0A.55.55,0,0,0,101.39,189.72Z"/><path class="cls-3" d="M103.12,193.62a.27.27,0,0,0-.38,0,.26.26,0,0,0,0,.39.27.27,0,0,0,.38,0A.28.28,0,0,0,103.12,193.62Z"/><path class="cls-3" d="M104.1,201.18a.48.48,0,0,0-.68,0,.5.5,0,0,0,0,.69.49.49,0,0,0,.69,0A.48.48,0,0,0,104.1,201.18Z"/><path class="cls-3" d="M105.19,201.13a.58.58,0,0,0-.87.78.6.6,0,0,0,.83.05A.59.59,0,0,0,105.19,201.13Z"/><path class="cls-3" d="M107.76,199.67a1.05,1.05,0,1,0-.08,1.49A1.07,1.07,0,0,0,107.76,199.67Z"/><path class="cls-3" d="M108.51,208.35a1.06,1.06,0,0,0-1.5-.08,1.08,1.08,0,0,0-.08,1.51,1.07,1.07,0,0,0,1.58-1.43Z"/><path class="cls-3" d="M116.89,197.91a.91.91,0,0,0-1.3-.06.92.92,0,0,0-.07,1.3.93.93,0,0,0,1.31.07A.92.92,0,0,0,116.89,197.91Z"/><path class="cls-3" d="M120.87,190.72a.49.49,0,0,0-.72.65.49.49,0,1,0,.72-.65Z"/><path class="cls-3" d="M124.48,209.73a1,1,0,1,0-.07,1.45A1,1,0,0,0,124.48,209.73Z"/><path class="cls-3" d="M129,207.92a1.78,1.78,0,1,0-.13,2.51A1.77,1.77,0,0,0,129,207.92Z"/><path class="cls-3" d="M129.54,205.47a.37.37,0,0,0-.55.49.37.37,0,1,0,.55-.49Z"/><path class="cls-3" d="M131.89,198.39a1.36,1.36,0,1,0-.1,1.93A1.36,1.36,0,0,0,131.89,198.39Z"/><path class="cls-3" d="M135.52,206.2a.67.67,0,1,0-.05.94A.67.67,0,0,0,135.52,206.2Z"/><path class="cls-3" d="M138.22,199a.75.75,0,0,0-1.05-.05.74.74,0,1,0,1,1.1A.74.74,0,0,0,138.22,199Z"/><path class="cls-3" d="M140.17,191.34a.53.53,0,0,0-.75,0,.54.54,0,1,0,.75,0Z"/><path class="cls-3" d="M146.34,205.55a.48.48,0,0,0-.7,0,.5.5,0,1,0,.67.74A.48.48,0,0,0,146.34,205.55Z"/><path class="cls-3" d="M150.19,201.3a1.72,1.72,0,1,0-.12,2.43A1.71,1.71,0,0,0,150.19,201.3Z"/><path class="cls-3" d="M154.4,207.21a1.14,1.14,0,1,0-.08,1.61A1.14,1.14,0,0,0,154.4,207.21Z"/><path class="cls-3" d="M154.43,196.68a1.65,1.65,0,1,0-.11,2.34A1.66,1.66,0,0,0,154.43,196.68Z"/><path class="cls-3" d="M161.3,204.26a1.6,1.6,0,1,0-.11,2.27A1.61,1.61,0,0,0,161.3,204.26Z"/><path class="cls-3" d="M160,201.66a.47.47,0,1,0,0,.67A.47.47,0,0,0,160,201.66Z"/><path class="cls-3" d="M162.11,198.42a.78.78,0,0,0-1.12-.06.8.8,0,1,0,1.12.06Z"/><path class="cls-3" d="M158.47,191.07a.41.41,0,0,0-.57,0,.4.4,0,0,0,0,.57.41.41,0,0,0,.58,0A.42.42,0,0,0,158.47,191.07Z"/><path class="cls-3" d="M161,184.62a1.83,1.83,0,1,0-.13,2.58A1.83,1.83,0,0,0,161,184.62Z"/><path class="cls-3" d="M164.92,187.1a1.65,1.65,0,1,0-.12,2.32A1.64,1.64,0,0,0,164.92,187.1Z"/><path class="cls-3" d="M170.27,194.65a.31.31,0,0,0-.44,0,.3.3,0,0,0,0,.43.3.3,0,0,0,.44,0A.31.31,0,0,0,170.27,194.65Z"/><path class="cls-3" d="M172.12,191.16a1.84,1.84,0,1,0-.14,2.6A1.85,1.85,0,0,0,172.12,191.16Z"/><path class="cls-3" d="M169.3,180.87a1.78,1.78,0,1,0-.13,2.5A1.77,1.77,0,0,0,169.3,180.87Z"/><path class="cls-3" d="M173.23,179.28a2.1,2.1,0,1,0-.16,3A2.1,2.1,0,0,0,173.23,179.28Z"/><path class="cls-3" d="M182,185a1.51,1.51,0,1,0-.11,2.14A1.51,1.51,0,0,0,182,185Z"/><path class="cls-3" d="M174.8,177.67a.59.59,0,0,0-.83,0,.59.59,0,1,0,.79.87A.59.59,0,0,0,174.8,177.67Z"/><path class="cls-3" d="M173.19,172.82a1.56,1.56,0,0,0-2.22-.11,1.58,1.58,0,1,0,2.22.11Z"/><path class="cls-3" d="M183.64,176.45a1.72,1.72,0,1,0-.12,2.42A1.71,1.71,0,0,0,183.64,176.45Z"/><path class="cls-3" d="M181.64,169.38a1,1,0,0,0-1.51,1.36,1,1,0,0,0,1.51-1.36Z"/><path class="cls-3" d="M192.38,173.82a2,2,0,1,0-.14,2.8A2,2,0,0,0,192.38,173.82Z"/><path class="cls-3" d="M190.61,168.49a.16.16,0,0,0-.23,0,.16.16,0,1,0,.23,0Z"/><path class="cls-3" d="M183.17,158.93a.57.57,0,1,0,0,.8A.57.57,0,0,0,183.17,158.93Z"/><path class="cls-3" d="M195.91,160.41a1.05,1.05,0,1,0-.07,1.49A1.05,1.05,0,0,0,195.91,160.41Z"/><path class="cls-3" d="M204.38,161.27a1.25,1.25,0,1,0-.08,1.77A1.25,1.25,0,0,0,204.38,161.27Z"/><path class="cls-3" d="M197.94,152.93a.48.48,0,1,0,0,.68A.49.49,0,0,0,197.94,152.93Z"/><path class="cls-3" d="M200,152.5a.32.32,0,0,0-.47,0,.33.33,0,0,0,0,.47.34.34,0,1,0,.5-.45Z"/><path class="cls-3" d="M207.89,151.79a1,1,0,1,0-.07,1.37A1,1,0,0,0,207.89,151.79Z"/><path class="cls-3" d="M199.33,143.32a1.08,1.08,0,1,0-.08,1.53A1.09,1.09,0,0,0,199.33,143.32Z"/><path class="cls-3" d="M206,143.33a1.51,1.51,0,0,0-2.24,2,1.51,1.51,0,0,0,2.24-2Z"/><path class="cls-3" d="M192.49,138.41a.25.25,0,0,0-.36,0,.25.25,0,0,0,0,.36.25.25,0,1,0,.38-.34Z"/><path class="cls-3" d="M212.26,140.16a1.16,1.16,0,1,0-.08,1.63A1.16,1.16,0,0,0,212.26,140.16Z"/><circle class="cls-4" cx="128.08" cy="128.08" r="128.08"/></g><g id="forme_2"><path class="cls-3" d="M202.1,70.07A2.06,2.06,0,1,0,204,72.31,2.06,2.06,0,0,0,202.1,70.07Z"/><path class="cls-3" d="M195.16,73.63a1.82,1.82,0,1,0,1.65,2A1.83,1.83,0,0,0,195.16,73.63Z"/><path class="cls-3" d="M200.39,66.74a.58.58,0,0,0-.63.53.59.59,0,0,0,.53.64.59.59,0,0,0,.1-1.17Z"/><path class="cls-3" d="M187,71.62a1.07,1.07,0,1,0,1,1.16A1.08,1.08,0,0,0,187,71.62Z"/><path class="cls-3" d="M189.13,65.26a.52.52,0,0,0-.09,1,.52.52,0,1,0,.09-1Z"/><path class="cls-3" d="M176,68.27a1.74,1.74,0,1,0,1.57,1.89A1.74,1.74,0,0,0,176,68.27Z"/><path class="cls-3" d="M180,64.09a2,2,0,1,0,1.77,2.13A2,2,0,0,0,180,64.09Z"/><path class="cls-3" d="M175.65,66.28a.6.6,0,0,0-.65.54.6.6,0,0,0,.54.65.6.6,0,0,0,.11-1.19Z"/><path class="cls-3" d="M175.19,57.05a2.25,2.25,0,1,0,2,2.45A2.25,2.25,0,0,0,175.19,57.05Z"/><path class="cls-3" d="M172.42,54.85a.87.87,0,0,0-.93.78.86.86,0,0,0,1.71.15A.87.87,0,0,0,172.42,54.85Z"/><path class="cls-3" d="M165.13,58.76a1.77,1.77,0,1,0,1.6,1.92A1.77,1.77,0,0,0,165.13,58.76Z"/><path class="cls-3" d="M166.71,50.27a1.23,1.23,0,1,0,1.11,1.33A1.22,1.22,0,0,0,166.71,50.27Z"/><path class="cls-3" d="M164,43.89a1.49,1.49,0,0,0-.27,3,1.51,1.51,0,0,0,1.63-1.35A1.49,1.49,0,0,0,164,43.89Z"/><path class="cls-3" d="M155.51,53.79a2,2,0,1,0,1.79,2.15A2,2,0,0,0,155.51,53.79Z"/><path class="cls-3" d="M157.15,43.26a1.79,1.79,0,1,0,1.63,2A1.8,1.8,0,0,0,157.15,43.26Z"/><path class="cls-3" d="M153.58,38.51A.51.51,0,0,0,153,39a.52.52,0,0,0,.47.57.53.53,0,0,0,.57-.48A.52.52,0,0,0,153.58,38.51Z"/><path class="cls-3" d="M147,47.63a1.09,1.09,0,1,0,1,1.18A1.09,1.09,0,0,0,147,47.63Z"/><path class="cls-3" d="M141.33,52.15a.46.46,0,0,0-.5.41.46.46,0,0,0,.92.09A.46.46,0,0,0,141.33,52.15Z"/><path class="cls-3" d="M137.09,35.91a1.18,1.18,0,1,0,1.06,1.28A1.18,1.18,0,0,0,137.09,35.91Z"/><path class="cls-3" d="M131.53,49.54a1.88,1.88,0,1,0,1.71,2.05A1.89,1.89,0,0,0,131.53,49.54Z"/><path class="cls-3" d="M131.28,38a.65.65,0,0,0-.7.58.64.64,0,0,0,1.27.11A.62.62,0,0,0,131.28,38Z"/><path class="cls-3" d="M127.49,45.3a.27.27,0,0,0-.29.24.28.28,0,0,0,.24.29.26.26,0,0,0,.28-.24A.25.25,0,0,0,127.49,45.3Z"/><path class="cls-3" d="M126.52,40.3a1.27,1.27,0,1,0,1.16,1.39A1.27,1.27,0,0,0,126.52,40.3Z"/><path class="cls-3" d="M123.93,46.51a.2.2,0,1,0,.18.22A.2.2,0,0,0,123.93,46.51Z"/><path class="cls-3" d="M121.66,54.48A1.37,1.37,0,1,0,122.9,56,1.36,1.36,0,0,0,121.66,54.48Z"/><path class="cls-3" d="M113.18,34.55a1.34,1.34,0,0,0-1.47,1.23,1.36,1.36,0,0,0,2.71.25A1.37,1.37,0,0,0,113.18,34.55Z"/><path class="cls-3" d="M109.82,36.87a1.16,1.16,0,1,0,1.06,1.26A1.17,1.17,0,0,0,109.82,36.87Z"/><path class="cls-3" d="M107.8,42.48a1,1,0,0,0-1.15,1,1.06,1.06,0,1,0,2.12.19A1.06,1.06,0,0,0,107.8,42.48Z"/><path class="cls-3" d="M106.86,52.81a.91.91,0,1,0,.82,1A.9.9,0,0,0,106.86,52.81Z"/><path class="cls-3" d="M105.59,56.58A1.57,1.57,0,1,0,107,58.29,1.57,1.57,0,0,0,105.59,56.58Z"/><path class="cls-3" d="M99.94,36.32a1,1,0,0,0-1.12.93,1,1,0,1,0,2.06.19A1,1,0,0,0,99.94,36.32Z"/><path class="cls-3" d="M102.42,53.13a1.3,1.3,0,1,0,1.17,1.4A1.29,1.29,0,0,0,102.42,53.13Z"/><path class="cls-3" d="M99.07,58.43a1.2,1.2,0,1,0,1.1,1.31A1.2,1.2,0,0,0,99.07,58.43Z"/><path class="cls-3" d="M90.19,41.55a1.7,1.7,0,0,0-.31,3.39,1.7,1.7,0,0,0,.31-3.39Z"/><path class="cls-3" d="M90.14,49.38a2.19,2.19,0,1,0,2,2.38A2.19,2.19,0,0,0,90.14,49.38Z"/><path class="cls-3" d="M87.86,47.26a1.44,1.44,0,1,0,1.31,1.56A1.44,1.44,0,0,0,87.86,47.26Z"/><path class="cls-3" d="M83.1,48.82a1.74,1.74,0,1,0,1.58,1.89A1.73,1.73,0,0,0,83.1,48.82Z"/><path class="cls-3" d="M79.54,51.76a1.51,1.51,0,1,0,1.37,1.64A1.51,1.51,0,0,0,79.54,51.76Z"/><path class="cls-3" d="M83.93,66.66a.92.92,0,1,0,.83,1A.92.92,0,0,0,83.93,66.66Z"/><path class="cls-3" d="M72.64,55.4a1.09,1.09,0,0,0-1.18,1,1.07,1.07,0,0,0,1,1.18,1.09,1.09,0,1,0,.2-2.17Z"/><path class="cls-3" d="M78.54,71a1.39,1.39,0,1,0,1.25,1.51A1.39,1.39,0,0,0,78.54,71Z"/><path class="cls-3" d="M77.6,76.47a.15.15,0,0,0-.17.14.15.15,0,0,0,.14.17.16.16,0,1,0,0-.31Z"/><path class="cls-3" d="M62.78,68.1a1,1,0,1,0,.89,1.06A1,1,0,0,0,62.78,68.1Z"/><path class="cls-3" d="M60,71.14a1.94,1.94,0,1,0,1.75,2.11A1.94,1.94,0,0,0,60,71.14Z"/><path class="cls-3" d="M54.53,74.54a.23.23,0,0,0-.25.21.22.22,0,0,0,.2.25.23.23,0,0,0,.25-.21A.22.22,0,0,0,54.53,74.54Z"/><path class="cls-3" d="M54.4,73a1.95,1.95,0,1,0,1.76,2.12A1.94,1.94,0,0,0,54.4,73Z"/><path class="cls-3" d="M69.68,87a.78.78,0,1,0,.7.84A.77.77,0,0,0,69.68,87Z"/><path class="cls-3" d="M58.17,84a1.35,1.35,0,0,0-1.46,1.22A1.34,1.34,0,1,0,58.17,84Z"/><path class="cls-3" d="M51.48,85.68a1.46,1.46,0,1,0,1.32,1.58A1.47,1.47,0,0,0,51.48,85.68Z"/><path class="cls-3" d="M50.55,91A1.55,1.55,0,1,0,52,92.7,1.55,1.55,0,0,0,50.55,91Z"/><path class="cls-3" d="M59.64,98.18a.68.68,0,1,0,.61.74A.67.67,0,0,0,59.64,98.18Z"/><path class="cls-3" d="M41.27,93.85a1.62,1.62,0,1,0,1.47,1.76A1.62,1.62,0,0,0,41.27,93.85Z"/><path class="cls-3" d="M59.76,101.83a.52.52,0,0,0-.57.46.53.53,0,0,0,.47.57.52.52,0,0,0,.57-.47A.5.5,0,0,0,59.76,101.83Z"/><path class="cls-3" d="M55.29,104.47a.75.75,0,0,0-.14,1.49.77.77,0,0,0,.82-.68A.76.76,0,0,0,55.29,104.47Z"/><path class="cls-3" d="M42.16,101.52a.69.69,0,1,0-.13,1.37.69.69,0,0,0,.13-1.37Z"/><path class="cls-3" d="M52.71,108.09A1.39,1.39,0,1,0,54,109.6,1.38,1.38,0,0,0,52.71,108.09Z"/><path class="cls-3" d="M39.76,108.45A1.41,1.41,0,1,0,41.05,110,1.4,1.4,0,0,0,39.76,108.45Z"/><path class="cls-3" d="M38.94,111.62a.48.48,0,0,0-.53.45.49.49,0,0,0,.44.53.5.5,0,0,0,.54-.45A.48.48,0,0,0,38.94,111.62Z"/><path class="cls-3" d="M53.05,112.71a1.09,1.09,0,1,0,1,1.19A1.09,1.09,0,0,0,53.05,112.71Z"/><path class="cls-3" d="M43.87,117.28a.82.82,0,0,0-.9.75.83.83,0,1,0,1.65.15A.82.82,0,0,0,43.87,117.28Z"/><path class="cls-3" d="M53.49,119.24a1,1,0,1,0-.18,2,1,1,0,0,0,.18-2Z"/><path class="cls-3" d="M48.5,122.39a2.19,2.19,0,0,0-.39,4.36,2.19,2.19,0,1,0,.39-4.36Z"/><path class="cls-3" d="M49.09,127a.86.86,0,0,0-.16,1.72.88.88,0,0,0,.94-.78A.86.86,0,0,0,49.09,127Z"/><path class="cls-3" d="M55.57,130.15a1.93,1.93,0,0,0-.35,3.84,1.93,1.93,0,1,0,.35-3.84Z"/><path class="cls-3" d="M56.36,130.72a1.82,1.82,0,1,0,1.65,2A1.82,1.82,0,0,0,56.36,130.72Z"/><path class="cls-3" d="M37.08,141a.29.29,0,0,0-.32.26.28.28,0,0,0,.26.31.29.29,0,1,0,.06-.57Z"/><path class="cls-3" d="M44.69,141.58a1.19,1.19,0,1,0,1.08,1.29A1.19,1.19,0,0,0,44.69,141.58Z"/><path class="cls-3" d="M42.59,148a1,1,0,0,0-.17,1.92,1,1,0,0,0,1-.87A1,1,0,0,0,42.59,148Z"/><path class="cls-3" d="M54.1,146.89a.81.81,0,1,0,.73.88A.81.81,0,0,0,54.1,146.89Z"/><path class="cls-3" d="M54.13,149.81A2,2,0,1,0,56,152,2,2,0,0,0,54.13,149.81Z"/><path class="cls-3" d="M44.51,157.61a.81.81,0,0,0-.15,1.62.81.81,0,1,0,.15-1.62Z"/><path class="cls-3" d="M47.66,157.17a.36.36,0,0,0-.06.72.35.35,0,0,0,.39-.33A.36.36,0,0,0,47.66,157.17Z"/><path class="cls-3" d="M62.31,152.18a1.54,1.54,0,1,0,1.4,1.67A1.55,1.55,0,0,0,62.31,152.18Z"/><path class="cls-3" d="M58.5,158.47a1.49,1.49,0,0,0-1.61,1.34,1.48,1.48,0,1,0,1.61-1.34Z"/><path class="cls-3" d="M67.58,160.33a1.65,1.65,0,1,0,1.5,1.79A1.65,1.65,0,0,0,67.58,160.33Z"/><path class="cls-3" d="M60.53,166a1.42,1.42,0,1,0-.26,2.83,1.42,1.42,0,0,0,.26-2.83Z"/><path class="cls-3" d="M61.63,170.23a1.73,1.73,0,1,0,1.57,1.88A1.72,1.72,0,0,0,61.63,170.23Z"/><path class="cls-3" d="M58.9,178.16a.83.83,0,1,0,.76.9A.83.83,0,0,0,58.9,178.16Z"/><path class="cls-3" d="M59.37,177.13a2,2,0,1,0,1.84,2.21A2,2,0,0,0,59.37,177.13Z"/><path class="cls-3" d="M60.91,181.66a2,2,0,1,0,1.83,2.2A2,2,0,0,0,60.91,181.66Z"/><path class="cls-3" d="M64.19,186a1.37,1.37,0,1,0,1.25,1.49A1.38,1.38,0,0,0,64.19,186Z"/><path class="cls-3" d="M62.4,190.54a.2.2,0,0,0-.23.19.22.22,0,1,0,.43,0A.21.21,0,0,0,62.4,190.54Z"/><path class="cls-3" d="M72.81,185.12a.23.23,0,0,0-.26.22.24.24,0,1,0,.48,0A.24.24,0,0,0,72.81,185.12Z"/><path class="cls-3" d="M71.87,195.81a.19.19,0,0,0-.21.17.2.2,0,0,0,.17.21.19.19,0,0,0,0-.38Z"/><path class="cls-3" d="M78.22,189.7a1.47,1.47,0,1,0,1.32,1.59A1.46,1.46,0,0,0,78.22,189.7Z"/><path class="cls-3" d="M78.91,194.82a1.1,1.1,0,1,0,1,1.19A1.09,1.09,0,0,0,78.91,194.82Z"/><path class="cls-3" d="M88.77,190.19A.9.9,0,0,0,88.6,192a.91.91,0,0,0,1-.82A.9.9,0,0,0,88.77,190.19Z"/><path class="cls-3" d="M87.11,194.76a1.76,1.76,0,1,0,1.59,1.91A1.75,1.75,0,0,0,87.11,194.76Z"/><path class="cls-3" d="M96.31,186.23a1.13,1.13,0,1,0,1,1.23A1.13,1.13,0,0,0,96.31,186.23Z"/><path class="cls-3" d="M96.19,195.33a.51.51,0,0,0-.56.46.51.51,0,1,0,.56-.46Z"/><path class="cls-3" d="M94.13,202.15a1,1,0,0,0-1.11.92,1,1,0,1,0,2,.18A1,1,0,0,0,94.13,202.15Z"/><path class="cls-3" d="M101.59,193.09a1,1,0,1,0,.88,1A1,1,0,0,0,101.59,193.09Z"/><path class="cls-3" d="M104.11,193a.63.63,0,1,0,.58.69A.64.64,0,0,0,104.11,193Z"/><path class="cls-3" d="M104.09,203a1.66,1.66,0,1,0,1.5,1.81A1.66,1.66,0,0,0,104.09,203Z"/><path class="cls-3" d="M104.46,206.18a1,1,0,1,0,.94,1.13A1,1,0,0,0,104.46,206.18Z"/><path class="cls-3" d="M109,203.54a.88.88,0,0,0-1,.79.87.87,0,1,0,1-.79Z"/><path class="cls-3" d="M112.58,199.56a.69.69,0,1,0-.13,1.38.69.69,0,1,0,.13-1.38Z"/><path class="cls-3" d="M114.53,194.87a1,1,0,0,0-1.07.9,1,1,0,1,0,1.07-.9Z"/><path class="cls-3" d="M114.69,213.2a.51.51,0,0,0-.55.46.5.5,0,0,0,.46.54.49.49,0,0,0,.54-.45A.5.5,0,0,0,114.69,213.2Z"/><path class="cls-3" d="M120.44,211.47a.66.66,0,0,0-.72.59.67.67,0,0,0,.6.71.65.65,0,1,0,.12-1.3Z"/><path class="cls-3" d="M124.94,193.1a1.82,1.82,0,1,0,1.64,2A1.82,1.82,0,0,0,124.94,193.1Z"/><path class="cls-3" d="M124.35,213.78a.33.33,0,1,0,.29.35A.33.33,0,0,0,124.35,213.78Z"/><path class="cls-3" d="M130,197.25a2.17,2.17,0,1,0,2,2.36A2.18,2.18,0,0,0,130,197.25Z"/><path class="cls-3" d="M134.08,203.05a1.31,1.31,0,0,0-1.43,1.18,1.33,1.33,0,0,0,1.19,1.43,1.31,1.31,0,0,0,1.42-1.19A1.3,1.3,0,0,0,134.08,203.05Z"/><path class="cls-3" d="M139.31,198.42a2,2,0,1,0,1.82,2.19A2,2,0,0,0,139.31,198.42Z"/><path class="cls-3" d="M142.33,204.34a1.35,1.35,0,1,0,1.22,1.47A1.35,1.35,0,0,0,142.33,204.34Z"/><path class="cls-3" d="M148.21,203.39a1.15,1.15,0,1,0,1,1.26A1.17,1.17,0,0,0,148.21,203.39Z"/><path class="cls-3" d="M148.85,193.83a1.5,1.5,0,1,0,1.36,1.63A1.5,1.5,0,0,0,148.85,193.83Z"/><path class="cls-3" d="M154.56,200.88a1.56,1.56,0,1,0,1.41,1.69A1.56,1.56,0,0,0,154.56,200.88Z"/><path class="cls-3" d="M153.86,195.45a.61.61,0,0,0-.11,1.21.61.61,0,1,0,.11-1.21Z"/><path class="cls-3" d="M158.08,197.28a.3.3,0,0,0-.32.27.29.29,0,0,0,.26.32.29.29,0,0,0,.32-.27A.29.29,0,0,0,158.08,197.28Z"/><path class="cls-3" d="M164.37,202.54a.5.5,0,0,0-.56.47.52.52,0,1,0,1,.1A.51.51,0,0,0,164.37,202.54Z"/><path class="cls-3" d="M165.19,201.71a.63.63,0,1,0-.11,1.25.61.61,0,0,0,.68-.57A.62.62,0,0,0,165.19,201.71Z"/><path class="cls-3" d="M166.16,198.68a1.13,1.13,0,1,0,1,1.23A1.14,1.14,0,0,0,166.16,198.68Z"/><path class="cls-3" d="M173.09,205a1.14,1.14,0,1,0,1,1.24A1.14,1.14,0,0,0,173.09,205Z"/><path class="cls-3" d="M172.1,190.62a1,1,0,1,0,.9,1.08A1,1,0,0,0,172.1,190.62Z"/><path class="cls-3" d="M170,182a.52.52,0,0,0-.57.47.53.53,0,0,0,.48.57.52.52,0,0,0,.56-.47A.51.51,0,0,0,170,182Z"/><path class="cls-3" d="M186.73,194.43a1.1,1.1,0,1,0,1,1.19A1.09,1.09,0,0,0,186.73,194.43Z"/><path class="cls-3" d="M189,189.71a1.91,1.91,0,1,0,1.74,2.08A1.91,1.91,0,0,0,189,189.71Z"/><path class="cls-3" d="M187.62,187.36a.39.39,0,0,0-.43.36.4.4,0,1,0,.79.08A.4.4,0,0,0,187.62,187.36Z"/><path class="cls-3" d="M184.31,180.06a1.46,1.46,0,1,0,1.33,1.59A1.46,1.46,0,0,0,184.31,180.06Z"/><path class="cls-3" d="M192.88,183.58a.72.72,0,1,0,.65.78A.71.71,0,0,0,192.88,183.58Z"/><path class="cls-3" d="M189.79,175.94a.8.8,0,1,0,.72.87A.8.8,0,0,0,189.79,175.94Z"/><path class="cls-3" d="M185.72,168.42a.59.59,0,0,0-.63.53.58.58,0,1,0,1.15.1A.59.59,0,0,0,185.72,168.42Z"/><path class="cls-3" d="M201,175.16a.54.54,0,0,0-.59.48.54.54,0,1,0,1.08.1A.54.54,0,0,0,201,175.16Z"/><path class="cls-3" d="M200.91,169a1.86,1.86,0,1,0,1.68,2A1.86,1.86,0,0,0,200.91,169Z"/><path class="cls-3" d="M208.55,170.59a1.22,1.22,0,1,0,1.11,1.33A1.23,1.23,0,0,0,208.55,170.59Z"/><path class="cls-3" d="M200.89,162.24a1.78,1.78,0,1,0,1.62,1.94A1.77,1.77,0,0,0,200.89,162.24Z"/><path class="cls-3" d="M211.85,163.22a1.73,1.73,0,1,0,1.57,1.87A1.71,1.71,0,0,0,211.85,163.22Z"/><path class="cls-3" d="M208.9,162.14a.51.51,0,1,0-.09,1,.5.5,0,0,0,.55-.46A.51.51,0,0,0,208.9,162.14Z"/><path class="cls-3" d="M208.23,158a.85.85,0,0,0-.93.77.87.87,0,0,0,.78.93.85.85,0,0,0,.15-1.7Z"/><path class="cls-3" d="M200,154.86a.44.44,0,0,0-.47.4.44.44,0,1,0,.47-.4Z"/><path class="cls-3" d="M197.3,147.91a2,2,0,1,0,1.77,2.13A2,2,0,0,0,197.3,147.91Z"/><path class="cls-3" d="M202.19,147a1.77,1.77,0,1,0,1.61,1.92A1.77,1.77,0,0,0,202.19,147Z"/><path class="cls-3" d="M211.93,149.07a.34.34,0,0,0-.36.3.32.32,0,0,0,.3.36.33.33,0,0,0,.36-.3A.33.33,0,0,0,211.93,149.07Z"/><path class="cls-3" d="M210.85,145a2,2,0,1,0,1.79,2.15A2,2,0,0,0,210.85,145Z"/><path class="cls-3" d="M201.1,138.88a1.91,1.91,0,1,0,1.73,2.08A1.92,1.92,0,0,0,201.1,138.88Z"/><path class="cls-3" d="M203.05,134.76a2.25,2.25,0,1,0,2,2.45A2.26,2.26,0,0,0,203.05,134.76Z"/><path class="cls-3" d="M214.15,132.84a1.63,1.63,0,1,0,1.47,1.77A1.63,1.63,0,0,0,214.15,132.84Z"/><path class="cls-3" d="M203.12,132.34a.63.63,0,0,0-.69.57.63.63,0,1,0,1.26.11A.62.62,0,0,0,203.12,132.34Z"/><path class="cls-3" d="M198.31,129.68a1.7,1.7,0,1,0,1.54,1.84A1.7,1.7,0,0,0,198.31,129.68Z"/><path class="cls-3" d="M209.22,124.91a1.85,1.85,0,1,0,1.67,2A1.85,1.85,0,0,0,209.22,124.91Z"/><path class="cls-3" d="M202.48,120.79a1.1,1.1,0,0,0-1.19,1,1.09,1.09,0,0,0,2.18.2A1.1,1.1,0,0,0,202.48,120.79Z"/><path class="cls-3" d="M214.22,116.46a2.13,2.13,0,1,0,1.92,2.31A2.12,2.12,0,0,0,214.22,116.46Z"/><path class="cls-3" d="M208.92,113.54a.16.16,0,0,0-.18.15.17.17,0,0,0,.15.18.17.17,0,1,0,0-.33Z"/><path class="cls-3" d="M196.05,111.41a.6.6,0,0,0-.66.55.62.62,0,0,0,.56.66.61.61,0,1,0,.1-1.21Z"/><path class="cls-3" d="M207.22,103.27a1.15,1.15,0,0,0-1.23,1,1.13,1.13,0,1,0,1.23-1Z"/><path class="cls-3" d="M214.55,97.77a1.35,1.35,0,1,0,1.22,1.46A1.35,1.35,0,0,0,214.55,97.77Z"/><path class="cls-3" d="M203.36,95.88a.52.52,0,0,0-.56.47.52.52,0,0,0,.47.56.51.51,0,0,0,.56-.47A.52.52,0,0,0,203.36,95.88Z"/><path class="cls-3" d="M204.64,94.06a.36.36,0,0,0-.39.33.36.36,0,1,0,.72.06A.36.36,0,0,0,204.64,94.06Z"/><path class="cls-3" d="M210.4,87.71a1,1,0,1,0,.95,1.14A1.05,1.05,0,0,0,210.4,87.71Z"/><path class="cls-3" d="M197.44,87.26a1.16,1.16,0,0,0-.21,2.32,1.16,1.16,0,1,0,.21-2.32Z"/><path class="cls-3" d="M202.72,82.41a1.62,1.62,0,1,0,1.47,1.76A1.62,1.62,0,0,0,202.72,82.41Z"/><path class="cls-3" d="M188.45,88.37a.28.28,0,0,0-.3.25.28.28,0,1,0,.3-.25Z"/><path class="cls-3" d="M205.36,75.32a1.25,1.25,0,1,0,1.13,1.35A1.25,1.25,0,0,0,205.36,75.32Z"/><path class="cls-3" d="M218.33,106.93a2.07,2.07,0,1,0,.75,2.83A2.08,2.08,0,0,0,218.33,106.93Z"/><path class="cls-3" d="M210.53,107.24a1.82,1.82,0,1,0,.66,2.49A1.82,1.82,0,0,0,210.53,107.24Z"/><path class="cls-3" d="M218.18,103.2a.58.58,0,0,0-.8.21.58.58,0,0,0,1,.59A.58.58,0,0,0,218.18,103.2Z"/><path class="cls-3" d="M204,102a1.08,1.08,0,1,0,.39,1.47A1.08,1.08,0,0,0,204,102Z"/><path class="cls-3" d="M208.6,97.1a.53.53,0,1,0,.19.72A.53.53,0,0,0,208.6,97.1Z"/><path class="cls-3" d="M195.41,94.29a1.73,1.73,0,1,0,.63,2.37A1.73,1.73,0,0,0,195.41,94.29Z"/><path class="cls-3" d="M200.82,92.19a2,2,0,1,0,.71,2.68A2,2,0,0,0,200.82,92.19Z"/><path class="cls-3" d="M196,92.34a.6.6,0,1,0-.6,1,.59.59,0,0,0,.81-.21A.6.6,0,0,0,196,92.34Z"/><path class="cls-3" d="M199.42,83.78a2.26,2.26,0,1,0,.81,3.08A2.26,2.26,0,0,0,199.42,83.78Z"/><path class="cls-3" d="M197.84,80.62a.85.85,0,0,0-1.17.31.84.84,0,0,0,.31,1.16.85.85,0,1,0,.86-1.47Z"/><path class="cls-3" d="M189.58,81.08a1.77,1.77,0,1,0,.64,2.42A1.77,1.77,0,0,0,189.58,81.08Z"/><path class="cls-3" d="M194.59,74a1.23,1.23,0,1,0,.45,1.68A1.23,1.23,0,0,0,194.59,74Z"/><path class="cls-3" d="M194.83,67.12a1.49,1.49,0,1,0,.55,2A1.49,1.49,0,0,0,194.83,67.12Z"/><path class="cls-3" d="M183,72.52a2,2,0,1,0,.71,2.7A2,2,0,0,0,183,72.52Z"/><path class="cls-3" d="M188.89,63.67a1.79,1.79,0,1,0,.65,2.44A1.79,1.79,0,0,0,188.89,63.67Z"/><path class="cls-3" d="M187.66,57.85a.53.53,0,0,0-.72.19.52.52,0,0,0,.91.52A.51.51,0,0,0,187.66,57.85Z"/><path class="cls-3" d="M177.84,63.34a1.09,1.09,0,1,0,.4,1.49A1.09,1.09,0,0,0,177.84,63.34Z"/><path class="cls-3" d="M170.79,65a.46.46,0,0,0-.62.17.47.47,0,0,0,.16.63.46.46,0,1,0,.46-.8Z"/><path class="cls-3" d="M173.79,48.53a1.18,1.18,0,0,0-1.18,2,1.18,1.18,0,1,0,1.18-2Z"/><path class="cls-3" d="M163,58.54a1.89,1.89,0,0,0-2.58.69,1.88,1.88,0,0,0,3.26,1.89A1.89,1.89,0,0,0,163,58.54Z"/><path class="cls-3" d="M167.64,48a.63.63,0,0,0-.87.23.64.64,0,0,0,.23.87.65.65,0,0,0,.88-.24A.63.63,0,0,0,167.64,48Z"/><path class="cls-3" d="M161.13,53a.26.26,0,1,0-.26.45.27.27,0,0,0,.36-.1A.25.25,0,0,0,161.13,53Z"/><path class="cls-3" d="M162.37,48.06a1.27,1.27,0,1,0,.46,1.74A1.26,1.26,0,0,0,162.37,48.06Z"/><path class="cls-3" d="M157.39,52.59a.2.2,0,0,0-.27.07.19.19,0,0,0,.07.27.2.2,0,1,0,.2-.34Z"/><path class="cls-3" d="M152,58.86a1.36,1.36,0,1,0-1.37,2.36A1.36,1.36,0,0,0,152,58.86Z"/><path class="cls-3" d="M152.7,37.21a1.36,1.36,0,1,0,.49,1.86A1.37,1.37,0,0,0,152.7,37.21Z"/><path class="cls-3" d="M148.67,37.9a1.16,1.16,0,1,0-1.17,2,1.16,1.16,0,1,0,1.17-2Z"/><path class="cls-3" d="M144.48,42.13a1.06,1.06,0,0,0-1.46.38,1.07,1.07,0,1,0,1.85,1.07A1.06,1.06,0,0,0,144.48,42.13Z"/><path class="cls-3" d="M139.26,51.1a.91.91,0,0,0-.91,1.57.91.91,0,0,0,.91-1.57Z"/><path class="cls-3" d="M136.51,54a1.57,1.57,0,1,0,.57,2.15A1.57,1.57,0,0,0,136.51,54Z"/><path class="cls-3" d="M140,33.23a1,1,0,0,0-1.41.37,1,1,0,1,0,1.79,1A1,1,0,0,0,140,33.23Z"/><path class="cls-3" d="M135.1,49.52a1.29,1.29,0,1,0,.47,1.76A1.28,1.28,0,0,0,135.1,49.52Z"/><path class="cls-3" d="M129.83,52.91a1.21,1.21,0,0,0-1.65.43,1.22,1.22,0,0,0,.44,1.66,1.21,1.21,0,0,0,1.21-2.09Z"/><path class="cls-3" d="M128.9,33.86a1.7,1.7,0,1,0,.61,2.33A1.7,1.7,0,0,0,128.9,33.86Z"/><path class="cls-3" d="M125.55,40.93a2.2,2.2,0,1,0,.8,3A2.19,2.19,0,0,0,125.55,40.93Z"/><path class="cls-3" d="M124.38,38.05a1.44,1.44,0,1,0,.52,2A1.45,1.45,0,0,0,124.38,38.05Z"/><path class="cls-3" d="M119.41,37.46a1.74,1.74,0,1,0,.63,2.37A1.74,1.74,0,0,0,119.41,37.46Z"/><path class="cls-3" d="M114.94,38.62a1.51,1.51,0,1,0,.55,2.07A1.51,1.51,0,0,0,114.94,38.62Z"/><path class="cls-3" d="M112.63,54a.92.92,0,1,0-.93,1.59.93.93,0,0,0,1.26-.33A.91.91,0,0,0,112.63,54Z"/><path class="cls-3" d="M107.14,39a1.09,1.09,0,1,0,.4,1.49A1.09,1.09,0,0,0,107.14,39Z"/><path class="cls-3" d="M105.9,55.64a1.39,1.39,0,0,0-1.39,2.4,1.39,1.39,0,1,0,1.39-2.4Z"/><path class="cls-3" d="M102.75,60.2a.16.16,0,0,0-.22.06.15.15,0,0,0,.06.21.16.16,0,0,0,.22-.06A.16.16,0,0,0,102.75,60.2Z"/><path class="cls-3" d="M92.85,46.36a1,1,0,1,0,.35,1.34A1,1,0,0,0,92.85,46.36Z"/><path class="cls-3" d="M89,47.94a1.94,1.94,0,1,0,.7,2.65A1.93,1.93,0,0,0,89,47.94Z"/><path class="cls-3" d="M82.64,48.72a.23.23,0,0,0-.31.08.24.24,0,0,0,.08.32.24.24,0,0,0,.32-.09A.23.23,0,0,0,82.64,48.72Z"/><path class="cls-3" d="M83.18,47.28a1.95,1.95,0,1,0,.7,2.66A1.95,1.95,0,0,0,83.18,47.28Z"/><path class="cls-3" d="M91.13,66.41a.78.78,0,1,0,.28,1.06A.77.77,0,0,0,91.13,66.41Z"/><path class="cls-3" d="M82,58.83a1.35,1.35,0,1,0,.49,1.84A1.34,1.34,0,0,0,82,58.83Z"/><path class="cls-3" d="M75.18,57.53a1.46,1.46,0,1,0-1.46,2.52,1.46,1.46,0,1,0,1.46-2.52Z"/><path class="cls-3" d="M72.08,62a1.55,1.55,0,1,0,.56,2.12A1.55,1.55,0,0,0,72.08,62Z"/><path class="cls-3" d="M77.3,72.3a.68.68,0,1,0,.25.94A.69.69,0,0,0,77.3,72.3Z"/><path class="cls-3" d="M62.48,60.64a1.62,1.62,0,1,0,.58,2.21A1.62,1.62,0,0,0,62.48,60.64Z"/><path class="cls-3" d="M75.88,75.66a.53.53,0,0,0-.72.19.52.52,0,0,0,.19.71.52.52,0,0,0,.53-.9Z"/><path class="cls-3" d="M70.71,76.17a.76.76,0,0,0-1,.27.75.75,0,0,0,1.29.75A.76.76,0,0,0,70.71,76.17Z"/><path class="cls-3" d="M60.05,68a.69.69,0,1,0,.25.94A.69.69,0,0,0,60.05,68Z"/><path class="cls-3" d="M66.84,78.37a1.39,1.39,0,1,0,.5,1.89A1.38,1.38,0,0,0,66.84,78.37Z"/><path class="cls-3" d="M55,73.23a1.43,1.43,0,0,0-1.94.51A1.42,1.42,0,1,0,55,73.23Z"/><path class="cls-3" d="M52.87,75.76a.49.49,0,0,0-.49.85.49.49,0,0,0,.67-.18A.48.48,0,0,0,52.87,75.76Z"/><path class="cls-3" d="M65.2,82.7a1.09,1.09,0,1,0,.4,1.49A1.1,1.1,0,0,0,65.2,82.7Z"/><path class="cls-3" d="M55,83a.83.83,0,1,0,.3,1.13A.82.82,0,0,0,55,83Z"/><path class="cls-3" d="M62.84,88.81a1,1,0,1,0,.35,1.33A1,1,0,0,0,62.84,88.81Z"/><path class="cls-3" d="M57,89.55a2.19,2.19,0,1,0,.79,3A2.2,2.2,0,0,0,57,89.55Z"/><path class="cls-3" d="M55.57,94a.86.86,0,0,0-1.18.31A.86.86,0,1,0,55.57,94Z"/><path class="cls-3" d="M60.13,99.57a1.93,1.93,0,1,0,.7,2.64A1.94,1.94,0,0,0,60.13,99.57Z"/><path class="cls-3" d="M60.6,100.42a1.83,1.83,0,1,0,.66,2.5A1.82,1.82,0,0,0,60.6,100.42Z"/><path class="cls-3" d="M38.8,101.56a.29.29,0,0,0-.29.5.3.3,0,0,0,.4-.1A.29.29,0,0,0,38.8,101.56Z"/><path class="cls-3" d="M45.44,105.35a1.19,1.19,0,0,0-1.19,2.06,1.19,1.19,0,1,0,1.19-2.06Z"/><path class="cls-3" d="M40.83,110.28a1,1,0,1,0,.35,1.32A1,1,0,0,0,40.83,110.28Z"/><path class="cls-3" d="M51.73,114.13a.81.81,0,1,0,.29,1.11A.82.82,0,0,0,51.73,114.13Z"/><path class="cls-3" d="M50.52,116.79a2,2,0,1,0,.74,2.78A2,2,0,0,0,50.52,116.79Z"/><path class="cls-3" d="M38.51,119.81a.81.81,0,0,0-1.11.29.82.82,0,1,0,1.11-.29Z"/><path class="cls-3" d="M41.56,120.73a.37.37,0,1,0,.13.5A.37.37,0,0,0,41.56,120.73Z"/><path class="cls-3" d="M56.94,122.39a1.54,1.54,0,1,0,.56,2.11A1.55,1.55,0,0,0,56.94,122.39Z"/><path class="cls-3" d="M50.83,126.49a1.47,1.47,0,1,0,.54,2A1.46,1.46,0,0,0,50.83,126.49Z"/><path class="cls-3" d="M58.28,132a1.66,1.66,0,1,0,.6,2.27A1.67,1.67,0,0,0,58.28,132Z"/><path class="cls-3" d="M49.51,134.13a1.42,1.42,0,1,0,.51,2A1.42,1.42,0,0,0,49.51,134.13Z"/><path class="cls-3" d="M48.71,138.46a1.73,1.73,0,1,0,.63,2.37A1.73,1.73,0,0,0,48.71,138.46Z"/><path class="cls-3" d="M42.89,144.51a.83.83,0,1,0,.3,1.13A.82.82,0,0,0,42.89,144.51Z"/><path class="cls-3" d="M43.75,143.77a2,2,0,1,0,.74,2.78A2,2,0,0,0,43.75,143.77Z"/><path class="cls-3" d="M43.23,148.53a2,2,0,1,0,.74,2.76A2,2,0,0,0,43.23,148.53Z"/><path class="cls-3" d="M44.36,153.88a1.38,1.38,0,1,0,.5,1.88A1.37,1.37,0,0,0,44.36,153.88Z"/><path class="cls-3" d="M40.84,157.2a.21.21,0,0,0-.29.08.21.21,0,0,0,.08.3.21.21,0,0,0,.29-.08A.23.23,0,0,0,40.84,157.2Z"/><path class="cls-3" d="M52.56,156.68a.26.26,0,0,0-.33.09.25.25,0,0,0,.09.34.24.24,0,0,0,.33-.09A.25.25,0,0,0,52.56,156.68Z"/><path class="cls-3" d="M47.2,166a.18.18,0,0,0-.26.07.18.18,0,0,0,.07.26.19.19,0,1,0,.19-.33Z"/><path class="cls-3" d="M55.53,163.12a1.46,1.46,0,1,0,.53,2A1.47,1.47,0,0,0,55.53,163.12Z"/><path class="cls-3" d="M54,168.05A1.1,1.1,0,0,0,52.89,170a1.11,1.11,0,0,0,1.51-.4A1.1,1.1,0,0,0,54,168.05Z"/><path class="cls-3" d="M64.89,168a.9.9,0,1,0,.32,1.22A.9.9,0,0,0,64.89,168Z"/><path class="cls-3" d="M61.46,171.46a1.76,1.76,0,1,0,.64,2.4A1.76,1.76,0,0,0,61.46,171.46Z"/><path class="cls-3" d="M73.4,167.6a1.13,1.13,0,1,0,.41,1.55A1.14,1.14,0,0,0,73.4,167.6Z"/><path class="cls-3" d="M69.45,175.8a.53.53,0,0,0-.71.19.52.52,0,0,0,.19.71.53.53,0,0,0,.71-.19A.52.52,0,0,0,69.45,175.8Z"/><path class="cls-3" d="M64.7,181.12a1,1,0,0,0-1.39.37,1,1,0,1,0,1.39-.37Z"/><path class="cls-3" d="M75.3,176.06a1,1,0,1,0,.35,1.32A1,1,0,0,0,75.3,176.06Z"/><path class="cls-3" d="M77.63,177a.63.63,0,1,0,.23.87A.63.63,0,0,0,77.63,177Z"/><path class="cls-3" d="M73.36,186.12a1.67,1.67,0,1,0,.6,2.28A1.66,1.66,0,0,0,73.36,186.12Z"/><path class="cls-3" d="M72.37,189.14a1,1,0,0,0-1.42.37,1,1,0,1,0,1.8,1.05A1,1,0,0,0,72.37,189.14Z"/><path class="cls-3" d="M77.58,188.65a.87.87,0,1,0,.32,1.19A.88.88,0,0,0,77.58,188.65Z"/><path class="cls-3" d="M82.53,186.56a.7.7,0,0,0-1,.25.7.7,0,1,0,1-.25Z"/><path class="cls-3" d="M86.27,183.13a1,1,0,1,0-1,1.71,1,1,0,0,0,1.35-.36A1,1,0,0,0,86.27,183.13Z"/><path class="cls-3" d="M78.68,199.82a.5.5,0,1,0-.51.87.52.52,0,0,0,.69-.19A.49.49,0,0,0,78.68,199.82Z"/><path class="cls-3" d="M84.62,200.67a.65.65,0,1,0,.24.89A.65.65,0,0,0,84.62,200.67Z"/><path class="cls-3" d="M96.45,185.92a1.81,1.81,0,1,0,.66,2.48A1.8,1.8,0,0,0,96.45,185.92Z"/><path class="cls-3" d="M87.19,204.41a.33.33,0,0,0-.44.12.32.32,0,0,0,.11.45.34.34,0,0,0,.45-.12A.33.33,0,0,0,87.19,204.41Z"/><path class="cls-3" d="M99.25,191.8a2.17,2.17,0,1,0,.79,3A2.16,2.16,0,0,0,99.25,191.8Z"/><path class="cls-3" d="M100.54,198.79a1.31,1.31,0,0,0-1.79.48,1.31,1.31,0,0,0,2.27,1.31A1.31,1.31,0,0,0,100.54,198.79Z"/><path class="cls-3" d="M107.24,196.81a2,2,0,1,0,.73,2.74A2,2,0,0,0,107.24,196.81Z"/><path class="cls-3" d="M107.48,203.45a1.35,1.35,0,1,0,.49,1.84A1.35,1.35,0,0,0,107.48,203.45Z"/><path class="cls-3" d="M113.21,205.06a1.16,1.16,0,1,0-1.16,2,1.16,1.16,0,1,0,1.16-2Z"/><path class="cls-3" d="M117.82,196.67a1.5,1.5,0,1,0,.55,2.05A1.5,1.5,0,0,0,117.82,196.67Z"/><path class="cls-3" d="M120,205.47a1.55,1.55,0,1,0,.56,2.13A1.56,1.56,0,0,0,120,205.47Z"/><path class="cls-3" d="M121.68,200.25a.59.59,0,0,0-.82.22.61.61,0,0,0,.22.83.59.59,0,0,0,.82-.22A.61.61,0,0,0,121.68,200.25Z"/><path class="cls-3" d="M124.73,203.69a.29.29,0,1,0,.11.4A.29.29,0,0,0,124.73,203.69Z"/><path class="cls-3" d="M128.22,211.11a.52.52,0,0,0-.71.19.53.53,0,0,0,.19.72.52.52,0,0,0,.71-.19A.53.53,0,0,0,128.22,211.11Z"/><path class="cls-3" d="M129.32,210.71a.62.62,0,0,0-.86.23.63.63,0,0,0,.23.86.63.63,0,0,0,.63-1.09Z"/><path class="cls-3" d="M131.47,208.37a1.13,1.13,0,0,0-1.13,1.95,1.13,1.13,0,1,0,1.13-1.95Z"/><path class="cls-3" d="M135.09,217a1.14,1.14,0,1,0,.42,1.56A1.14,1.14,0,0,0,135.09,217Z"/><path class="cls-3" d="M140.26,203.57a1,1,0,0,0-1.36.36,1,1,0,1,0,1.72,1A1,1,0,0,0,140.26,203.57Z"/><path class="cls-3" d="M142,194.89a.52.52,0,0,0-.71.19.53.53,0,0,0,.19.72.52.52,0,0,0,.71-.19A.53.53,0,0,0,142,194.89Z"/><path class="cls-3" d="M151.92,213.2a1.1,1.1,0,1,0,.4,1.5A1.1,1.1,0,0,0,151.92,213.2Z"/><path class="cls-3" d="M155.94,209.86a1.91,1.91,0,1,0,.69,2.62A1.9,1.9,0,0,0,155.94,209.86Z"/><path class="cls-3" d="M155.7,207.16a.4.4,0,0,0-.4.69.4.4,0,1,0,.4-.69Z"/><path class="cls-3" d="M155.79,199.14a1.47,1.47,0,0,0-2,.53,1.46,1.46,0,1,0,2-.53Z"/><path class="cls-3" d="M162.07,206a.72.72,0,1,0,.26,1A.72.72,0,0,0,162.07,206Z"/><path class="cls-3" d="M162.49,197.72a.8.8,0,1,0-.8,1.39.8.8,0,0,0,1.09-.29A.81.81,0,0,0,162.49,197.72Z"/><path class="cls-3" d="M162,189.19a.58.58,0,0,0-.79.21.58.58,0,1,0,.79-.21Z"/><path class="cls-3" d="M173,201.73a.54.54,0,1,0,.19.74A.55.55,0,0,0,173,201.73Z"/><path class="cls-3" d="M175.5,196.11a1.85,1.85,0,1,0,.68,2.54A1.85,1.85,0,0,0,175.5,196.11Z"/><path class="cls-3" d="M181.76,200.79a1.23,1.23,0,1,0,.44,1.68A1.23,1.23,0,0,0,181.76,200.79Z"/><path class="cls-3" d="M178.34,190a1.78,1.78,0,1,0,.64,2.44A1.79,1.79,0,0,0,178.34,190Z"/><path class="cls-3" d="M187.86,195.5a1.73,1.73,0,1,0,.63,2.36A1.72,1.72,0,0,0,187.86,195.5Z"/><path class="cls-3" d="M185.64,193.28a.51.51,0,1,0,.18.7A.51.51,0,0,0,185.64,193.28Z"/><path class="cls-3" d="M186.78,189.25a.86.86,0,0,0-.86,1.48.86.86,0,0,0,1.17-.32A.85.85,0,0,0,186.78,189.25Z"/><path class="cls-3" d="M180.64,182.92a.44.44,0,1,0,.16.6A.44.44,0,0,0,180.64,182.92Z"/><path class="cls-3" d="M181.12,175.47a2,2,0,1,0,.71,2.69A2,2,0,0,0,181.12,175.47Z"/><path class="cls-3" d="M185.94,176.72a1.77,1.77,0,1,0,.64,2.43A1.78,1.78,0,0,0,185.94,176.72Z"/><path class="cls-3" d="M193.9,182.71a.33.33,0,0,0-.45.12.32.32,0,0,0,.12.45.33.33,0,1,0,.33-.57Z"/><path class="cls-3" d="M194.65,178.53a2,2,0,1,0,.72,2.7A2,2,0,0,0,194.65,178.53Z"/><path class="cls-3" d="M188.38,168.9a1.91,1.91,0,1,0,.69,2.61A1.91,1.91,0,0,0,188.38,168.9Z"/><path class="cls-3" d="M191.89,166a2.26,2.26,0,1,0,.82,3.08A2.26,2.26,0,0,0,191.89,166Z"/><path class="cls-3" d="M202.76,168.92a1.63,1.63,0,1,0,.59,2.23A1.64,1.64,0,0,0,202.76,168.92Z"/><path class="cls-3" d="M193,163.82a.63.63,0,1,0-.64,1.09.63.63,0,0,0,.64-1.09Z"/><path class="cls-3" d="M189.73,159.37a1.7,1.7,0,1,0,.62,2.32A1.69,1.69,0,0,0,189.73,159.37Z"/><path class="cls-3" d="M201.64,159.66a1.85,1.85,0,1,0,.67,2.53A1.85,1.85,0,0,0,201.64,159.66Z"/><path class="cls-3" d="M197.26,153.08a1.09,1.09,0,0,0-1.09,1.89,1.09,1.09,0,0,0,1.09-1.89Z"/><path class="cls-3" d="M209.73,154.1a2.13,2.13,0,1,0,.78,2.91A2.13,2.13,0,0,0,209.73,154.1Z"/><path class="cls-3" d="M206.17,149.22a.16.16,0,0,0-.23.06.17.17,0,1,0,.29.17A.16.16,0,0,0,206.17,149.22Z"/><path class="cls-3" d="M195.4,141.86a.61.61,0,1,0,.22.84A.62.62,0,0,0,195.4,141.86Z"/><path class="cls-3" d="M209,139.2a1.13,1.13,0,0,0-1.55.41,1.13,1.13,0,0,0,2,1.14A1.14,1.14,0,0,0,209,139.2Z"/><path class="cls-3" d="M217.92,137.3a1.34,1.34,0,1,0,.49,1.84A1.34,1.34,0,0,0,217.92,137.3Z"/><path class="cls-3" d="M208.58,130.87a.52.52,0,1,0,.19.71A.53.53,0,0,0,208.58,130.87Z"/><path class="cls-3" d="M210.51,129.76a.37.37,0,1,0,.13.49A.36.36,0,0,0,210.51,129.76Z"/><path class="cls-3" d="M218.4,126.43a1,1,0,0,0-1.42.38,1,1,0,1,0,1.42-.38Z"/><path class="cls-3" d="M206.85,120.56a1.16,1.16,0,1,0,.42,1.59A1.17,1.17,0,0,0,206.85,120.56Z"/><path class="cls-3" d="M213.68,118.38a1.62,1.62,0,1,0,.59,2.22A1.64,1.64,0,0,0,213.68,118.38Z"/><path class="cls-3" d="M198.22,117.77a.27.27,0,1,0,.1.37A.27.27,0,0,0,198.22,117.77Z"/><path class="cls-3" d="M219.06,113.07a1.25,1.25,0,1,0,.46,1.7A1.25,1.25,0,0,0,219.06,113.07Z"/><circle class="cls-4" cx="128.08" cy="128.08" r="128.08"/></g><g class="cls-5"><g id="forme_1"><path class="cls-3" d="M146.43,214.47a.8.8,0,1,1-1.12.12A.79.79,0,0,1,146.43,214.47Z"/><path class="cls-3" d="M127.23,207.79a.79.79,0,0,1,.12,1.12.8.8,0,1,1-.12-1.12Z"/><path class="cls-3" d="M137.27,200.31a.8.8,0,1,1-1.13.13A.82.82,0,0,1,137.27,200.31Z"/><path class="cls-3" d="M155.74,215.49a.82.82,0,0,1,.13,1.13.81.81,0,0,1-1.13.12.79.79,0,0,1-.12-1.12A.8.8,0,0,1,155.74,215.49Z"/><path class="cls-3" d="M121,213.79a1,1,0,1,1-1.22,1.54,1,1,0,0,1-.16-1.38A1,1,0,0,1,121,213.79Z"/><path class="cls-3" d="M136.54,213.14a1,1,0,0,1,.15,1.38,1,1,0,0,1-1.38.15,1,1,0,1,1,1.23-1.53Z"/><path class="cls-3" d="M153,206a1,1,0,1,1-1.22,1.54,1,1,0,0,1-.16-1.38A1,1,0,0,1,153,206Z"/><path class="cls-3" d="M148.57,224.34a1,1,0,0,1,.15,1.39,1,1,0,0,1-1.54-1.23A1,1,0,0,1,148.57,224.34Z"/><path class="cls-3" d="M165.64,215.07a1,1,0,1,1-1.38.16A1,1,0,0,1,165.64,215.07Z"/><path class="cls-3" d="M127.18,182.78a.81.81,0,0,1-.3,1.1.8.8,0,1,1-.78-1.4A.79.79,0,0,1,127.18,182.78Z"/><path class="cls-3" d="M137.44,169.08a.8.8,0,1,1-1.09-.3A.79.79,0,0,1,137.44,169.08Z"/><path class="cls-3" d="M145.68,173.52a.8.8,0,0,1-.3,1.09.81.81,0,0,1-1.09-.3.8.8,0,0,1,1.39-.79Z"/><path class="cls-3" d="M158.51,193.23a.8.8,0,0,1-1.39.79.8.8,0,1,1,1.39-.79Z"/><path class="cls-3" d="M116.79,176.07a1,1,0,1,1-1.34-.37A1,1,0,0,1,116.79,176.07Z"/><path class="cls-3" d="M128.76,164.14a1,1,0,1,1-1.34-.37A1,1,0,0,1,128.76,164.14Z"/><path class="cls-3" d="M146.66,163.72a1,1,0,1,1-1.34-.37A1,1,0,0,1,146.66,163.72Z"/><path class="cls-3" d="M161.69,160.84a1,1,0,1,1-1.34-.37A1,1,0,0,1,161.69,160.84Z"/><path class="cls-3" d="M135.72,179a1,1,0,0,1-1.72,1,1,1,0,0,1,1.72-1Z"/><path class="cls-3" d="M112.28,192.28a1,1,0,1,1-1.34-.37A1,1,0,0,1,112.28,192.28Z"/><path class="cls-3" d="M129,194.2a1,1,0,1,1-1.34-.37A1,1,0,0,1,129,194.2Z"/><path class="cls-3" d="M147.13,191.3a1,1,0,1,1-1.34-.38A1,1,0,0,1,147.13,191.3Z"/><path class="cls-3" d="M155,176.84a1,1,0,1,1-1.34-.38A1,1,0,0,1,155,176.84Z"/><path class="cls-3" d="M168.13,182.39a1,1,0,0,1-.37,1.34,1,1,0,1,1-1-1.71A1,1,0,0,1,168.13,182.39Z"/><path class="cls-3" d="M161.66,201.81a1,1,0,1,1-1.33-.37A1,1,0,0,1,161.66,201.81Z"/><path class="cls-3" d="M172.14,167.46a.79.79,0,0,1-.3,1.09.8.8,0,1,1,.3-1.09Z"/><path class="cls-3" d="M182.4,153.76a.8.8,0,0,1-1.39.78.8.8,0,1,1,1.39-.78Z"/><path class="cls-3" d="M166.27,139.41a.8.8,0,0,1-.3,1.09.79.79,0,0,1-1.09-.31.8.8,0,1,1,1.39-.78Z"/><path class="cls-3" d="M179.21,137.21a.8.8,0,0,1-1.4.78.81.81,0,0,1,.31-1.09A.8.8,0,0,1,179.21,137.21Z"/><path class="cls-3" d="M190.64,158.2a.78.78,0,0,1-.3,1.08.8.8,0,1,1,.3-1.08Z"/><path class="cls-3" d="M203.47,177.91a.8.8,0,1,1-1.09-.31A.81.81,0,0,1,203.47,177.91Z"/><path class="cls-3" d="M173.48,128a1,1,0,1,1-1.35-.37A1,1,0,0,1,173.48,128Z"/><path class="cls-3" d="M157.65,142a1,1,0,1,1-1.34-.37A1,1,0,0,1,157.65,142Z"/><path class="cls-3" d="M148.23,149.64a1,1,0,1,1-1.34-.37A1,1,0,0,1,148.23,149.64Z"/><path class="cls-3" d="M161.75,160.75a1,1,0,1,1-1.71,1,1,1,0,0,1,.37-1.33A1,1,0,0,1,161.75,160.75Z"/><path class="cls-3" d="M173.72,148.82a1,1,0,1,1-1.34-.37A1,1,0,0,1,173.72,148.82Z"/><path class="cls-3" d="M192.24,134.34a1,1,0,1,1-1.34-.37A1,1,0,0,1,192.24,134.34Z"/><path class="cls-3" d="M191.62,148.4a1,1,0,0,1-.37,1.34,1,1,0,1,1,.37-1.34Z"/><path class="cls-3" d="M206.65,145.52a1,1,0,1,1-1.34-.37A1,1,0,0,1,206.65,145.52Z"/><path class="cls-3" d="M180.68,163.71a1,1,0,1,1-1.34-.37A1,1,0,0,1,180.68,163.71Z"/><path class="cls-3" d="M173.91,178.88a1,1,0,1,1-1.34-.37A1,1,0,0,1,173.91,178.88Z"/><path class="cls-3" d="M192.09,176a1,1,0,1,1-1.71,1,1,1,0,0,1,1.71-1Z"/><path class="cls-3" d="M200,161.51a1,1,0,0,1-.37,1.34,1,1,0,1,1,.37-1.34Z"/><path class="cls-3" d="M213.1,167.07a1,1,0,1,1-1.34-.37A1,1,0,0,1,213.1,167.07Z"/><path class="cls-3" d="M206.63,186.49a1,1,0,0,1-1.72,1,1,1,0,0,1,1.72-1Z"/><path class="cls-3" d="M106.91,29.15a.8.8,0,0,1-.13-1.12A.8.8,0,1,1,108,29,.8.8,0,0,1,106.91,29.15Z"/><path class="cls-3" d="M102.53,45.7a.79.79,0,0,1-.12-1.12.8.8,0,1,1,.12,1.12Z"/><path class="cls-3" d="M121.74,52.38a.8.8,0,0,1-.13-1.12.8.8,0,1,1,1.25,1A.79.79,0,0,1,121.74,52.38Z"/><path class="cls-3" d="M111.69,59.85a.8.8,0,1,1,1.13-.12A.81.81,0,0,1,111.69,59.85Z"/><path class="cls-3" d="M93.22,44.68a.8.8,0,0,1,1-1.26.8.8,0,0,1-1,1.26Z"/><path class="cls-3" d="M74,31.21a.81.81,0,0,1-.13-1.13A.8.8,0,0,1,74.94,30a.79.79,0,0,1,.13,1.12A.81.81,0,0,1,74,31.21Z"/><path class="cls-3" d="M128,46.37a1,1,0,1,1,1.38-.15A1,1,0,0,1,128,46.37Z"/><path class="cls-3" d="M119.06,31.49a1,1,0,1,1,1.38-.16A1,1,0,0,1,119.06,31.49Z"/><path class="cls-3" d="M112.43,47a1,1,0,1,1,1.38-.16A1,1,0,0,1,112.43,47Z"/><path class="cls-3" d="M96,54.13a1,1,0,0,1-.15-1.39A1,1,0,1,1,97.37,54,1,1,0,0,1,96,54.13Z"/><path class="cls-3" d="M100.4,35.83a1,1,0,1,1,1.22-1.54,1,1,0,0,1,.16,1.38A1,1,0,0,1,100.4,35.83Z"/><path class="cls-3" d="M117.16,14.76a1,1,0,1,1,1.38-.15A1,1,0,0,1,117.16,14.76Z"/><path class="cls-3" d="M101,19.23a1,1,0,0,1,1.23-1.54,1,1,0,0,1,.15,1.39A1,1,0,0,1,101,19.23Z"/><path class="cls-3" d="M85.22,28.73a1,1,0,1,1,1.38-.15A1,1,0,0,1,85.22,28.73Z"/><path class="cls-3" d="M83.33,45.1a1,1,0,1,1,1.22-1.54,1,1,0,0,1-1.22,1.54Z"/><path class="cls-3" d="M69.08,44.86a1,1,0,0,1,1.23-1.54,1,1,0,0,1,.16,1.39A1,1,0,0,1,69.08,44.86Z"/><path class="cls-3" d="M67.81,24.43A1,1,0,1,1,69,22.89a1,1,0,1,1-1.22,1.54Z"/><path class="cls-3" d="M121.78,77.39a.8.8,0,0,1,.3-1.09.79.79,0,0,1,1.09.3.8.8,0,1,1-1.39.79Z"/><path class="cls-3" d="M111.53,91.09a.8.8,0,1,1,1.09.31A.8.8,0,0,1,111.53,91.09Z"/><path class="cls-3" d="M103.28,86.65a.8.8,0,0,1,.3-1.09.8.8,0,0,1,.79,1.4A.81.81,0,0,1,103.28,86.65Z"/><path class="cls-3" d="M90.46,66.94a.8.8,0,1,1,1.09.3A.79.79,0,0,1,90.46,66.94Z"/><path class="cls-3" d="M132.17,84.1a1,1,0,0,1,.38-1.34,1,1,0,0,1,1,1.71A1,1,0,0,1,132.17,84.1Z"/><path class="cls-3" d="M120.2,96a1,1,0,1,1,1.34.37A1,1,0,0,1,120.2,96Z"/><path class="cls-3" d="M102.31,96.45a1,1,0,1,1,1.34.37A1,1,0,0,1,102.31,96.45Z"/><path class="cls-3" d="M87.27,99.33A1,1,0,0,1,87.64,98a1,1,0,0,1,1.35.38,1,1,0,0,1-1.72,1Z"/><path class="cls-3" d="M113.25,81.13a1,1,0,1,1,1.71-1,1,1,0,0,1-1.71,1Z"/><path class="cls-3" d="M136.68,67.88a1,1,0,0,1,1.71-1,1,1,0,1,1-1.71,1Z"/><path class="cls-3" d="M120,66a1,1,0,1,1,1.33.37A1,1,0,0,1,120,66Z"/><path class="cls-3" d="M101.83,68.87a1,1,0,1,1,1.34.38A1,1,0,0,1,101.83,68.87Z"/><path class="cls-3" d="M94,83.33A1,1,0,0,1,94.32,82,1,1,0,1,1,94,83.33Z"/><path class="cls-3" d="M80.83,77.78a1,1,0,1,1,1.34.37A1,1,0,0,1,80.83,77.78Z"/><path class="cls-3" d="M87.3,58.36a1,1,0,1,1,1.34.37A1,1,0,0,1,87.3,58.36Z"/><path class="cls-3" d="M76.82,92.71a.8.8,0,1,1,1.09.3A.8.8,0,0,1,76.82,92.71Z"/><path class="cls-3" d="M66.57,106.41a.8.8,0,0,1,1.39-.78.8.8,0,1,1-1.39.78Z"/><path class="cls-3" d="M82.7,120.76a.79.79,0,0,1,.3-1.09.81.81,0,0,1,1.09.31.79.79,0,0,1-.31,1.08A.78.78,0,0,1,82.7,120.76Z"/><path class="cls-3" d="M69.76,123a.79.79,0,0,1,.3-1.08.8.8,0,1,1-.3,1.08Z"/><path class="cls-3" d="M58.32,102a.8.8,0,1,1,1.39-.78.8.8,0,0,1-1.39.78Z"/><path class="cls-3" d="M45.49,82.26a.8.8,0,1,1,1.09.31A.81.81,0,0,1,45.49,82.26Z"/><path class="cls-3" d="M75.49,132.16a1,1,0,1,1,1.34.37A1,1,0,0,1,75.49,132.16Z"/><path class="cls-3" d="M91.31,118.18a1,1,0,1,1,1.34.37A1,1,0,0,1,91.31,118.18Z"/><path class="cls-3" d="M100.74,110.53a1,1,0,1,1,1.34.37A1,1,0,0,1,100.74,110.53Z"/><path class="cls-3" d="M87.21,99.42a1,1,0,0,1,.37-1.34,1,1,0,0,1,1.34.38,1,1,0,0,1-1.71,1Z"/><path class="cls-3" d="M75.24,111.35a1,1,0,0,1,.38-1.34,1,1,0,0,1,1,1.71A1,1,0,0,1,75.24,111.35Z"/><path class="cls-3" d="M56.72,125.83a1,1,0,1,1,1.34.37A1,1,0,0,1,56.72,125.83Z"/><path class="cls-3" d="M57.34,111.77a1,1,0,1,1,1.35.37A1,1,0,0,1,57.34,111.77Z"/><path class="cls-3" d="M42.31,114.65a1,1,0,1,1,1.34.37A1,1,0,0,1,42.31,114.65Z"/><path class="cls-3" d="M68.29,96.45a1,1,0,1,1,1.34.38A1,1,0,0,1,68.29,96.45Z"/><path class="cls-3" d="M75.05,81.29A1,1,0,0,1,75.43,80a1,1,0,1,1-.38,1.34Z"/><path class="cls-3" d="M56.87,84.19a1,1,0,1,1,1.34.38A1,1,0,0,1,56.87,84.19Z"/><path class="cls-3" d="M49,98.66a1,1,0,1,1,1.34.37A1,1,0,0,1,49,98.66Z"/><path class="cls-3" d="M35.87,93.1a1,1,0,1,1,1.34.37A1,1,0,0,1,35.87,93.1Z"/><path class="cls-3" d="M42.34,73.68a1,1,0,1,1,1.34.37A1,1,0,0,1,42.34,73.68Z"/><path class="cls-3" d="M234.07,110.85a.8.8,0,1,1,.13,1.12A.8.8,0,0,1,234.07,110.85Z"/><path class="cls-3" d="M217.52,106.47a.81.81,0,0,1,1.13-.12.8.8,0,0,1-1,1.25A.82.82,0,0,1,217.52,106.47Z"/><path class="cls-3" d="M210.84,125.68a.8.8,0,1,1,.13,1.12A.8.8,0,0,1,210.84,125.68Z"/><path class="cls-3" d="M203.37,115.63a.8.8,0,0,1,1.12-.12.79.79,0,1,1-1.12.12Z"/><path class="cls-3" d="M218.55,97.16a.8.8,0,0,1,1.25,1,.8.8,0,1,1-1.25-1Z"/><path class="cls-3" d="M216.85,132a1,1,0,0,1,1.39-.16,1,1,0,1,1-1.39.16Z"/><path class="cls-3" d="M231.74,123a1,1,0,0,1,1.54,1.22,1,1,0,1,1-1.54-1.22Z"/><path class="cls-3" d="M216.2,116.37a1,1,0,0,1,1.38-.16,1,1,0,1,1-1.38.16Z"/><path class="cls-3" d="M209.1,99.93a1,1,0,1,1,.16,1.38A1,1,0,0,1,209.1,99.93Z"/><path class="cls-3" d="M227.4,104.34a1,1,0,1,1,1.54,1.22,1,1,0,1,1-1.54-1.22Z"/><path class="cls-3" d="M244,104.93a1,1,0,1,1,1.53,1.23,1,1,0,1,1-1.53-1.23Z"/><path class="cls-3" d="M234.49,89.16a1,1,0,0,1,1.39-.16,1,1,0,0,1,.15,1.39,1,1,0,0,1-1.38.15A1,1,0,0,1,234.49,89.16Z"/><path class="cls-3" d="M218.13,87.26a1,1,0,1,1,.16,1.39A1,1,0,0,1,218.13,87.26Z"/><path class="cls-3" d="M185.84,125.72a.8.8,0,1,1-.3,1.09A.8.8,0,0,1,185.84,125.72Z"/><path class="cls-3" d="M172.13,115.47a.8.8,0,1,1-.3,1.08A.8.8,0,0,1,172.13,115.47Z"/><path class="cls-3" d="M176.58,107.22a.8.8,0,1,1-.31,1.09A.8.8,0,0,1,176.58,107.22Z"/><path class="cls-3" d="M196.29,94.4a.8.8,0,1,1-.31,1.08A.79.79,0,0,1,196.29,94.4Z"/><path class="cls-3" d="M179.13,136.11a1,1,0,1,1-.38,1.34A1,1,0,0,1,179.13,136.11Z"/><path class="cls-3" d="M167.2,124.14a1,1,0,0,1,1.34.37,1,1,0,1,1-1.34-.37Z"/><path class="cls-3" d="M166.78,106.25a1,1,0,1,1-.37,1.33A1,1,0,0,1,166.78,106.25Z"/><path class="cls-3" d="M163.9,91.21a1,1,0,1,1-.37,1.34A1,1,0,0,1,163.9,91.21Z"/><path class="cls-3" d="M182.09,117.19a1,1,0,1,1-.37,1.34A1,1,0,0,1,182.09,117.19Z"/><path class="cls-3" d="M195.34,140.62a1,1,0,0,1,1,1.71,1,1,0,0,1-1-1.71Z"/><path class="cls-3" d="M197.26,124a1,1,0,1,1-.37,1.34A1,1,0,0,1,197.26,124Z"/><path class="cls-3" d="M194.36,105.77a1,1,0,1,1-.38,1.34A1,1,0,0,1,194.36,105.77Z"/><path class="cls-3" d="M179.9,97.88a1,1,0,1,1-.38,1.34A1,1,0,0,1,179.9,97.88Z"/><path class="cls-3" d="M185.45,84.76a1,1,0,0,1,1.34.38,1,1,0,1,1-1.34-.38Z"/><path class="cls-3" d="M204.87,91.24a1,1,0,1,1-.37,1.34A1,1,0,0,1,204.87,91.24Z"/><path class="cls-3" d="M170.52,80.76a.8.8,0,1,1-.3,1.09A.8.8,0,0,1,170.52,80.76Z"/><path class="cls-3" d="M156.81,70.5a.8.8,0,1,1-.3,1.09A.81.81,0,0,1,156.81,70.5Z"/><path class="cls-3" d="M142.47,86.63a.79.79,0,0,1,1.08.31.8.8,0,1,1-1.08-.31Z"/><path class="cls-3" d="M140.26,73.7a.8.8,0,1,1-.3,1.09A.8.8,0,0,1,140.26,73.7Z"/><path class="cls-3" d="M161.25,62.26a.8.8,0,1,1-.3,1.09A.8.8,0,0,1,161.25,62.26Z"/><path class="cls-3" d="M181,49.43a.79.79,0,0,1,1.08.31.8.8,0,1,1-1.08-.31Z"/><path class="cls-3" d="M131.07,79.43a1,1,0,1,1-.37,1.34A1,1,0,0,1,131.07,79.43Z"/><path class="cls-3" d="M145.05,95.25A1,1,0,1,1,146,97a1,1,0,0,1-1-1.72Z"/><path class="cls-3" d="M152.7,104.68a1,1,0,1,1-.37,1.34A1,1,0,0,1,152.7,104.68Z"/><path class="cls-3" d="M163.8,91.15a1,1,0,1,1-.37,1.34A1,1,0,0,1,163.8,91.15Z"/><path class="cls-3" d="M151.88,79.18a1,1,0,1,1,1,1.71,1,1,0,0,1-1-1.71Z"/><path class="cls-3" d="M137.4,60.66a1,1,0,1,1,1,1.71A1,1,0,0,1,137,62,1,1,0,0,1,137.4,60.66Z"/><path class="cls-3" d="M151.46,61.28a1,1,0,1,1-.38,1.34A1,1,0,0,1,151.46,61.28Z"/><path class="cls-3" d="M148.58,46.25a1,1,0,1,1-.37,1.34A1,1,0,0,1,148.58,46.25Z"/><path class="cls-3" d="M166.77,72.23a1,1,0,1,1,1,1.71,1,1,0,0,1-1.34-.37A1,1,0,0,1,166.77,72.23Z"/><path class="cls-3" d="M181.94,79a1,1,0,1,1-.37,1.34A1,1,0,0,1,181.94,79Z"/><path class="cls-3" d="M179,60.81a1,1,0,0,1,1.34.38,1,1,0,1,1-1.34-.38Z"/><path class="cls-3" d="M164.57,52.92a1,1,0,1,1-.37,1.34A1,1,0,0,1,164.57,52.92Z"/><path class="cls-3" d="M170.13,39.81a1,1,0,1,1,1,1.71,1,1,0,0,1-1-1.71Z"/><path class="cls-3" d="M189.55,46.28a1,1,0,1,1-.38,1.34A1,1,0,0,1,189.55,46.28Z"/><path class="cls-3" d="M29.78,156.55a.8.8,0,1,1-1.25-1,.79.79,0,0,1,1.12-.12A.81.81,0,0,1,29.78,156.55Z"/><path class="cls-3" d="M46.33,160.92a.81.81,0,0,1-1.13.13.8.8,0,0,1-.12-1.12.79.79,0,0,1,1.12-.13A.8.8,0,0,1,46.33,160.92Z"/><path class="cls-3" d="M53,141.72a.8.8,0,1,1-1.25-1,.79.79,0,0,1,1.12-.12A.8.8,0,0,1,53,141.72Z"/><path class="cls-3" d="M60.48,151.76a.81.81,0,0,1-1.13.13.8.8,0,0,1-.12-1.12.79.79,0,0,1,1.12-.13A.81.81,0,0,1,60.48,151.76Z"/><path class="cls-3" d="M45.3,170.23a.8.8,0,0,1-1.12.13.8.8,0,0,1,1-1.25A.8.8,0,0,1,45.3,170.23Z"/><path class="cls-3" d="M47,135.45a1,1,0,1,1-.16-1.39A1,1,0,0,1,47,135.45Z"/><path class="cls-3" d="M32.11,144.4A1,1,0,1,1,32,143,1,1,0,0,1,32.11,144.4Z"/><path class="cls-3" d="M47.65,151a1,1,0,1,1-.15-1.38A1,1,0,0,1,47.65,151Z"/><path class="cls-3" d="M54.75,167.47a1,1,0,1,1-.16-1.39A1,1,0,0,1,54.75,167.47Z"/><path class="cls-3" d="M36.45,163.06a1,1,0,0,1-1.39.15,1,1,0,0,1-.15-1.38,1,1,0,1,1,1.54,1.23Z"/><path class="cls-3" d="M19.85,162.47a1,1,0,0,1-1.38.15,1,1,0,0,1-.16-1.38,1,1,0,0,1,1.39-.16A1,1,0,0,1,19.85,162.47Z"/><path class="cls-3" d="M29.35,178.23a1,1,0,1,1-.15-1.38A1,1,0,0,1,29.35,178.23Z"/><path class="cls-3" d="M45.72,180.13a1,1,0,0,1-1.38.16,1,1,0,1,1,1.38-.16Z"/><path class="cls-3" d="M78,141.68a.8.8,0,0,1-1.09-.31.8.8,0,0,1,1.39-.78A.8.8,0,0,1,78,141.68Z"/><path class="cls-3" d="M91.72,151.93a.8.8,0,1,1,.3-1.09A.81.81,0,0,1,91.72,151.93Z"/><path class="cls-3" d="M87.27,160.18a.81.81,0,0,1-1.09-.31.8.8,0,0,1,1.4-.78A.81.81,0,0,1,87.27,160.18Z"/><path class="cls-3" d="M67.56,173a.8.8,0,1,1,.31-1.09A.8.8,0,0,1,67.56,173Z"/><path class="cls-3" d="M84.72,131.28A1,1,0,1,1,85.1,130,1,1,0,0,1,84.72,131.28Z"/><path class="cls-3" d="M96.65,143.25a1,1,0,1,1-1-1.71,1,1,0,0,1,1,1.71Z"/><path class="cls-3" d="M97.07,161.15a1,1,0,1,1,.37-1.34A1,1,0,0,1,97.07,161.15Z"/><path class="cls-3" d="M100,176.18a1,1,0,0,1-1-1.71,1,1,0,0,1,1.34.37A1,1,0,0,1,100,176.18Z"/><path class="cls-3" d="M81.76,150.21a1,1,0,1,1,.37-1.34A1,1,0,0,1,81.76,150.21Z"/><path class="cls-3" d="M68.51,126.78a1,1,0,1,1,.37-1.34A1,1,0,0,1,68.51,126.78Z"/><path class="cls-3" d="M66.59,143.44A1,1,0,1,1,67,142.1,1,1,0,0,1,66.59,143.44Z"/><path class="cls-3" d="M69.49,161.62a1,1,0,1,1,.38-1.34A1,1,0,0,1,69.49,161.62Z"/><path class="cls-3" d="M84,169.51a1,1,0,1,1,.37-1.34A1,1,0,0,1,84,169.51Z"/><path class="cls-3" d="M78.4,182.63a1,1,0,0,1-1-1.72,1,1,0,0,1,1,1.72Z"/><path class="cls-3" d="M59,176.16a1,1,0,0,1-1.34-.38,1,1,0,0,1,1.71-1A1,1,0,0,1,59,176.16Z"/><path class="cls-3" d="M93.33,186.64a.81.81,0,0,1-1.09-.31.8.8,0,0,1,1.39-.78A.8.8,0,0,1,93.33,186.64Z"/><path class="cls-3" d="M107,196.89a.79.79,0,0,1-1.08-.3.8.8,0,1,1,1.08.3Z"/><path class="cls-3" d="M121.38,180.76a.8.8,0,0,1-.78-1.39.8.8,0,1,1,.78,1.39Z"/><path class="cls-3" d="M123.59,193.7a.81.81,0,0,1-1.09-.3.8.8,0,1,1,1.09.3Z"/><path class="cls-3" d="M102.59,205.14a.8.8,0,1,1,.31-1.09A.81.81,0,0,1,102.59,205.14Z"/><path class="cls-3" d="M82.89,218a.8.8,0,1,1,.3-1.09A.8.8,0,0,1,82.89,218Z"/><path class="cls-3" d="M132.78,188a1,1,0,0,1-1.34-.38,1,1,0,1,1,1.34.38Z"/><path class="cls-3" d="M118.8,172.14a1,1,0,1,1,.38-1.34A1,1,0,0,1,118.8,172.14Z"/><path class="cls-3" d="M111.15,162.72a1,1,0,0,1-1.34-.37,1,1,0,1,1,1.34.37Z"/><path class="cls-3" d="M100,176.24a1,1,0,0,1-1.33-.37,1,1,0,1,1,1.71-1A1,1,0,0,1,100,176.24Z"/><path class="cls-3" d="M112,188.21a1,1,0,1,1,.38-1.33A1,1,0,0,1,112,188.21Z"/><path class="cls-3" d="M126.45,206.74a1,1,0,1,1,.37-1.34A1,1,0,0,1,126.45,206.74Z"/><path class="cls-3" d="M112.39,206.11a1,1,0,1,1,.38-1.34A1,1,0,0,1,112.39,206.11Z"/><path class="cls-3" d="M115.27,221.15a1,1,0,0,1-1-1.72,1,1,0,0,1,1.34.38A1,1,0,0,1,115.27,221.15Z"/><path class="cls-3" d="M97.08,195.17a1,1,0,1,1,.37-1.34A1,1,0,0,1,97.08,195.17Z"/><path class="cls-3" d="M81.91,188.4a1,1,0,1,1,.37-1.34A1,1,0,0,1,81.91,188.4Z"/><path class="cls-3" d="M84.81,206.58a1,1,0,0,1-1.34-.37,1,1,0,0,1,.38-1.34,1,1,0,1,1,1,1.71Z"/><path class="cls-3" d="M99.28,214.47a1,1,0,1,1,.37-1.34A1,1,0,0,1,99.28,214.47Z"/><path class="cls-3" d="M74.3,221.12a1,1,0,1,1-1-1.71,1,1,0,0,1,1,1.71Z"/><circle class="cls-4" cx="128.08" cy="128.08" r="128.08"/></g></g></g></g></g></svg>