<svg xmlns="http://www.w3.org/2000/svg" xmlns:xlink="http://www.w3.org/1999/xlink" viewBox="0 0 256.15 256.15"><defs><style>.cls-1{fill:url(#radial-gradient);}.cls-2{opacity:0.5;}.cls-3{fill:#f18700;}.cls-4{fill:none;}.cls-5{mask:url(#mask);}.cls-6{filter:url(#luminosity-noclip);}#forme_1 {
    transform-origin: 50% 50%;
    animation: turn 100s linear infinite;
}
#forme_2 {
    transform-origin: 50% 50%;
    animation: turnReverse 50s linear infinite;
}
#forme_3{
    transform-origin: 50% 50%;
    animation: turn 50s linear infinite;
}
@keyframes turn {
    0% {
        transform: rotate(0deg);
    }
    
    100% {
        transform: rotate(360deg);
    }
}
@keyframes turnReverse {
    0% {
        transform: rotate(0deg);
    }
    100% {
        transform: rotate(-360deg);
    }
}</style><radialGradient id="radial-gradient" cx="116.35" cy="-437.36" r="140.88" gradientTransform="translate(359.5 516.87) rotate(-45)" gradientUnits="userSpaceOnUse"><stop offset="0.32"/><stop offset="0.73" stop-color="#fff"/></radialGradient><filter id="luminosity-noclip" x="-10.06" y="-15.54" width="281.75" height="281.75" filterUnits="userSpaceOnUse" color-interpolation-filters="sRGB"><feFlood flood-color="#fff" result="bg"/><feBlend in="SourceGraphic" in2="bg"/></filter><mask id="mask" x="-10.06" y="-15.54" width="281.75" height="281.75" maskUnits="userSpaceOnUse"><g class="cls-6"><circle class="cls-1" cx="130.82" cy="125.34" r="140.88" transform="translate(-50.31 129.22) rotate(-45)"/></g></mask></defs><g id="Calque_2" data-name="Calque 2"><g id="Calque_1-2" data-name="Calque 1"><g id="neutre"><g id="forme_3" class="cls-2"><path class="cls-3" d="M159.61,47.32a1.92,1.92,0,1,0,2.57.87A1.92,1.92,0,0,0,159.61,47.32Z"/><path class="cls-3" d="M155.85,53.51a1.69,1.69,0,1,0,2.27.77A1.7,1.7,0,0,0,155.85,53.51Z"/><path class="cls-3" d="M156.64,45.52a.54.54,0,1,0,.49,1,.54.54,0,0,0,.24-.73A.54.54,0,0,0,156.64,45.52Z"/><path class="cls-3" d="M148.4,55.89a1,1,0,1,0,1.33.45A1,1,0,0,0,148.4,55.89Z"/><path class="cls-3" d="M147,49.81a.49.49,0,1,0,.44.87.49.49,0,1,0-.44-.87Z"/><path class="cls-3" d="M138.06,58.58a1.61,1.61,0,1,0,1.43,2.89,1.6,1.6,0,0,0,.73-2.16A1.62,1.62,0,0,0,138.06,58.58Z"/><path class="cls-3" d="M139.21,53.32a1.82,1.82,0,1,0,2.44.82A1.83,1.83,0,0,0,139.21,53.32Z"/><path class="cls-3" d="M136.82,57.17a.55.55,0,0,0-.25.74.55.55,0,1,0,1-.49A.55.55,0,0,0,136.82,57.17Z"/><path class="cls-3" d="M132,50.09a2.09,2.09,0,1,0,2.81.95A2.1,2.1,0,0,0,132,50.09Z"/><path class="cls-3" d="M128.71,49.69a.8.8,0,1,0,1.07.36A.81.81,0,0,0,128.71,49.69Z"/><path class="cls-3" d="M124.84,56.33a1.64,1.64,0,1,0,2.2.74A1.64,1.64,0,0,0,124.84,56.33Z"/><path class="cls-3" d="M122,48.83a1.14,1.14,0,1,0,1.53.52A1.14,1.14,0,0,0,122,48.83Z"/><path class="cls-3" d="M116.72,45.1a1.38,1.38,0,1,0,1.86.62A1.38,1.38,0,0,0,116.72,45.1Z"/><path class="cls-3" d="M114.81,57.07a1.84,1.84,0,1,0,2.46.83A1.83,1.83,0,0,0,114.81,57.07Z"/><path class="cls-3" d="M111,47.93a1.66,1.66,0,1,0,2.23.75A1.67,1.67,0,0,0,111,47.93Z"/><path class="cls-3" d="M105.85,45.89a.5.5,0,0,0-.22.66.48.48,0,0,0,.65.22.47.47,0,0,0,.22-.65A.49.49,0,0,0,105.85,45.89Z"/><path class="cls-3" d="M105.07,56.32a1,1,0,1,0,1.36.46A1,1,0,0,0,105.07,56.32Z"/><path class="cls-3" d="M102.78,62.65a.43.43,0,1,0,.37.77.42.42,0,0,0,.19-.57A.41.41,0,0,0,102.78,62.65Z"/><path class="cls-3" d="M91.53,51.86a1.09,1.09,0,1,0,1.46.5A1.09,1.09,0,0,0,91.53,51.86Z"/><path class="cls-3" d="M93.75,65.35a1.75,1.75,0,1,0,2.34.79A1.75,1.75,0,0,0,93.75,65.35Z"/><path class="cls-3" d="M87.94,56.34a.6.6,0,0,0,.53,1.07.6.6,0,1,0-.53-1.07Z"/><path class="cls-3" d="M88.49,64a.25.25,0,0,0-.11.33.24.24,0,0,0,.32.11.25.25,0,0,0,.11-.33A.24.24,0,0,0,88.49,64Z"/><path class="cls-3" d="M85.29,60.46a1.2,1.2,0,0,0-.53,1.59,1.18,1.18,0,1,0,2.12-1A1.2,1.2,0,0,0,85.29,60.46Z"/><path class="cls-3" d="M86.25,66.64a.19.19,0,0,0-.08.25.2.2,0,0,0,.25.09.19.19,0,0,0,.08-.25A.19.19,0,0,0,86.25,66.64Z"/><path class="cls-3" d="M88.33,74.06a1.27,1.27,0,1,0,1.7.57A1.27,1.27,0,0,0,88.33,74.06Z"/><path class="cls-3" d="M71.93,62.39a1.27,1.27,0,1,0,1.7.58A1.28,1.28,0,0,0,71.93,62.39Z"/><path class="cls-3" d="M70.4,65.87a1.07,1.07,0,0,0-.49,1.45,1.09,1.09,0,0,0,1.45.49,1.1,1.1,0,0,0,.49-1.46A1.08,1.08,0,0,0,70.4,65.87Z"/><path class="cls-3" d="M71.53,71.28a1,1,0,1,0,1.32.45A1,1,0,0,0,71.53,71.28Z"/><path class="cls-3" d="M75.8,79.93a.84.84,0,1,0,1.13.38A.84.84,0,0,0,75.8,79.93Z"/><path class="cls-3" d="M76.62,83.53a1.46,1.46,0,1,0,2,.66A1.47,1.47,0,0,0,76.62,83.53Z"/><path class="cls-3" d="M62.31,70.22a1,1,0,0,0-.44,1.3,1,1,0,1,0,.44-1.3Z"/><path class="cls-3" d="M72.44,82.34a1.2,1.2,0,1,0,1.61.54A1.2,1.2,0,0,0,72.44,82.34Z"/><path class="cls-3" d="M72.36,88.16a1.12,1.12,0,1,0,1.51.51A1.13,1.13,0,0,0,72.36,88.16Z"/><path class="cls-3" d="M57.13,79.11a1.58,1.58,0,0,0-.72,2.12,1.58,1.58,0,1,0,2.84-1.4A1.58,1.58,0,0,0,57.13,79.11Z"/><path class="cls-3" d="M60.89,85.33a2,2,0,1,0,2.74.93A2,2,0,0,0,60.89,85.33Z"/><path class="cls-3" d="M58.06,84.76a1.34,1.34,0,1,0,1.79.61A1.35,1.35,0,0,0,58.06,84.76Z"/><path class="cls-3" d="M55,88.31a1.61,1.61,0,1,0,2.17.73A1.61,1.61,0,0,0,55,88.31Z"/><path class="cls-3" d="M53.65,92.37a1.41,1.41,0,1,0,1.89.63A1.4,1.4,0,0,0,53.65,92.37Z"/><path class="cls-3" d="M64.36,102a.85.85,0,1,0,1.15.38A.86.86,0,0,0,64.36,102Z"/><path class="cls-3" d="M50,98.61A1,1,0,0,0,49.5,100a1,1,0,0,0,1.36.46,1,1,0,0,0-.9-1.81Z"/><path class="cls-3" d="M62.21,108.1a1.28,1.28,0,1,0,1.14,2.3,1.28,1.28,0,1,0-1.14-2.3Z"/><path class="cls-3" d="M64.12,112.88a.16.16,0,0,0-.07.2.15.15,0,0,0,.2.06.14.14,0,0,0,.06-.19A.14.14,0,0,0,64.12,112.88Z"/><path class="cls-3" d="M48.32,113.45a.91.91,0,1,0,1.22.42A.92.92,0,0,0,48.32,113.45Z"/><path class="cls-3" d="M47.58,117.22A1.8,1.8,0,1,0,50,118,1.81,1.81,0,0,0,47.58,117.22Z"/><path class="cls-3" d="M44.91,122.57a.2.2,0,0,0-.09.28.21.21,0,0,0,.28.1.22.22,0,0,0,.1-.29A.21.21,0,0,0,44.91,122.57Z"/><path class="cls-3" d="M44.07,121.42a1.81,1.81,0,1,0,2.42.81A1.81,1.81,0,0,0,44.07,121.42Z"/><path class="cls-3" d="M63,125.07a.72.72,0,0,0-.33,1,.73.73,0,0,0,1,.32.72.72,0,0,0-.64-1.29Z"/><path class="cls-3" d="M52.39,128.29a1.25,1.25,0,1,0,1.67.56A1.25,1.25,0,0,0,52.39,128.29Z"/><path class="cls-3" d="M47.91,132.87a1.36,1.36,0,0,0,1.2,2.43,1.36,1.36,0,1,0-1.2-2.43Z"/><path class="cls-3" d="M49.76,137.55a1.44,1.44,0,1,0,1.94.65A1.44,1.44,0,0,0,49.76,137.55Z"/><path class="cls-3" d="M60.44,138.8a.63.63,0,0,0-.28.85.64.64,0,0,0,.85.29.63.63,0,0,0,.28-.85A.62.62,0,0,0,60.44,138.8Z"/><path class="cls-3" d="M43.8,144.3a1.5,1.5,0,1,0,2,.68A1.5,1.5,0,0,0,43.8,144.3Z"/><path class="cls-3" d="M62.31,141.63a.49.49,0,0,0-.22.65.49.49,0,1,0,.22-.65Z"/><path class="cls-3" d="M60.06,145.9a.69.69,0,0,0-.32.93.7.7,0,1,0,.32-.93Z"/><path class="cls-3" d="M48.23,149.94a.64.64,0,1,0,.85.29A.63.63,0,0,0,48.23,149.94Z"/><path class="cls-3" d="M59.77,150a1.28,1.28,0,0,0-.58,1.72,1.29,1.29,0,1,0,2.31-1.14A1.28,1.28,0,0,0,59.77,150Z"/><path class="cls-3" d="M49.7,156.59a1.31,1.31,0,1,0,1.76.59A1.31,1.31,0,0,0,49.7,156.59Z"/><path class="cls-3" d="M50.59,159.5a.46.46,0,1,0,.61.21A.46.46,0,0,0,50.59,159.5Z"/><path class="cls-3" d="M62.29,153.51a1,1,0,0,0-.46,1.36,1,1,0,0,0,1.36.45,1,1,0,0,0,.46-1.35A1,1,0,0,0,62.29,153.51Z"/><path class="cls-3" d="M57.24,161.59a.77.77,0,1,0,1,.34A.77.77,0,0,0,57.24,161.59Z"/><path class="cls-3" d="M65.81,158.47a.92.92,0,0,0-.41,1.22.91.91,0,1,0,.41-1.22Z"/><path class="cls-3" d="M63.39,163.38a2,2,0,1,0,2.73.92A2,2,0,0,0,63.39,163.38Z"/><path class="cls-3" d="M66.1,166.76a.8.8,0,0,0,.71,1.44.8.8,0,0,0-.71-1.44Z"/><path class="cls-3" d="M72.76,166.09a1.79,1.79,0,1,0,2.4.81A1.79,1.79,0,0,0,72.76,166.09Z"/><path class="cls-3" d="M73.66,166.16a1.69,1.69,0,1,0,2.27.77A1.7,1.7,0,0,0,73.66,166.16Z"/><path class="cls-3" d="M63.36,183.63a.26.26,0,0,0-.12.36.27.27,0,1,0,.48-.23A.27.27,0,0,0,63.36,183.63Z"/><path class="cls-3" d="M69.7,180.43a1.12,1.12,0,0,0-.5,1.48,1.1,1.1,0,1,0,.5-1.48Z"/><path class="cls-3" d="M71.15,186.54a.9.9,0,1,0,1.2.41A.9.9,0,0,0,71.15,186.54Z"/><path class="cls-3" d="M79.73,180.07a.75.75,0,0,0,.66,1.35.75.75,0,0,0-.66-1.35Z"/><path class="cls-3" d="M81.17,182.37a1.89,1.89,0,1,0,2.53.85A1.89,1.89,0,0,0,81.17,182.37Z"/><path class="cls-3" d="M77.34,193.22a.75.75,0,1,0,1,.34A.76.76,0,0,0,77.34,193.22Z"/><path class="cls-3" d="M79.63,191.33a.35.35,0,0,0-.16.46.34.34,0,0,0,.45.15.34.34,0,1,0-.29-.61Z"/><path class="cls-3" d="M88.8,180.27a1.43,1.43,0,1,0,1.92.65A1.42,1.42,0,0,0,88.8,180.27Z"/><path class="cls-3" d="M88.84,187.1a1.37,1.37,0,0,0,1.22,2.46,1.39,1.39,0,0,0,.62-1.84A1.37,1.37,0,0,0,88.84,187.1Z"/><path class="cls-3" d="M96.94,184.16a1.53,1.53,0,1,0,1.36,2.75,1.53,1.53,0,0,0-1.36-2.75Z"/><path class="cls-3" d="M94.08,192.05a1.32,1.32,0,1,0,1.77.6A1.32,1.32,0,0,0,94.08,192.05Z"/><path class="cls-3" d="M97,194.89a1.61,1.61,0,1,0,2.15.73A1.61,1.61,0,0,0,97,194.89Z"/><path class="cls-3" d="M98.73,202.5a.77.77,0,1,0,.68,1.38.77.77,0,0,0,.35-1A.76.76,0,0,0,98.73,202.5Z"/><path class="cls-3" d="M98.6,201.45a1.89,1.89,0,1,0,2.53.86A1.89,1.89,0,0,0,98.6,201.45Z"/><path class="cls-3" d="M102,204.3a1.87,1.87,0,1,0,2.51.84A1.87,1.87,0,0,0,102,204.3Z"/><path class="cls-3" d="M106.74,206.17a1.28,1.28,0,1,0,1.71.57A1.28,1.28,0,0,0,106.74,206.17Z"/><path class="cls-3" d="M107.51,210.6a.2.2,0,1,0,.27.09A.2.2,0,0,0,107.51,210.6Z"/><path class="cls-3" d="M113.12,201.25a.22.22,0,0,0-.1.3.22.22,0,0,0,.3.11.23.23,0,1,0-.2-.41Z"/><path class="cls-3" d="M117.57,210.17a.18.18,0,0,0-.08.24.17.17,0,0,0,.24.08.19.19,0,0,0,.08-.24A.2.2,0,0,0,117.57,210.17Z"/><path class="cls-3" d="M119.63,202.25a1.36,1.36,0,1,0,1.82.62A1.37,1.37,0,0,0,119.63,202.25Z"/><path class="cls-3" d="M122.66,206a1,1,0,0,0,.91,1.83,1,1,0,1,0-.91-1.83Z"/><path class="cls-3" d="M128.22,197.52a.83.83,0,1,0,1.11.37A.82.82,0,0,0,128.22,197.52Z"/><path class="cls-3" d="M129.13,201.94a1.63,1.63,0,1,0,2.19.74A1.63,1.63,0,0,0,129.13,201.94Z"/><path class="cls-3" d="M132.27,190.71a1.05,1.05,0,1,0,1.41.48A1.05,1.05,0,0,0,132.27,190.71Z"/><path class="cls-3" d="M136.59,198a.48.48,0,0,0,.43.86.49.49,0,0,0,.21-.65A.48.48,0,0,0,136.59,198Z"/><path class="cls-3" d="M138.27,204.38a.95.95,0,1,0,1.27.43A.94.94,0,0,0,138.27,204.38Z"/><path class="cls-3" d="M139.79,193.58A.9.9,0,1,0,141,194,.91.91,0,0,0,139.79,193.58Z"/><path class="cls-3" d="M141.72,192.25a.59.59,0,1,0,.79.27A.6.6,0,0,0,141.72,192.25Z"/><path class="cls-3" d="M146.59,200.24a1.55,1.55,0,1,0,2.07.7A1.54,1.54,0,0,0,146.59,200.24Z"/><path class="cls-3" d="M148.42,202.55a1,1,0,1,0,1.3.44A1,1,0,0,0,148.42,202.55Z"/><path class="cls-3" d="M150.71,198.26a.81.81,0,1,0,1.09.37A.81.81,0,0,0,150.71,198.26Z"/><path class="cls-3" d="M151.63,193.36a.65.65,0,0,0-.29.87.64.64,0,0,0,.86.29.65.65,0,0,0,.3-.86A.64.64,0,0,0,151.63,193.36Z"/><path class="cls-3" d="M150.9,188.71a.9.9,0,0,0-.41,1.22.91.91,0,1,0,.41-1.22Z"/><path class="cls-3" d="M159.93,203.15a.46.46,0,1,0,.62.21A.46.46,0,0,0,159.93,203.15Z"/><path class="cls-3" d="M163.64,199a.61.61,0,0,0-.28.81.61.61,0,1,0,1.09-.54A.6.6,0,0,0,163.64,199Z"/><path class="cls-3" d="M158.28,182.25a1.69,1.69,0,1,0,2.26.76A1.68,1.68,0,0,0,158.28,182.25Z"/><path class="cls-3" d="M167.86,198.91a.31.31,0,0,0-.14.41.31.31,0,0,0,.41.13.29.29,0,0,0,.13-.4A.3.3,0,0,0,167.86,198.91Z"/><path class="cls-3" d="M164.27,183.1a2,2,0,1,0,2.7.91A2,2,0,0,0,164.27,183.1Z"/><path class="cls-3" d="M170.35,185.68a1.22,1.22,0,1,0,1.63.55A1.22,1.22,0,0,0,170.35,185.68Z"/><path class="cls-3" d="M172.25,179.48a1.86,1.86,0,1,0,2.5.84A1.86,1.86,0,0,0,172.25,179.48Z"/><path class="cls-3" d="M177.51,182.7a1.25,1.25,0,0,0,1.12,2.24,1.25,1.25,0,0,0-1.12-2.24Z"/><path class="cls-3" d="M181.7,179.08a1.08,1.08,0,0,0-.48,1.45,1.07,1.07,0,0,0,1.44.48,1.08,1.08,0,0,0,.49-1.44A1.09,1.09,0,0,0,181.7,179.08Z"/><path class="cls-3" d="M177.57,171.21a1.4,1.4,0,1,0,1.87.63A1.4,1.4,0,0,0,177.57,171.21Z"/><path class="cls-3" d="M185.52,174a1.44,1.44,0,1,0,1.94.66A1.45,1.45,0,0,0,185.52,174Z"/><path class="cls-3" d="M182.33,170.06a.56.56,0,0,0-.26.75.57.57,0,0,0,.76.25.56.56,0,0,0,.25-.75A.56.56,0,0,0,182.33,170.06Z"/><path class="cls-3" d="M186.55,169.45a.28.28,0,0,0-.12.37.27.27,0,0,0,.37.12.27.27,0,0,0,.12-.36A.28.28,0,0,0,186.55,169.45Z"/><path class="cls-3" d="M194.09,170.56a.48.48,0,0,0-.22.65.49.49,0,1,0,.87-.43A.48.48,0,0,0,194.09,170.56Z"/><path class="cls-3" d="M194.34,169.5a.59.59,0,0,0,.52,1.05.57.57,0,0,0,.26-.78A.58.58,0,0,0,194.34,169.5Z"/><path class="cls-3" d="M193.64,166.63a1.05,1.05,0,1,0,.93,1.89,1.05,1.05,0,0,0-.93-1.89Z"/><path class="cls-3" d="M202.2,168.27a1.06,1.06,0,1,0,.94,1.9,1.06,1.06,0,0,0-.94-1.9Z"/><path class="cls-3" d="M194.42,157.36a.93.93,0,0,0,.82,1.66.93.93,0,0,0-.82-1.66Z"/><path class="cls-3" d="M188.59,151.58a.48.48,0,0,0-.22.65.48.48,0,0,0,.65.22.49.49,0,0,0-.43-.87Z"/><path class="cls-3" d="M207.86,153.27a1,1,0,1,0,1.37.47A1,1,0,0,0,207.86,153.27Z"/><path class="cls-3" d="M207.35,148.45a1.77,1.77,0,1,0,2.38.8A1.77,1.77,0,0,0,207.35,148.45Z"/><path class="cls-3" d="M205.13,147.25a.37.37,0,1,0,.5.16A.38.38,0,0,0,205.13,147.25Z"/><path class="cls-3" d="M199,143.06a1.36,1.36,0,0,0-.61,1.83,1.36,1.36,0,0,0,2.43-1.21A1.36,1.36,0,0,0,199,143.06Z"/><path class="cls-3" d="M207.46,141.69a.67.67,0,1,0,.59,1.2.67.67,0,0,0-.59-1.2Z"/><path class="cls-3" d="M201.3,137.14a.75.75,0,1,0,1,.34A.75.75,0,0,0,201.3,137.14Z"/><path class="cls-3" d="M194.42,133.17a.54.54,0,1,0,.72.25A.54.54,0,0,0,194.42,133.17Z"/><path class="cls-3" d="M209.77,131.09a.51.51,0,0,0-.23.67.51.51,0,0,0,.68.23.5.5,0,0,0-.45-.9Z"/><path class="cls-3" d="M206.73,126.24a1.72,1.72,0,0,0-.79,2.31A1.73,1.73,0,0,0,209,127,1.72,1.72,0,0,0,206.73,126.24Z"/><path class="cls-3" d="M213.56,123.79a1.14,1.14,0,1,0,1,2,1.14,1.14,0,0,0-1-2Z"/><path class="cls-3" d="M203.44,120.9a1.66,1.66,0,1,0,2.22.75A1.65,1.65,0,0,0,203.44,120.9Z"/><path class="cls-3" d="M212.59,116.35a1.61,1.61,0,1,0,2.15.73A1.59,1.59,0,0,0,212.59,116.35Z"/><path class="cls-3" d="M209.73,116.93a.47.47,0,0,0-.21.64.48.48,0,0,0,.63.22.49.49,0,0,0,.22-.64A.48.48,0,0,0,209.73,116.93Z"/><path class="cls-3" d="M207.19,114a.8.8,0,0,0,.71,1.43.8.8,0,0,0-.71-1.43Z"/><path class="cls-3" d="M199.14,115.49a.41.41,0,0,0,.36.73.4.4,0,0,0,.19-.54A.41.41,0,0,0,199.14,115.49Z"/><path class="cls-3" d="M193.62,111.3a1.82,1.82,0,1,0,2.45.82A1.83,1.83,0,0,0,193.62,111.3Z"/><path class="cls-3" d="M197.06,108.21a1.65,1.65,0,0,0-.74,2.2,1.63,1.63,0,0,0,2.2.74,1.64,1.64,0,1,0-1.46-2.94Z"/><path class="cls-3" d="M205.78,105.11a.3.3,0,0,0-.14.41.31.31,0,1,0,.55-.27A.3.3,0,0,0,205.78,105.11Z"/><path class="cls-3" d="M202.92,102.38a1.84,1.84,0,1,0,1.64,3.3,1.84,1.84,0,0,0-1.64-3.3Z"/><path class="cls-3" d="M192.25,102.3a1.77,1.77,0,1,0,2.38.81A1.77,1.77,0,0,0,192.25,102.3Z"/><path class="cls-3" d="M191.79,98.09a2.1,2.1,0,1,0,2.81,1A2.11,2.11,0,0,0,191.79,98.09Z"/><path class="cls-3" d="M199.65,91.18a1.51,1.51,0,1,0,2,.68A1.5,1.5,0,0,0,199.65,91.18Z"/><path class="cls-3" d="M190.67,96.14a.59.59,0,1,0,.79.27A.58.58,0,0,0,190.67,96.14Z"/><path class="cls-3" d="M185.57,96.37a1.58,1.58,0,1,0,2.11.71A1.58,1.58,0,0,0,185.57,96.37Z"/><path class="cls-3" d="M191.9,87.3a1.72,1.72,0,1,0,2.3.77A1.72,1.72,0,0,0,191.9,87.3Z"/><path class="cls-3" d="M184.55,87.31a1,1,0,1,0,1.36.46A1,1,0,0,0,184.55,87.31Z"/><path class="cls-3" d="M191.74,78.17a2,2,0,1,0,2.65.9A2,2,0,0,0,191.74,78.17Z"/><path class="cls-3" d="M186.13,78.43a.15.15,0,0,0-.07.21.15.15,0,0,0,.21.07.16.16,0,0,0-.14-.28Z"/><path class="cls-3" d="M174.91,83a.57.57,0,1,0,.75.26A.57.57,0,0,0,174.91,83Z"/><path class="cls-3" d="M179.79,71.13a1.05,1.05,0,1,0,.94,1.88,1,1,0,0,0,.48-1.4A1.07,1.07,0,0,0,179.79,71.13Z"/><path class="cls-3" d="M182.92,63.21A1.25,1.25,0,0,0,184,65.45a1.25,1.25,0,1,0-1.11-2.24Z"/><path class="cls-3" d="M173.15,67.15a.48.48,0,1,0,.42.86.48.48,0,0,0,.22-.65A.48.48,0,0,0,173.15,67.15Z"/><path class="cls-3" d="M173.28,65.08a.34.34,0,0,0-.15.46.34.34,0,0,0,.6-.3A.34.34,0,0,0,173.28,65.08Z"/><path class="cls-3" d="M174.75,57.26a1,1,0,1,0,1.3.44A1,1,0,0,0,174.75,57.26Z"/><path class="cls-3" d="M164.27,63.2a1.08,1.08,0,1,0,1.45.49A1.08,1.08,0,0,0,164.27,63.2Z"/><path class="cls-3" d="M166.1,56.79a1.52,1.52,0,0,0-.69,2,1.51,1.51,0,1,0,.69-2Z"/><path class="cls-3" d="M157.69,68.45a.25.25,0,0,0-.12.34.26.26,0,0,0,.34.12.27.27,0,0,0,.12-.35A.26.26,0,0,0,157.69,68.45Z"/><path class="cls-3" d="M164.74,49.9a1.16,1.16,0,1,0,1.55.52A1.15,1.15,0,0,0,164.74,49.9Z"/><path class="cls-3" d="M190.37,68.63a1.92,1.92,0,1,0,2,1.87A1.92,1.92,0,0,0,190.37,68.63Z"/><path class="cls-3" d="M184.35,72.66a1.7,1.7,0,1,0,1.73,1.65A1.69,1.69,0,0,0,184.35,72.66Z"/><path class="cls-3" d="M188.44,65.74a.55.55,0,0,0-.53.56.55.55,0,0,0,1.09,0A.55.55,0,0,0,188.44,65.74Z"/><path class="cls-3" d="M176.59,71.67a1,1,0,1,0,1,1A1,1,0,0,0,176.59,71.67Z"/><path class="cls-3" d="M177.89,65.57a.48.48,0,0,0-.47.5.49.49,0,0,0,.49.48.5.5,0,0,0,.48-.5A.49.49,0,0,0,177.89,65.57Z"/><path class="cls-3" d="M166.08,69.75a1.62,1.62,0,1,0,1.65,1.57A1.61,1.61,0,0,0,166.08,69.75Z"/><path class="cls-3" d="M169.34,65.46a1.82,1.82,0,1,0,1.87,1.78A1.83,1.83,0,0,0,169.34,65.46Z"/><path class="cls-3" d="M165.55,68a.55.55,0,0,0-.54.56.57.57,0,0,0,.57.55.56.56,0,0,0,.54-.57A.55.55,0,0,0,165.55,68Z"/><path class="cls-3" d="M164.14,59.48a2.1,2.1,0,1,0,2.15,2.05A2.1,2.1,0,0,0,164.14,59.48Z"/><path class="cls-3" d="M161.36,57.74a.81.81,0,0,0-.78.82.8.8,0,1,0,.78-.82Z"/><path class="cls-3" d="M155.05,62.13a1.64,1.64,0,1,0,1.68,1.6A1.64,1.64,0,0,0,155.05,62.13Z"/><path class="cls-3" d="M155.59,54.12a1.14,1.14,0,0,0,.06,2.28,1.14,1.14,0,1,0-.06-2.28Z"/><path class="cls-3" d="M152.42,48.52a1.39,1.39,0,1,0,1.42,1.35A1.38,1.38,0,0,0,152.42,48.52Z"/><path class="cls-3" d="M145.64,58.56a1.84,1.84,0,1,0,1.88,1.8A1.83,1.83,0,0,0,145.64,58.56Z"/><path class="cls-3" d="M146,48.67a1.67,1.67,0,1,0,1.7,1.63A1.68,1.68,0,0,0,146,48.67Z"/><path class="cls-3" d="M142.23,44.66a.48.48,0,0,0-.47.5.49.49,0,0,0,.5.47.49.49,0,1,0,0-1Z"/><path class="cls-3" d="M137.13,53.78a1,1,0,1,0,.05,2,1,1,0,0,0,1-1A1,1,0,0,0,137.13,53.78Z"/><path class="cls-3" d="M132.37,58.55A.43.43,0,0,0,132,59a.43.43,0,0,0,.85,0A.43.43,0,0,0,132.37,58.55Z"/><path class="cls-3" d="M126.73,44a1.1,1.1,0,1,0,1.12,1.07A1.1,1.1,0,0,0,126.73,44Z"/><path class="cls-3" d="M123.05,57.19a1.75,1.75,0,1,0,1.79,1.71A1.74,1.74,0,0,0,123.05,57.19Z"/><path class="cls-3" d="M121.59,46.57a.59.59,0,0,0-.58.61.6.6,0,0,0,.61.58.6.6,0,0,0,0-1.19Z"/><path class="cls-3" d="M118.87,53.71a.24.24,0,0,0-.24.25.25.25,0,0,0,.25.24.26.26,0,0,0,.24-.26A.24.24,0,0,0,118.87,53.71Z"/><path class="cls-3" d="M117.45,49.19a1.19,1.19,0,0,0,0,2.37,1.18,1.18,0,0,0,1.16-1.21A1.2,1.2,0,0,0,117.45,49.19Z"/><path class="cls-3" d="M115.71,55.2a.19.19,0,1,0,.19.18A.19.19,0,0,0,115.71,55.2Z"/><path class="cls-3" d="M114.47,62.8a1.27,1.27,0,1,0,.06,2.53,1.27,1.27,0,1,0-.06-2.53Z"/><path class="cls-3" d="M104.52,45.3a1.27,1.27,0,1,0,1.3,1.24A1.28,1.28,0,0,0,104.52,45.3Z"/><path class="cls-3" d="M101.66,47.8a1.08,1.08,0,0,0-1,1.11,1.08,1.08,0,0,0,2.16,0A1.08,1.08,0,0,0,101.66,47.8Z"/><path class="cls-3" d="M100.4,53.19a1,1,0,0,0,0,2,1,1,0,1,0,0-2Z"/><path class="cls-3" d="M100.63,62.83a.85.85,0,1,0,.86.82A.84.84,0,0,0,100.63,62.83Z"/><path class="cls-3" d="M99.85,66.45a1.46,1.46,0,1,0,1.5,1.42A1.45,1.45,0,0,0,99.85,66.45Z"/><path class="cls-3" d="M92.49,48.34a1,1,0,1,0,1,.94A1,1,0,0,0,92.49,48.34Z"/><path class="cls-3" d="M96.56,63.6a1.2,1.2,0,1,0,1.23,1.17A1.2,1.2,0,0,0,96.56,63.6Z"/><path class="cls-3" d="M94,68.84a1.13,1.13,0,1,0,1.15,1.1A1.13,1.13,0,0,0,94,68.84Z"/><path class="cls-3" d="M84,54.21a1.58,1.58,0,1,0,1.62,1.54A1.58,1.58,0,0,0,84,54.21Z"/><path class="cls-3" d="M84.83,61.44a2,2,0,1,0,2.09,2A2,2,0,0,0,84.83,61.44Z"/><path class="cls-3" d="M82.5,59.73A1.34,1.34,0,1,0,83.87,61,1.33,1.33,0,0,0,82.5,59.73Z"/><path class="cls-3" d="M78.28,61.67a1.62,1.62,0,1,0,1.65,1.58A1.62,1.62,0,0,0,78.28,61.67Z"/><path class="cls-3" d="M75.3,64.76a1.41,1.41,0,1,0,1.44,1.37A1.41,1.41,0,0,0,75.3,64.76Z"/><path class="cls-3" d="M80.93,78.05a.86.86,0,0,0,0,1.71.86.86,0,1,0,0-1.71Z"/><path class="cls-3" d="M69.32,68.86a1,1,0,0,0-1,1,1,1,0,1,0,1-1Z"/><path class="cls-3" d="M76.42,82.64A1.28,1.28,0,0,0,75.16,84a1.29,1.29,0,1,0,2.57-.06A1.27,1.27,0,0,0,76.42,82.64Z"/><path class="cls-3" d="M76.13,87.78a.15.15,0,1,0,.15.14A.15.15,0,0,0,76.13,87.78Z"/><path class="cls-3" d="M61.56,81.63a.91.91,0,1,0,.94.89A.91.91,0,0,0,61.56,81.63Z"/><path class="cls-3" d="M59.31,84.74a1.8,1.8,0,1,0,1.85,1.75A1.81,1.81,0,0,0,59.31,84.74Z"/><path class="cls-3" d="M54.63,88.45a.22.22,0,0,0,0,.43.21.21,0,0,0,.21-.22A.21.21,0,0,0,54.63,88.45Z"/><path class="cls-3" d="M54.36,87.05a1.81,1.81,0,1,0,1.85,1.77A1.83,1.83,0,0,0,54.36,87.05Z"/><path class="cls-3" d="M70,98.34a.73.73,0,0,0-.71.74.73.73,0,0,0,1.45,0A.73.73,0,0,0,70,98.34Z"/><path class="cls-3" d="M59,96.8A1.25,1.25,0,1,0,60.28,98,1.26,1.26,0,0,0,59,96.8Z"/><path class="cls-3" d="M53,99.06a1.36,1.36,0,1,0,1.39,1.32A1.36,1.36,0,0,0,53,99.06Z"/><path class="cls-3" d="M52.71,104.08a1.45,1.45,0,1,0,1.48,1.41A1.44,1.44,0,0,0,52.71,104.08Z"/><path class="cls-3" d="M61.86,109.72a.64.64,0,1,0,.66.62A.64.64,0,0,0,61.86,109.72Z"/><path class="cls-3" d="M44.45,107.69A1.5,1.5,0,1,0,46,109.15,1.5,1.5,0,0,0,44.45,107.69Z"/><path class="cls-3" d="M62.36,113.08a.49.49,0,0,0,0,1,.49.49,0,0,0,0-1Z"/><path class="cls-3" d="M58.52,116a.7.7,0,0,0-.68.71.7.7,0,1,0,.68-.71Z"/><path class="cls-3" d="M46.09,114.67a.64.64,0,1,0,0,1.28.64.64,0,0,0,0-1.28Z"/><path class="cls-3" d="M56.52,119.61a1.29,1.29,0,1,0,1.32,1.26A1.29,1.29,0,0,0,56.52,119.61Z"/><path class="cls-3" d="M44.61,121.32A1.31,1.31,0,1,0,46,122.6,1.31,1.31,0,0,0,44.61,121.32Z"/><path class="cls-3" d="M44.19,124.33a.46.46,0,0,0-.44.47.46.46,0,0,0,.91,0A.45.45,0,0,0,44.19,124.33Z"/><path class="cls-3" d="M57.33,123.84a1,1,0,1,0,1,1A1,1,0,0,0,57.33,123.84Z"/><path class="cls-3" d="M49.34,129a.77.77,0,1,0,.79.75A.77.77,0,0,0,49.34,129Z"/><path class="cls-3" d="M58.43,129.82a.91.91,0,1,0,.93.89A.91.91,0,0,0,58.43,129.82Z"/><path class="cls-3" d="M54.16,133.25a2,2,0,1,0,2.09,2A2,2,0,0,0,54.16,133.25Z"/><path class="cls-3" d="M55.19,137.46a.8.8,0,1,0,.82.78A.8.8,0,0,0,55.19,137.46Z"/><path class="cls-3" d="M61.51,139.67a1.79,1.79,0,0,0,.09,3.58,1.79,1.79,0,1,0-.09-3.58Z"/><path class="cls-3" d="M62.3,140.11A1.7,1.7,0,1,0,64,141.76,1.7,1.7,0,0,0,62.3,140.11Z"/><path class="cls-3" d="M45.59,151.6a.27.27,0,0,0-.26.28.26.26,0,0,0,.27.26.27.27,0,1,0,0-.54Z"/><path class="cls-3" d="M52.69,151.38a1.1,1.1,0,1,0,1.13,1.08A1.11,1.11,0,0,0,52.69,151.38Z"/><path class="cls-3" d="M51.43,157.53a.9.9,0,0,0,0,1.79.9.9,0,1,0,0-1.79Z"/><path class="cls-3" d="M61.93,155.28a.75.75,0,1,0,.77.73A.76.76,0,0,0,61.93,155.28Z"/><path class="cls-3" d="M62.27,158a1.89,1.89,0,1,0,1.94,1.84A1.89,1.89,0,0,0,62.27,158Z"/><path class="cls-3" d="M54.22,166.19a.76.76,0,0,0-.73.78.76.76,0,0,0,1.51,0A.76.76,0,0,0,54.22,166.19Z"/><path class="cls-3" d="M57.09,165.45a.32.32,0,0,0-.33.34.34.34,0,1,0,.33-.34Z"/><path class="cls-3" d="M70.08,159.29a1.43,1.43,0,1,0,1.46,1.39A1.43,1.43,0,0,0,70.08,159.29Z"/><path class="cls-3" d="M67.23,165.5a1.37,1.37,0,1,0,1.4,1.34A1.36,1.36,0,0,0,67.23,165.5Z"/><path class="cls-3" d="M75.81,166.25a1.54,1.54,0,1,0,1.57,1.5A1.53,1.53,0,0,0,75.81,166.25Z"/><path class="cls-3" d="M69.89,172.2a1.32,1.32,0,1,0,1.35,1.28A1.31,1.31,0,0,0,69.89,172.2Z"/><path class="cls-3" d="M71.36,176A1.61,1.61,0,1,0,73,177.58,1.62,1.62,0,0,0,71.36,176Z"/><path class="cls-3" d="M69.69,183.63a.77.77,0,1,0,.79.75A.77.77,0,0,0,69.69,183.63Z"/><path class="cls-3" d="M70,182.63A1.89,1.89,0,1,0,72,184.47,1.89,1.89,0,0,0,70,182.63Z"/><path class="cls-3" d="M71.92,186.65a1.88,1.88,0,1,0,1.92,1.83A1.86,1.86,0,0,0,71.92,186.65Z"/><path class="cls-3" d="M75.41,190.34a1.28,1.28,0,1,0,1.31,1.24A1.27,1.27,0,0,0,75.41,190.34Z"/><path class="cls-3" d="M74.24,194.68a.2.2,0,0,0-.2.2.22.22,0,0,0,.21.2.19.19,0,0,0,.19-.21A.19.19,0,0,0,74.24,194.68Z"/><path class="cls-3" d="M83.27,188.57a.22.22,0,0,0-.22.23.23.23,0,0,0,.23.23.23.23,0,0,0,0-.46Z"/><path class="cls-3" d="M83.54,198.54a.18.18,0,0,0-.18.18.18.18,0,0,0,.18.17.18.18,0,0,0,.18-.18A.18.18,0,0,0,83.54,198.54Z"/><path class="cls-3" d="M88.74,192.23a1.35,1.35,0,0,0-1.32,1.39,1.36,1.36,0,1,0,1.32-1.39Z"/><path class="cls-3" d="M89.93,196.88a1,1,0,1,0,1,1A1,1,0,0,0,89.93,196.88Z"/><path class="cls-3" d="M98.53,191.56a.83.83,0,0,0,0,1.66.83.83,0,1,0,0-1.66Z"/><path class="cls-3" d="M97.49,196a1.64,1.64,0,1,0,1.68,1.59A1.63,1.63,0,0,0,97.49,196Z"/><path class="cls-3" d="M105.08,187.09a1.06,1.06,0,1,0,0,2.11,1.06,1.06,0,0,0,0-2.11Z"/><path class="cls-3" d="M105.93,195.51a.47.47,0,0,0-.46.49.48.48,0,1,0,1,0A.47.47,0,0,0,105.93,195.51Z"/><path class="cls-3" d="M104.75,202a1,1,0,0,0-.92,1,.95.95,0,1,0,.92-1Z"/><path class="cls-3" d="M110.68,192.87a.9.9,0,1,0,.93.88A.9.9,0,0,0,110.68,192.87Z"/><path class="cls-3" d="M113,192.48a.59.59,0,0,0-.57.6.59.59,0,1,0,1.18,0A.59.59,0,0,0,113,192.48Z"/><path class="cls-3" d="M114,201.78a1.55,1.55,0,1,0,1.58,1.51A1.54,1.54,0,0,0,114,201.78Z"/><path class="cls-3" d="M114.72,204.64a1,1,0,0,0,0,1.94,1,1,0,0,0,.94-1A1,1,0,0,0,114.72,204.64Z"/><path class="cls-3" d="M118.61,201.73a.81.81,0,1,0,.83.79A.81.81,0,0,0,118.61,201.73Z"/><path class="cls-3" d="M121.51,197.67a.65.65,0,1,0,.66.63A.64.64,0,0,0,121.51,197.67Z"/><path class="cls-3" d="M122.82,193.14a.92.92,0,0,0-.9.94.9.9,0,0,0,.94.89.92.92,0,0,0,.9-.93A.93.93,0,0,0,122.82,193.14Z"/><path class="cls-3" d="M124.91,210a.48.48,0,0,0-.46.48.46.46,0,0,0,.48.45.47.47,0,0,0,.46-.47A.48.48,0,0,0,124.91,210Z"/><path class="cls-3" d="M130,207.83a.61.61,0,1,0,.62.59A.6.6,0,0,0,130,207.83Z"/><path class="cls-3" d="M132.23,190.4A1.69,1.69,0,1,0,134,192,1.69,1.69,0,0,0,132.23,190.4Z"/><path class="cls-3" d="M133.88,209.55a.3.3,0,1,0,.31.29A.3.3,0,0,0,133.88,209.55Z"/><path class="cls-3" d="M137.3,193.7a2,2,0,1,0,2.07,2A2,2,0,0,0,137.3,193.7Z"/><path class="cls-3" d="M141.72,198.6a1.22,1.22,0,1,0,1.25,1.19A1.22,1.22,0,0,0,141.72,198.6Z"/><path class="cls-3" d="M146.06,193.78A1.87,1.87,0,1,0,148,195.6,1.87,1.87,0,0,0,146.06,193.78Z"/><path class="cls-3" d="M149.48,198.92a1.26,1.26,0,1,0,.06,2.51,1.26,1.26,0,0,0-.06-2.51Z"/><path class="cls-3" d="M154.8,197.41a1.08,1.08,0,0,0,.06,2.16,1.08,1.08,0,0,0-.06-2.16Z"/><path class="cls-3" d="M154.38,188.53a1.4,1.4,0,1,0,1.43,1.36A1.4,1.4,0,0,0,154.38,188.53Z"/><path class="cls-3" d="M160.4,194.43a1.44,1.44,0,1,0,1.48,1.41A1.44,1.44,0,0,0,160.4,194.43Z"/><path class="cls-3" d="M159.18,189.49a.57.57,0,0,0-.55.58.56.56,0,1,0,.55-.58Z"/><path class="cls-3" d="M163.26,190.73a.26.26,0,0,0-.26.28.28.28,0,0,0,.28.27.27.27,0,0,0,.26-.28A.28.28,0,0,0,163.26,190.73Z"/><path class="cls-3" d="M169.63,194.91a.48.48,0,0,0-.47.5.47.47,0,0,0,.49.47.48.48,0,0,0,.48-.49A.5.5,0,0,0,169.63,194.91Z"/><path class="cls-3" d="M170.3,194.06a.59.59,0,1,0,.6.57A.58.58,0,0,0,170.3,194.06Z"/><path class="cls-3" d="M170.87,191.16a1.06,1.06,0,0,0-1,1.08,1.05,1.05,0,0,0,2.1-.05A1.07,1.07,0,0,0,170.87,191.16Z"/><path class="cls-3" d="M177.94,196.26a1,1,0,0,0-1,1.08,1.06,1.06,0,1,0,2.12-.05A1,1,0,0,0,177.94,196.26Z"/><path class="cls-3" d="M175.5,183.09a.93.93,0,0,0,0,1.85.93.93,0,1,0,0-1.85Z"/><path class="cls-3" d="M172.65,175.38a.49.49,0,0,0-.48.5.48.48,0,0,0,.5.47.47.47,0,0,0,.47-.49A.49.49,0,0,0,172.65,175.38Z"/><path class="cls-3" d="M189.41,185.05a1,1,0,1,0,1.05,1A1,1,0,0,0,189.41,185.05Z"/><path class="cls-3" d="M191,180.46a1.78,1.78,0,1,0,1.81,1.73A1.78,1.78,0,0,0,191,180.46Z"/><path class="cls-3" d="M189.48,178.44a.37.37,0,1,0,.37.36A.35.35,0,0,0,189.48,178.44Z"/><path class="cls-3" d="M185.65,172a1.36,1.36,0,1,0,1.39,1.33A1.36,1.36,0,0,0,185.65,172Z"/><path class="cls-3" d="M193.93,174.38a.67.67,0,1,0,0,1.34.67.67,0,0,0,.65-.69A.66.66,0,0,0,193.93,174.38Z"/><path class="cls-3" d="M190.26,167.66a.74.74,0,0,0-.72.76.74.74,0,1,0,1.48,0A.74.74,0,0,0,190.26,167.66Z"/><path class="cls-3" d="M185.7,161.16a.54.54,0,1,0,0,1.07.54.54,0,1,0,0-1.07Z"/><path class="cls-3" d="M200.5,165.75a.5.5,0,0,0-.49.51.5.5,0,0,0,1,0A.5.5,0,0,0,200.5,165.75Z"/><path class="cls-3" d="M199.79,160.06a1.73,1.73,0,1,0,1.77,1.68A1.72,1.72,0,0,0,199.79,160.06Z"/><path class="cls-3" d="M207,160.73a1.14,1.14,0,1,0,1.17,1.11A1.14,1.14,0,0,0,207,160.73Z"/><path class="cls-3" d="M199.06,153.84a1.66,1.66,0,1,0,1.69,1.61A1.65,1.65,0,0,0,199.06,153.84Z"/><path class="cls-3" d="M209.28,153.57a1.61,1.61,0,1,0,.08,3.21,1.61,1.61,0,0,0-.08-3.21Z"/><path class="cls-3" d="M206.44,152.89a.49.49,0,0,0-.47.49.48.48,0,0,0,.49.46.46.46,0,0,0,.46-.48A.47.47,0,0,0,206.44,152.89Z"/><path class="cls-3" d="M205.38,149.15a.79.79,0,1,0,.81.77A.79.79,0,0,0,205.38,149.15Z"/><path class="cls-3" d="M197.44,147.12a.41.41,0,0,0,0,.81.41.41,0,1,0,0-.81Z"/><path class="cls-3" d="M194.21,141a1.83,1.83,0,1,0,1.87,1.78A1.82,1.82,0,0,0,194.21,141Z"/><path class="cls-3" d="M198.63,139.64a1.65,1.65,0,0,0,.08,3.29,1.65,1.65,0,1,0-.08-3.29Z"/><path class="cls-3" d="M207.84,140.51a.3.3,0,0,0-.3.31.33.33,0,0,0,.32.31.32.32,0,0,0,.3-.32A.31.31,0,0,0,207.84,140.51Z"/><path class="cls-3" d="M206.41,136.83a1.84,1.84,0,1,0,1.88,1.8A1.85,1.85,0,0,0,206.41,136.83Z"/><path class="cls-3" d="M196.76,132.25a1.78,1.78,0,1,0,1.82,1.73A1.78,1.78,0,0,0,196.76,132.25Z"/><path class="cls-3" d="M198.13,128.24a2.1,2.1,0,1,0,2.14,2A2.1,2.1,0,0,0,198.13,128.24Z"/><path class="cls-3" d="M208.16,125.29a1.51,1.51,0,1,0,1.55,1.47A1.51,1.51,0,0,0,208.16,125.29Z"/><path class="cls-3" d="M197.93,126a.57.57,0,0,0-.57.6.58.58,0,0,0,.6.58.6.6,0,0,0,.58-.61A.59.59,0,0,0,197.93,126Z"/><path class="cls-3" d="M193.21,124.05a1.58,1.58,0,1,0,1.61,1.54A1.58,1.58,0,0,0,193.21,124.05Z"/><path class="cls-3" d="M202.77,118.5a1.72,1.72,0,1,0,1.76,1.67A1.71,1.71,0,0,0,202.77,118.5Z"/><path class="cls-3" d="M196.11,115.41a1,1,0,0,0-1,1,1,1,0,0,0,2,0A1,1,0,0,0,196.11,115.41Z"/><path class="cls-3" d="M206.48,110.16a2,2,0,1,0,2,1.93A2,2,0,0,0,206.48,110.16Z"/><path class="cls-3" d="M201.29,108a.16.16,0,0,0-.16.16.17.17,0,0,0,.16.15.16.16,0,0,0,.16-.16A.16.16,0,0,0,201.29,108Z"/><path class="cls-3" d="M189.19,107.43a.58.58,0,0,0-.56.58.57.57,0,0,0,.58.55.58.58,0,0,0,.56-.58A.57.57,0,0,0,189.19,107.43Z"/><path class="cls-3" d="M198.63,98.74a1,1,0,0,0-1,1.07,1.06,1.06,0,0,0,1.08,1,1.05,1.05,0,0,0-.05-2.1Z"/><path class="cls-3" d="M204.8,92.88a1.24,1.24,0,0,0-1.22,1.28,1.25,1.25,0,1,0,2.5-.07A1.24,1.24,0,0,0,204.8,92.88Z"/><path class="cls-3" d="M194.28,92.32a.49.49,0,0,0-.47.49.48.48,0,0,0,.49.47.47.47,0,0,0,.47-.49A.49.49,0,0,0,194.28,92.32Z"/><path class="cls-3" d="M195.27,90.51a.33.33,0,0,0-.33.34.34.34,0,0,0,.34.33.34.34,0,0,0,0-.67Z"/><path class="cls-3" d="M199.9,84a1,1,0,1,0,1,1A1,1,0,0,0,199.9,84Z"/><path class="cls-3" d="M187.9,85a1.08,1.08,0,1,0,1.11,1A1.08,1.08,0,0,0,187.9,85Z"/><path class="cls-3" d="M192.25,80a1.51,1.51,0,1,0,1.54,1.47A1.49,1.49,0,0,0,192.25,80Z"/><path class="cls-3" d="M179.71,87a.24.24,0,0,0-.24.26.25.25,0,0,0,.26.25.26.26,0,0,0,0-.51Z"/><path class="cls-3" d="M193.94,73.13a1.16,1.16,0,1,0,1.18,1.13A1.16,1.16,0,0,0,193.94,73.13Z"/><circle class="cls-4" cx="128.08" cy="128.08" r="128.08"/></g><g id="forme_2"><path class="cls-3" d="M134.19,35.11a2.07,2.07,0,1,0,2.92,0A2.07,2.07,0,0,0,134.19,35.11Z"/><path class="cls-3" d="M132.36,42.7a1.82,1.82,0,1,0,2.58,0A1.83,1.83,0,0,0,132.36,42.7Z"/><path class="cls-3" d="M125.5,47.58a1.07,1.07,0,1,0,1.52,0A1.08,1.08,0,0,0,125.5,47.58Z"/><path class="cls-3" d="M122.08,41.8a.53.53,0,0,0,0,.74.52.52,0,0,0,.75-.73A.53.53,0,0,0,122.08,41.8Z"/><path class="cls-3" d="M115.79,53.73a1.74,1.74,0,1,0,2.46,0A1.74,1.74,0,0,0,115.79,53.73Z"/><path class="cls-3" d="M115.24,48A2,2,0,1,0,118,48,1.95,1.95,0,0,0,115.24,48Z"/><path class="cls-3" d="M114.06,52.69a.59.59,0,0,0,0,.84.6.6,0,1,0,0-.84Z"/><path class="cls-3" d="M106.76,47a2.26,2.26,0,1,0,3.19,0A2.27,2.27,0,0,0,106.76,47Z"/><path class="cls-3" d="M103.3,47.68a.86.86,0,0,0,0,1.21.86.86,0,0,0,1.23-1.19A.84.84,0,0,0,103.3,47.68Z"/><path class="cls-3" d="M101.5,55.76a1.77,1.77,0,1,0,2.5,0A1.77,1.77,0,0,0,101.5,55.76Z"/><path class="cls-3" d="M96.09,49a1.23,1.23,0,1,0,1.74,0A1.23,1.23,0,0,0,96.09,49Z"/><path class="cls-3" d="M89.49,46.91a1.49,1.49,0,1,0,2.11,0A1.49,1.49,0,0,0,89.49,46.91Z"/><path class="cls-3" d="M91.46,59.8a2,2,0,1,0,2.8.05A2,2,0,0,0,91.46,59.8Z"/><path class="cls-3" d="M84.55,51.69a1.79,1.79,0,1,0,2.53,0A1.79,1.79,0,0,0,84.55,51.69Z"/><path class="cls-3" d="M78.62,51.3a.52.52,0,0,0,0,.74.53.53,0,1,0,.76-.74A.52.52,0,0,0,78.62,51.3Z"/><path class="cls-3" d="M81.24,62.24a1.09,1.09,0,1,0,1.54,0A1.09,1.09,0,0,0,81.24,62.24Z"/><path class="cls-3" d="M81,69.48a.46.46,0,1,0,.64.66.46.46,0,0,0,0-.65A.47.47,0,0,0,81,69.48Z"/><path class="cls-3" d="M65.89,62.11a1.17,1.17,0,0,0,0,1.66,1.18,1.18,0,1,0,0-1.66Z"/><path class="cls-3" d="M72.59,75.21a1.88,1.88,0,1,0,2.67,0A1.88,1.88,0,0,0,72.59,75.21Z"/><path class="cls-3" d="M63.69,67.88a.63.63,0,0,0,0,.9.63.63,0,0,0,.9,0,.63.63,0,1,0-.88-.91Z"/><path class="cls-3" d="M66.74,75.51a.26.26,0,0,0,0,.37.27.27,0,0,0,.37,0,.28.28,0,0,0,0-.38A.27.27,0,0,0,66.74,75.51Z"/><path class="cls-3" d="M62.32,73a1.28,1.28,0,1,0,1.81,0A1.28,1.28,0,0,0,62.32,73Z"/><path class="cls-3" d="M65.34,79a.21.21,0,0,0,0,.29.2.2,0,0,0,.28,0,.19.19,0,0,0,0-.28A.2.2,0,0,0,65.34,79Z"/><path class="cls-3" d="M69.9,85.91a1.36,1.36,0,1,0,1.93,0A1.36,1.36,0,0,0,69.9,85.91Z"/><path class="cls-3" d="M49.26,79.34a1.36,1.36,0,1,0,1.93,0A1.36,1.36,0,0,0,49.26,79.34Z"/><path class="cls-3" d="M48.83,83.4a1.16,1.16,0,1,0,1.64,0A1.16,1.16,0,0,0,48.83,83.4Z"/><path class="cls-3" d="M51.76,88.58a1.06,1.06,0,1,0,1.48,1.53,1.06,1.06,0,1,0-1.48-1.53Z"/><path class="cls-3" d="M59,96a.91.91,0,1,0,1.28,0A.9.9,0,0,0,59,96Z"/><path class="cls-3" d="M61,99.46a1.57,1.57,0,0,0,2.19,2.26A1.57,1.57,0,0,0,61,99.46Z"/><path class="cls-3" d="M42,90.52A1,1,0,0,0,43.41,92a1,1,0,0,0,0-1.46A1,1,0,0,0,42,90.52Z"/><path class="cls-3" d="M56.32,99.62a1.29,1.29,0,1,0,1.83,0A1.29,1.29,0,0,0,56.32,99.62Z"/><path class="cls-3" d="M58.15,105.6a1.21,1.21,0,1,0,1.72,0A1.23,1.23,0,0,0,58.15,105.6Z"/><path class="cls-3" d="M39.57,101.33a1.7,1.7,0,1,0,2.41,0A1.71,1.71,0,0,0,39.57,101.33Z"/><path class="cls-3" d="M45.47,106.47a2.19,2.19,0,1,0,3.05,3.15,2.19,2.19,0,0,0-3.05-3.15Z"/><path class="cls-3" d="M42.38,106.82a1.44,1.44,0,1,0,2,0A1.43,1.43,0,0,0,42.38,106.82Z"/><path class="cls-3" d="M40.45,111.44a1.74,1.74,0,1,0,2.46,0A1.74,1.74,0,0,0,40.45,111.44Z"/><path class="cls-3" d="M40.36,116.06a1.51,1.51,0,1,0,2.14,0A1.51,1.51,0,0,0,40.36,116.06Z"/><path class="cls-3" d="M54.51,122.46a.92.92,0,1,0,1.28,1.32.92.92,0,1,0-1.28-1.32Z"/><path class="cls-3" d="M38.62,123.67a1.09,1.09,0,1,0,1.54,0A1.1,1.1,0,0,0,38.62,123.67Z"/><path class="cls-3" d="M54.29,129.38a1.39,1.39,0,1,0,2,0A1.39,1.39,0,0,0,54.29,129.38Z"/><path class="cls-3" d="M57.82,133.65a.16.16,0,0,0,0,.23.17.17,0,0,0,.23,0,.16.16,0,0,0,0-.22A.15.15,0,0,0,57.82,133.65Z"/><path class="cls-3" d="M41.81,139.42a1,1,0,1,0,1.37,1.41,1,1,0,0,0,0-1.38A1,1,0,0,0,41.81,139.42Z"/><path class="cls-3" d="M42.29,143.53a1.94,1.94,0,1,0,2.75,0A1.95,1.95,0,0,0,42.29,143.53Z"/><path class="cls-3" d="M41.31,149.88a.25.25,0,0,0,0,.33.24.24,0,0,0,.33,0,.23.23,0,0,0-.32-.33Z"/><path class="cls-3" d="M40.07,149a1.94,1.94,0,1,0,2.75,0A1.94,1.94,0,0,0,40.07,149Z"/><path class="cls-3" d="M60.64,146.52a.78.78,0,1,0,1.08,1.12.78.78,0,0,0,0-1.1A.78.78,0,0,0,60.64,146.52Z"/><path class="cls-3" d="M50.86,153.3a1.34,1.34,0,1,0,1.89,0A1.33,1.33,0,0,0,50.86,153.3Z"/><path class="cls-3" d="M47.76,159.46a1.46,1.46,0,1,0,2.06,0A1.45,1.45,0,0,0,47.76,159.46Z"/><path class="cls-3" d="M51.2,163.65a1.55,1.55,0,1,0,2.19,0A1.55,1.55,0,0,0,51.2,163.65Z"/><path class="cls-3" d="M62.56,161.43a.67.67,0,0,0,0,1,.69.69,0,0,0,1,0,.68.68,0,0,0,0-1A.67.67,0,0,0,62.56,161.43Z"/><path class="cls-3" d="M47.3,172.53a1.62,1.62,0,1,0,2.29,0A1.62,1.62,0,0,0,47.3,172.53Z"/><path class="cls-3" d="M65.4,163.71a.52.52,0,0,0,.73.75.52.52,0,1,0-.73-.75Z"/><path class="cls-3" d="M64.49,168.83a.75.75,0,1,0,1,1.07.76.76,0,0,0,0-1.06A.75.75,0,0,0,64.49,168.83Z"/><path class="cls-3" d="M53.69,176.86a.69.69,0,1,0,1,1,.69.69,0,0,0-1-1Z"/><path class="cls-3" d="M65.55,173.15a1.39,1.39,0,1,0,2,0A1.39,1.39,0,0,0,65.55,173.15Z"/><path class="cls-3" d="M57.38,183.19a1.41,1.41,0,1,0,2,0A1.42,1.42,0,0,0,57.38,183.19Z"/><path class="cls-3" d="M59.25,185.88a.49.49,0,1,0,.69,0A.48.48,0,0,0,59.25,185.88Z"/><path class="cls-3" d="M69.28,175.9a1.09,1.09,0,1,0,1.51,1.56,1.09,1.09,0,1,0-1.51-1.56Z"/><path class="cls-3" d="M66.75,185.84A.83.83,0,1,0,67.9,187a.84.84,0,0,0,0-1.18A.82.82,0,0,0,66.75,185.84Z"/><path class="cls-3" d="M74.51,179.83a1,1,0,1,0,1.38,0A1,1,0,0,0,74.51,179.83Z"/><path class="cls-3" d="M73.64,185.66a2.19,2.19,0,1,0,3.1.05A2.18,2.18,0,0,0,73.64,185.66Z"/><path class="cls-3" d="M77.53,188.23a.87.87,0,0,0,0,1.22.86.86,0,0,0,1.22,0,.86.86,0,0,0-1.2-1.24Z"/><path class="cls-3" d="M84.13,185.36a1.93,1.93,0,1,0,2.73,0A1.94,1.94,0,0,0,84.13,185.36Z"/><path class="cls-3" d="M85.08,185.14a1.82,1.82,0,1,0,2.58,0A1.83,1.83,0,0,0,85.08,185.14Z"/><path class="cls-3" d="M80.26,206.43a.29.29,0,1,0,.4.41.29.29,0,1,0-.4-.41Z"/><path class="cls-3" d="M85.71,201.07a1.18,1.18,0,1,0,1.68,0A1.2,1.2,0,0,0,85.71,201.07Z"/><path class="cls-3" d="M89.2,206.85a1,1,0,1,0,1.36,0A1,1,0,0,0,89.2,206.85Z"/><path class="cls-3" d="M95.86,197.41A.81.81,0,0,0,97,198.57a.82.82,0,0,0,0-1.15A.81.81,0,0,0,95.86,197.41Z"/><path class="cls-3" d="M98.1,199.29a2,2,0,1,0,2.88,0A2,2,0,0,0,98.1,199.29Z"/><path class="cls-3" d="M97.74,211.66a.81.81,0,0,0,0,1.15.81.81,0,1,0,0-1.15Z"/><path class="cls-3" d="M99.46,209a.37.37,0,0,0,0,.52.37.37,0,0,0,.51,0,.36.36,0,0,0-.5-.53Z"/><path class="cls-3" d="M105.23,194.63a1.54,1.54,0,1,0,2.18,0A1.55,1.55,0,0,0,105.23,194.63Z"/><path class="cls-3" d="M107.51,201.62a1.48,1.48,0,1,0,2.09,0A1.48,1.48,0,0,0,107.51,201.62Z"/><path class="cls-3" d="M114.85,196a1.65,1.65,0,1,0,2.34,0A1.65,1.65,0,0,0,114.85,196Z"/><path class="cls-3" d="M114.51,205a1.42,1.42,0,1,0,2,0A1.43,1.43,0,0,0,114.51,205Z"/><path class="cls-3" d="M118.46,206.92a1.73,1.73,0,1,0,2.45,0A1.72,1.72,0,0,0,118.46,206.92Z"/><path class="cls-3" d="M122.7,214.16a.83.83,0,1,0,1.17,0A.82.82,0,0,0,122.7,214.16Z"/><path class="cls-3" d="M122.23,213.13a2,2,0,1,0,2.87,0A2,2,0,0,0,122.23,213.13Z"/><path class="cls-3" d="M126.67,214.92a2,2,0,1,0,2.81,2.9,2,2,0,0,0-2.81-2.9Z"/><path class="cls-3" d="M132.12,215.29a1.37,1.37,0,1,0,1.94,0A1.36,1.36,0,0,0,132.12,215.29Z"/><path class="cls-3" d="M134.36,219.58a.22.22,0,0,0,0,.3.21.21,0,0,0,.3,0,.22.22,0,0,0,0-.31A.23.23,0,0,0,134.36,219.58Z"/><path class="cls-3" d="M137.05,208.16a.23.23,0,0,0,0,.34.24.24,0,1,0,.35-.34A.23.23,0,0,0,137.05,208.16Z"/><path class="cls-3" d="M144.53,215.84a.19.19,0,0,0,.27.28.18.18,0,0,0,0-.27A.19.19,0,0,0,144.53,215.84Z"/><path class="cls-3" d="M144,207.05a1.46,1.46,0,1,0,2.08,0A1.48,1.48,0,0,0,144,207.05Z"/><path class="cls-3" d="M148.38,209.86a1.1,1.1,0,1,0,1.56,0A1.1,1.1,0,0,0,148.38,209.86Z"/><path class="cls-3" d="M151.3,199.37a.9.9,0,1,0,1.26,0A.89.89,0,0,0,151.3,199.37Z"/><path class="cls-3" d="M153.68,203.61a1.76,1.76,0,1,0,2.49,0A1.76,1.76,0,0,0,153.68,203.61Z"/><path class="cls-3" d="M153.22,191.07a1.12,1.12,0,0,0,0,1.6,1.14,1.14,0,0,0,1.6,0,1.15,1.15,0,0,0,0-1.61A1.13,1.13,0,0,0,153.22,191.07Z"/><path class="cls-3" d="M160,197.1a.52.52,0,1,0,.72.74.52.52,0,0,0-.72-.74Z"/><path class="cls-3" d="M163.86,203.11a1,1,0,1,0,1.44,0A1,1,0,0,0,163.86,203.11Z"/><path class="cls-3" d="M161.86,191.54a1,1,0,1,0,1.37,0A1,1,0,0,0,161.86,191.54Z"/><path class="cls-3" d="M163.41,189.55a.63.63,0,0,0,.88.91.63.63,0,1,0-.88-.91Z"/><path class="cls-3" d="M171,196.14a1.67,1.67,0,1,0,2.36,0A1.66,1.66,0,0,0,171,196.14Z"/><path class="cls-3" d="M173.66,197.91a1,1,0,0,0,0,1.47,1.05,1.05,0,0,0,1.48,0,1,1,0,0,0-1.45-1.49Z"/><path class="cls-3" d="M174.6,192.76a.88.88,0,0,0,0,1.23.86.86,0,0,0,1.23,0,.87.87,0,1,0-1.21-1.25Z"/><path class="cls-3" d="M173.93,187.43a.7.7,0,0,0,1,1,.7.7,0,0,0-1-1Z"/><path class="cls-3" d="M171.66,182.9a1,1,0,0,0,1.37,1.42,1,1,0,0,0,0-1.4A1,1,0,0,0,171.66,182.9Z"/><path class="cls-3" d="M185.65,194.74a.5.5,0,0,0,0,.71.5.5,0,1,0,0-.71Z"/><path class="cls-3" d="M188.08,189.25a.65.65,0,0,0,.91.94.65.65,0,1,0-.91-.94Z"/><path class="cls-3" d="M177.1,173.86a1.81,1.81,0,1,0,2.57,0A1.82,1.82,0,0,0,177.1,173.86Z"/><path class="cls-3" d="M192.39,187.8a.32.32,0,0,0,0,.46.33.33,0,0,0,.47-.46A.32.32,0,0,0,192.39,187.8Z"/><path class="cls-3" d="M183.52,172.76a2.17,2.17,0,1,0,3.07.05A2.18,2.18,0,0,0,183.52,172.76Z"/><path class="cls-3" d="M190.6,173.42a1.31,1.31,0,1,0,1.85,0A1.31,1.31,0,0,0,190.6,173.42Z"/><path class="cls-3" d="M190.51,166.43a2,2,0,1,0,2.84,0A2,2,0,0,0,190.51,166.43Z"/><path class="cls-3" d="M197,168a1.35,1.35,0,1,0,1.9,0A1.35,1.35,0,0,0,197,168Z"/><path class="cls-3" d="M200.07,162.93a1.16,1.16,0,1,0,1.65,0A1.16,1.16,0,0,0,200.07,162.93Z"/><path class="cls-3" d="M193.25,156.21a1.5,1.5,0,1,0,2.13,0A1.5,1.5,0,0,0,193.25,156.21Z"/><path class="cls-3" d="M202.32,156.48a1.56,1.56,0,1,0,2.2,0A1.56,1.56,0,0,0,202.32,156.48Z"/><path class="cls-3" d="M197.75,153.47a.6.6,0,1,0,.85,0A.6.6,0,0,0,197.75,153.47Z"/><path class="cls-3" d="M201.89,151.47a.29.29,0,0,0,0,.41.29.29,0,1,0,.42-.41A.28.28,0,0,0,201.89,151.47Z"/><path class="cls-3" d="M210,150.12a.52.52,0,0,0,0,.74.51.51,0,0,0,.73,0,.52.52,0,0,0-.72-.76Z"/><path class="cls-3" d="M209.89,149a.63.63,0,1,0,.87.9.63.63,0,0,0-.87-.9Z"/><path class="cls-3" d="M208.22,146.25a1.14,1.14,0,0,0,0,1.6,1.13,1.13,0,1,0,0-1.6Z"/><path class="cls-3" d="M217.53,145.12a1.14,1.14,0,1,0,1.59,1.64,1.14,1.14,0,1,0-1.59-1.64Z"/><path class="cls-3" d="M206,136.49a1,1,0,1,0,1.41,0A1,1,0,0,0,206,136.49Z"/><path class="cls-3" d="M198.1,132.48a.52.52,0,1,0,.74,0A.52.52,0,0,0,198.1,132.48Z"/><path class="cls-3" d="M218.42,127.88a1.1,1.1,0,1,0,1.56,0A1.1,1.1,0,0,0,218.42,127.88Z"/><path class="cls-3" d="M216.3,123.11a1.91,1.91,0,1,0,2.71,0A1.92,1.92,0,0,0,216.3,123.11Z"/><path class="cls-3" d="M213.64,122.61a.4.4,0,0,0,0,.56.4.4,0,0,0,.56,0,.4.4,0,1,0-.55-.57Z"/><path class="cls-3" d="M205.94,120.34a1.47,1.47,0,1,0,2.07,0A1.47,1.47,0,0,0,205.94,120.34Z"/><path class="cls-3" d="M214.2,116.15a.72.72,0,1,0,1,1,.72.72,0,1,0-1-1Z"/><path class="cls-3" d="M206.4,113.51a.8.8,0,0,0,1.11,1.15.8.8,0,0,0,0-1.13A.79.79,0,0,0,206.4,113.51Z"/><path class="cls-3" d="M198.05,111.69a.58.58,0,1,0,.8.83.57.57,0,0,0,0-.81A.58.58,0,0,0,198.05,111.69Z"/><path class="cls-3" d="M213.1,104.52a.54.54,0,0,0,0,.76.54.54,0,1,0,.78-.74A.54.54,0,0,0,213.1,104.52Z"/><path class="cls-3" d="M208.38,100.54a1.86,1.86,0,1,0,2.63,0A1.86,1.86,0,0,0,208.38,100.54Z"/><path class="cls-3" d="M214.58,95.8a1.23,1.23,0,1,0,1.74,0A1.23,1.23,0,0,0,214.58,95.8Z"/><path class="cls-3" d="M203.26,96.15a1.79,1.79,0,1,0,2.52,0A1.79,1.79,0,0,0,203.26,96.15Z"/><path class="cls-3" d="M211.15,88.48a1.73,1.73,0,1,0,2.44,0A1.74,1.74,0,0,0,211.15,88.48Z"/><path class="cls-3" d="M208.41,90a.51.51,0,1,0,.72,0A.52.52,0,0,0,208.41,90Z"/><path class="cls-3" d="M204.84,87.83a.86.86,0,1,0,1.2,0A.84.84,0,0,0,204.84,87.83Z"/><path class="cls-3" d="M197.08,92a.43.43,0,0,0,0,.62.44.44,0,1,0,0-.62Z"/><path class="cls-3" d="M190.05,89.53a2,2,0,1,0,2.73,2.82,2,2,0,0,0-2.73-2.82Z"/><path class="cls-3" d="M192.56,85.24a1.77,1.77,0,1,0,2.5,0A1.77,1.77,0,0,0,192.56,85.24Z"/><path class="cls-3" d="M200.48,79.2a.33.33,0,1,0,.46.48.34.34,0,0,0,0-.47A.32.32,0,0,0,200.48,79.2Z"/><path class="cls-3" d="M196.66,77.34a2,2,0,1,0,2.8,0A2,2,0,0,0,196.66,77.34Z"/><path class="cls-3" d="M185.69,80.76a1.91,1.91,0,1,0,2.7,0A1.9,1.9,0,0,0,185.69,80.76Z"/><path class="cls-3" d="M183.84,76.59a2.26,2.26,0,1,0,3.19,0A2.26,2.26,0,0,0,183.84,76.59Z"/><path class="cls-3" d="M189.62,66.93a1.62,1.62,0,1,0,2.26,2.33,1.62,1.62,0,1,0-2.26-2.33Z"/><path class="cls-3" d="M182.05,75a.64.64,0,0,0,0,.9.64.64,0,1,0,0-.9Z"/><path class="cls-3" d="M176.89,76.87a1.7,1.7,0,1,0,2.36,2.44,1.7,1.7,0,0,0-2.36-2.44Z"/><path class="cls-3" d="M180.4,65.5a1.84,1.84,0,0,0,0,2.61A1.85,1.85,0,1,0,183,65.54,1.84,1.84,0,0,0,180.4,65.5Z"/><path class="cls-3" d="M172.88,67.92a1.09,1.09,0,1,0,1.54,0A1.1,1.1,0,0,0,172.88,67.92Z"/><path class="cls-3" d="M177.25,56.19a2.13,2.13,0,1,0,3,.05A2.12,2.12,0,0,0,177.25,56.19Z"/><path class="cls-3" d="M171.58,58.3a.16.16,0,0,0,0,.24.15.15,0,0,0,.23,0,.17.17,0,0,0,0-.24A.16.16,0,0,0,171.58,58.3Z"/><path class="cls-3" d="M161.57,66.66a.61.61,0,0,0,0,.86.6.6,0,0,0,.86,0,.61.61,0,0,0,0-.86A.63.63,0,0,0,161.57,66.66Z"/><path class="cls-3" d="M162.69,52.89a1.14,1.14,0,0,0,1.58,1.63,1.14,1.14,0,0,0-1.58-1.63Z"/><path class="cls-3" d="M163.3,43.75a1.34,1.34,0,1,0,1.9,0A1.34,1.34,0,0,0,163.3,43.75Z"/><path class="cls-3" d="M154.57,51a.53.53,0,0,0,0,.74.52.52,0,0,0,.73,0,.51.51,0,0,0,0-.73A.52.52,0,0,0,154.57,51Z"/><path class="cls-3" d="M154,48.84a.36.36,0,0,0,.5.52.36.36,0,1,0-.5-.52Z"/><path class="cls-3" d="M153,40.33a1.05,1.05,0,0,0,0,1.48,1,1,0,0,0,1.5-1.45A1,1,0,0,0,153,40.33Z"/><path class="cls-3" d="M144.18,49.86a1.16,1.16,0,1,0,1.62,1.67,1.16,1.16,0,0,0-1.62-1.67Z"/><path class="cls-3" d="M143.94,42.7a1.62,1.62,0,1,0,2.3,0A1.62,1.62,0,0,0,143.94,42.7Z"/><path class="cls-3" d="M139.15,57.4a.28.28,0,1,0,.39,0A.28.28,0,0,0,139.15,57.4Z"/><path class="cls-3" d="M140.29,36.07a1.24,1.24,0,1,0,1.77,0A1.26,1.26,0,0,0,140.29,36.07Z"/><path class="cls-3" d="M172.72,46.86a2.07,2.07,0,1,0,2.62,1.28A2.06,2.06,0,0,0,172.72,46.86Z"/><path class="cls-3" d="M167.86,53a1.82,1.82,0,1,0,1.2,3.44,1.82,1.82,0,1,0-1.2-3.44Z"/><path class="cls-3" d="M169.79,44.53a.59.59,0,1,0,.38,1.11.57.57,0,0,0,.36-.74A.59.59,0,0,0,169.79,44.53Z"/><path class="cls-3" d="M159.58,54.5a1.08,1.08,0,1,0,1.37.66A1.08,1.08,0,0,0,159.58,54.5Z"/><path class="cls-3" d="M158.91,47.82a.54.54,0,0,0-.32.67.53.53,0,0,0,.67.32.52.52,0,0,0,.32-.67A.53.53,0,0,0,158.91,47.82Z"/><path class="cls-3" d="M148.18,56a1.75,1.75,0,0,0-1.07,2.21A1.74,1.74,0,1,0,148.18,56Z"/><path class="cls-3" d="M150.12,50.51a2,2,0,1,0,2.49,1.21A2,2,0,0,0,150.12,50.51Z"/><path class="cls-3" d="M147.05,54.3a.61.61,0,0,0-.37.77.6.6,0,0,0,1.13-.39A.6.6,0,0,0,147.05,54.3Z"/><path class="cls-3" d="M142.83,46.09a2.25,2.25,0,1,0,2.86,1.39A2.26,2.26,0,0,0,142.83,46.09Z"/><path class="cls-3" d="M139.4,45.22a.86.86,0,1,0,.56,1.62.85.85,0,0,0,.53-1.09A.87.87,0,0,0,139.4,45.22Z"/><path class="cls-3" d="M134.37,51.79a1.77,1.77,0,1,0,2.25,1.09A1.77,1.77,0,0,0,134.37,51.79Z"/><path class="cls-3" d="M132.3,43.4a1.21,1.21,0,0,0-.75,1.56,1.23,1.23,0,1,0,.75-1.56Z"/><path class="cls-3" d="M127.21,38.7a1.49,1.49,0,1,0,1.9.92A1.49,1.49,0,0,0,127.21,38.7Z"/><path class="cls-3" d="M123.56,51.22a2,2,0,1,0,2.51,1.22A2,2,0,0,0,123.56,51.22Z"/><path class="cls-3" d="M120.72,41a1.79,1.79,0,1,0,1.17,3.38A1.79,1.79,0,0,0,120.72,41Z"/><path class="cls-3" d="M115.5,38.08a.53.53,0,0,0,.35,1,.54.54,0,0,0,.32-.67A.53.53,0,0,0,115.5,38.08Z"/><path class="cls-3" d="M113.26,49.11a1.09,1.09,0,1,0,1.39.67A1.09,1.09,0,0,0,113.26,49.11Z"/><path class="cls-3" d="M110,55.56a.48.48,0,0,0-.28.59.46.46,0,0,0,.87-.3A.47.47,0,0,0,110,55.56Z"/><path class="cls-3" d="M99.4,42.52a1.17,1.17,0,1,0,1.5.73A1.18,1.18,0,0,0,99.4,42.52Z"/><path class="cls-3" d="M100,57.23a1.88,1.88,0,1,0,2.4,1.16A1.89,1.89,0,0,0,100,57.23Z"/><path class="cls-3" d="M95,46.82a.64.64,0,1,0,.81.39A.64.64,0,0,0,95,46.82Z"/><path class="cls-3" d="M94.52,55a.26.26,0,0,0-.16.33.27.27,0,0,0,.33.17.28.28,0,0,0,.17-.34A.26.26,0,0,0,94.52,55Z"/><path class="cls-3" d="M91.58,50.87a1.28,1.28,0,1,0,1.63.79A1.27,1.27,0,0,0,91.58,50.87Z"/><path class="cls-3" d="M91.77,57.59a.21.21,0,0,0-.12.26.2.2,0,0,0,.26.12.2.2,0,0,0,.12-.25A.21.21,0,0,0,91.77,57.59Z"/><path class="cls-3" d="M93,65.79a1.37,1.37,0,1,0,1.74.84A1.36,1.36,0,0,0,93,65.79Z"/><path class="cls-3" d="M77.06,51.12a1.36,1.36,0,1,0,1.73.84A1.36,1.36,0,0,0,77.06,51.12Z"/><path class="cls-3" d="M75,54.62a1.18,1.18,0,0,0-.72,1.49A1.17,1.17,0,1,0,75,54.62Z"/><path class="cls-3" d="M75.42,60.56a1.06,1.06,0,1,0,1.36.65A1.07,1.07,0,0,0,75.42,60.56Z"/><path class="cls-3" d="M78.82,70.37a.91.91,0,0,0-.56,1.15.9.9,0,0,0,1.16.56.91.91,0,1,0-.6-1.71Z"/><path class="cls-3" d="M79.21,74.33a1.57,1.57,0,1,0,2,1A1.57,1.57,0,0,0,79.21,74.33Z"/><path class="cls-3" d="M65.72,58.18a1,1,0,0,0,.68,2A1,1,0,0,0,67,58.82,1,1,0,0,0,65.72,58.18Z"/><path class="cls-3" d="M74.9,72.49a1.29,1.29,0,1,0,1.65.79A1.28,1.28,0,0,0,74.9,72.49Z"/><path class="cls-3" d="M74,78.69a1.21,1.21,0,1,0,1.53.75A1.19,1.19,0,0,0,74,78.69Z"/><path class="cls-3" d="M59,67A1.7,1.7,0,1,0,61.16,68,1.7,1.7,0,0,0,59,67Z"/><path class="cls-3" d="M62.17,74.12A2.2,2.2,0,1,0,65,75.48,2.21,2.21,0,0,0,62.17,74.12Z"/><path class="cls-3" d="M59.22,73.13a1.44,1.44,0,1,0,1.83.89A1.44,1.44,0,0,0,59.22,73.13Z"/><path class="cls-3" d="M55.52,76.51a1.74,1.74,0,1,0,2.22,1.08A1.76,1.76,0,0,0,55.52,76.51Z"/><path class="cls-3" d="M53.49,80.66a1.51,1.51,0,1,0,1.93.93A1.52,1.52,0,0,0,53.49,80.66Z"/><path class="cls-3" d="M63.62,92.43a.92.92,0,0,0-.57,1.17.93.93,0,0,0,1.18.57.92.92,0,0,0-.61-1.74Z"/><path class="cls-3" d="M48.7,86.83A1.07,1.07,0,0,0,48,88.21a1.09,1.09,0,1,0,.67-1.38Z"/><path class="cls-3" d="M60.5,98.61a1.39,1.39,0,1,0,1.76.86A1.39,1.39,0,0,0,60.5,98.61Z"/><path class="cls-3" d="M61.9,104a.15.15,0,0,0-.1.2.16.16,0,0,0,.2.09.16.16,0,0,0,.1-.2A.16.16,0,0,0,61.9,104Z"/><path class="cls-3" d="M44.94,102.45a1,1,0,1,0,1.26.61A1,1,0,0,0,44.94,102.45Z"/><path class="cls-3" d="M43.65,106.38a1.94,1.94,0,1,0,2.47,1.2A1.94,1.94,0,0,0,43.65,106.38Z"/><path class="cls-3" d="M40.08,111.72a.24.24,0,0,0-.14.3.23.23,0,0,0,.43-.15A.23.23,0,0,0,40.08,111.72Z"/><path class="cls-3" d="M39.34,110.38a1.95,1.95,0,1,0,2.47,1.2A1.94,1.94,0,0,0,39.34,110.38Z"/><path class="cls-3" d="M59,116.84a.77.77,0,1,0,1,.47A.77.77,0,0,0,59,116.84Z"/><path class="cls-3" d="M47.29,118.85a1.34,1.34,0,0,0,.88,2.53,1.34,1.34,0,1,0-.88-2.53Z"/><path class="cls-3" d="M41.89,123.13A1.46,1.46,0,0,0,41,125a1.46,1.46,0,1,0,.9-1.86Z"/><path class="cls-3" d="M43.24,128.38a1.55,1.55,0,1,0,2,1A1.55,1.55,0,0,0,43.24,128.38Z"/><path class="cls-3" d="M54.47,131.16a.68.68,0,0,0-.42.87.68.68,0,0,0,1.29-.45A.67.67,0,0,0,54.47,131.16Z"/><path class="cls-3" d="M36,134.78a1.62,1.62,0,1,0,2.06,1A1.62,1.62,0,0,0,36,134.78Z"/><path class="cls-3" d="M56.09,134.43a.52.52,0,0,0-.33.66.53.53,0,0,0,.67.33.54.54,0,0,0,.32-.67A.53.53,0,0,0,56.09,134.43Z"/><path class="cls-3" d="M53.1,138.68a.75.75,0,0,0-.46.95.75.75,0,1,0,.46-.95Z"/><path class="cls-3" d="M39.92,141.4a.69.69,0,0,0-.42.88.67.67,0,0,0,.87.42.69.69,0,0,0,.43-.87A.7.7,0,0,0,39.92,141.4Z"/><path class="cls-3" d="M52.24,143.05a1.39,1.39,0,1,0,1.77.85A1.38,1.38,0,0,0,52.24,143.05Z"/><path class="cls-3" d="M40.59,148.7a1.41,1.41,0,1,0,1.8.87A1.41,1.41,0,0,0,40.59,148.7Z"/><path class="cls-3" d="M41.15,151.93a.49.49,0,1,0,.63.3A.49.49,0,0,0,41.15,151.93Z"/><path class="cls-3" d="M54.46,147.12a1.08,1.08,0,1,0,1.38.67A1.07,1.07,0,0,0,54.46,147.12Z"/><path class="cls-3" d="M48,155.05a.84.84,0,0,0-.51,1.06.83.83,0,1,0,.51-1.06Z"/><path class="cls-3" d="M57.54,152.89a1,1,0,1,0,1.25.6A1,1,0,0,0,57.54,152.89Z"/><path class="cls-3" d="M54.3,157.8a2.19,2.19,0,0,0,1.43,4.14,2.19,2.19,0,0,0-1.43-4.14Z"/><path class="cls-3" d="M56.73,161.78a.86.86,0,1,0,1.1.53A.87.87,0,0,0,56.73,161.78Z"/><path class="cls-3" d="M63.94,162a1.93,1.93,0,1,0,2.45,1.19A1.93,1.93,0,0,0,63.94,162Z"/><path class="cls-3" d="M64.89,162.16a1.82,1.82,0,1,0,2.32,1.13A1.83,1.83,0,0,0,64.89,162.16Z"/><path class="cls-3" d="M51.53,179.42a.3.3,0,0,0-.18.37.29.29,0,1,0,.18-.37Z"/><path class="cls-3" d="M58.73,176.86a1.21,1.21,0,0,0-.73,1.52,1.19,1.19,0,0,0,2.25-.78A1.21,1.21,0,0,0,58.73,176.86Z"/><path class="cls-3" d="M59.46,183.58a1,1,0,0,0-.59,1.23,1,1,0,0,0,1.22.59,1,1,0,1,0-.63-1.82Z"/><path class="cls-3" d="M69.49,177.83a.81.81,0,0,0-.5,1,.81.81,0,0,0,1.53-.53A.81.81,0,0,0,69.49,177.83Z"/><path class="cls-3" d="M70.72,180.48a2,2,0,1,0,2.59,1.25A2,2,0,0,0,70.72,180.48Z"/><path class="cls-3" d="M65.17,191.55a.81.81,0,1,0,1,.5A.8.8,0,0,0,65.17,191.55Z"/><path class="cls-3" d="M67.86,189.84a.36.36,0,0,0-.22.46.37.37,0,0,0,.46.23.36.36,0,0,0,.22-.46A.37.37,0,0,0,67.86,189.84Z"/><path class="cls-3" d="M79.15,179.27a1.54,1.54,0,1,0,2,.95A1.54,1.54,0,0,0,79.15,179.27Z"/><path class="cls-3" d="M78.27,186.57a1.48,1.48,0,1,0,1.88.91A1.47,1.47,0,0,0,78.27,186.57Z"/><path class="cls-3" d="M87.31,184.52a1.65,1.65,0,1,0,2.11,1A1.65,1.65,0,0,0,87.31,184.52Z"/><path class="cls-3" d="M83.2,192.56a1.42,1.42,0,0,0-.87,1.81,1.42,1.42,0,0,0,2.68-.93A1.43,1.43,0,0,0,83.2,192.56Z"/><path class="cls-3" d="M86,196a1.73,1.73,0,1,0,2.21,1.07A1.73,1.73,0,0,0,86,196Z"/><path class="cls-3" d="M86.75,204.34a.83.83,0,1,0,1,.51A.83.83,0,0,0,86.75,204.34Z"/><path class="cls-3" d="M86.75,203.21a2,2,0,1,0,2.59,1.25A2,2,0,0,0,86.75,203.21Z"/><path class="cls-3" d="M90,206.71A2,2,0,1,0,92.59,208,2,2,0,0,0,90,206.71Z"/><path class="cls-3" d="M94.81,209.34a1.38,1.38,0,1,0,1.75.85A1.38,1.38,0,0,0,94.81,209.34Z"/><path class="cls-3" d="M95,214.18a.21.21,0,0,0-.13.27.22.22,0,0,0,.28.14.22.22,0,0,0,.13-.28A.22.22,0,0,0,95,214.18Z"/><path class="cls-3" d="M102.29,205a.25.25,0,0,0,.16.47.24.24,0,0,0,.15-.31A.25.25,0,0,0,102.29,205Z"/><path class="cls-3" d="M105.83,215.08a.2.2,0,1,0,.13.37.2.2,0,0,0,.11-.25A.19.19,0,0,0,105.83,215.08Z"/><path class="cls-3" d="M109.1,206.91a1.46,1.46,0,1,0,1.86.9A1.45,1.45,0,0,0,109.1,206.91Z"/><path class="cls-3" d="M111.84,211.28a1.1,1.1,0,1,0,.72,2.08,1.1,1.1,0,1,0-.72-2.08Z"/><path class="cls-3" d="M118.91,203a.9.9,0,1,0,1.15.55A.9.9,0,0,0,118.91,203Z"/><path class="cls-3" d="M119.29,207.85a1.76,1.76,0,1,0,2.24,1.08A1.76,1.76,0,0,0,119.29,207.85Z"/><path class="cls-3" d="M124.15,196.28a1.14,1.14,0,0,0,.75,2.15,1.14,1.14,0,0,0-.75-2.15Z"/><path class="cls-3" d="M127.79,204.63a.51.51,0,0,0-.31.65.5.5,0,0,0,.65.32.51.51,0,0,0,.32-.65A.52.52,0,0,0,127.79,204.63Z"/><path class="cls-3" d="M128.72,211.69a1,1,0,1,0,1.3.63A1,1,0,0,0,128.72,211.69Z"/><path class="cls-3" d="M131.8,200.36a1,1,0,1,0,1.23.6A1,1,0,0,0,131.8,200.36Z"/><path class="cls-3" d="M134,199.21a.62.62,0,0,0-.39.8.63.63,0,0,0,.81.39.62.62,0,0,0,.38-.8A.63.63,0,0,0,134,199.21Z"/><path class="cls-3" d="M138.16,208.39a1.67,1.67,0,1,0,2.12,1A1.67,1.67,0,0,0,138.16,208.39Z"/><path class="cls-3" d="M139.81,211.11a1,1,0,1,0,1.32.64A1,1,0,0,0,139.81,211.11Z"/><path class="cls-3" d="M142.83,206.84a.89.89,0,0,0-.54,1.11.87.87,0,1,0,.54-1.11Z"/><path class="cls-3" d="M144.47,201.73a.7.7,0,1,0,.89.43A.71.71,0,0,0,144.47,201.73Z"/><path class="cls-3" d="M144.32,196.66a1,1,0,1,0,1.26.61A1,1,0,0,0,144.32,196.66Z"/><path class="cls-3" d="M152,213.3a.5.5,0,0,0-.31.64.5.5,0,0,0,1-.33A.5.5,0,0,0,152,213.3Z"/><path class="cls-3" d="M156.54,209.35a.66.66,0,0,0-.41.83.68.68,0,0,0,.84.41.66.66,0,0,0,.4-.84A.65.65,0,0,0,156.54,209.35Z"/><path class="cls-3" d="M153.08,190.76a1.81,1.81,0,1,0,2.3,1.12A1.81,1.81,0,0,0,153.08,190.76Z"/><path class="cls-3" d="M161.05,209.85a.32.32,0,0,0-.2.41.33.33,0,0,0,.62-.21A.33.33,0,0,0,161.05,209.85Z"/><path class="cls-3" d="M159.36,192.48a2.16,2.16,0,1,0,2.76,1.33A2.17,2.17,0,0,0,159.36,192.48Z"/><path class="cls-3" d="M165.5,196.06a1.31,1.31,0,1,0,1.66.8A1.3,1.3,0,0,0,165.5,196.06Z"/><path class="cls-3" d="M168.36,189.69a2,2,0,1,0,2.56,1.24A2,2,0,0,0,168.36,189.69Z"/><path class="cls-3" d="M173.55,193.84a1.35,1.35,0,1,0,1.72.83A1.35,1.35,0,0,0,173.55,193.84Z"/><path class="cls-3" d="M178.51,190.55a1.15,1.15,0,1,0,1.48.71A1.16,1.16,0,0,0,178.51,190.55Z"/><path class="cls-3" d="M175.16,181.58a1.5,1.5,0,0,0,1,2.84,1.5,1.5,0,1,0-1-2.84Z"/><path class="cls-3" d="M183.27,185.65a1.55,1.55,0,1,0,2,1A1.55,1.55,0,0,0,183.27,185.65Z"/><path class="cls-3" d="M180.4,181a.6.6,0,0,0-.37.77.6.6,0,1,0,.37-.77Z"/><path class="cls-3" d="M185,180.92a.29.29,0,0,0-.18.37.29.29,0,0,0,.38.18.29.29,0,1,0-.2-.55Z"/><path class="cls-3" d="M192.9,183.12a.52.52,0,0,0-.33.66.52.52,0,0,0,1-.34A.51.51,0,0,0,192.9,183.12Z"/><path class="cls-3" d="M193.3,182a.63.63,0,0,0-.39.8.64.64,0,0,0,.81.39.63.63,0,0,0-.42-1.19Z"/><path class="cls-3" d="M192.94,178.87a1.12,1.12,0,0,0-.7,1.43,1.14,1.14,0,0,0,1.44.7,1.13,1.13,0,0,0,.69-1.44A1.11,1.11,0,0,0,192.94,178.87Z"/><path class="cls-3" d="M201.86,181.76a1.14,1.14,0,1,0,1.45.71A1.15,1.15,0,0,0,201.86,181.76Z"/><path class="cls-3" d="M195,169.07a1,1,0,1,0,1.26.61A1,1,0,0,0,195,169.07Z"/><path class="cls-3" d="M189.58,162.11a.52.52,0,1,0,.34,1,.52.52,0,1,0-.34-1Z"/><path class="cls-3" d="M209.93,166.52a1.1,1.1,0,1,0,1.4.68A1.1,1.1,0,0,0,209.93,166.52Z"/><path class="cls-3" d="M210,161.29a1.91,1.91,0,1,0,2.43,1.18A1.91,1.91,0,0,0,210,161.29Z"/><path class="cls-3" d="M207.83,159.71a.4.4,0,1,0,.26.75.38.38,0,0,0,.24-.5A.39.39,0,0,0,207.83,159.71Z"/><path class="cls-3" d="M201.81,154.41a1.47,1.47,0,1,0,1.86.91A1.47,1.47,0,0,0,201.81,154.41Z"/><path class="cls-3" d="M211.06,154.1a.72.72,0,0,0,.47,1.36.72.72,0,1,0-.47-1.36Z"/><path class="cls-3" d="M205.1,148.41a.8.8,0,1,0,.53,1.51.81.81,0,0,0,.49-1A.8.8,0,0,0,205.1,148.41Z"/><path class="cls-3" d="M198.29,143.24a.58.58,0,1,0,.74.36A.57.57,0,0,0,198.29,143.24Z"/><path class="cls-3" d="M215,143.09a.54.54,0,1,0,.68.33A.54.54,0,0,0,215,143.09Z"/><path class="cls-3" d="M212.37,137.49a1.86,1.86,0,1,0,1.21,3.51,1.86,1.86,0,1,0-1.21-3.51Z"/><path class="cls-3" d="M220,135.81a1.22,1.22,0,1,0,1.56.75A1.22,1.22,0,0,0,220,135.81Z"/><path class="cls-3" d="M209.57,131.35a1.78,1.78,0,1,0,2.28,1.1A1.78,1.78,0,0,0,209.57,131.35Z"/><path class="cls-3" d="M220,127.73a1.73,1.73,0,1,0,2.2,1.06A1.73,1.73,0,0,0,220,127.73Z"/><path class="cls-3" d="M216.83,128a.51.51,0,1,0,.65.32A.51.51,0,0,0,216.83,128Z"/><path class="cls-3" d="M214.52,124.47a.86.86,0,1,0,1.09.53A.86.86,0,0,0,214.52,124.47Z"/><path class="cls-3" d="M205.72,125a.45.45,0,0,0-.27.56.44.44,0,0,0,.83-.28A.45.45,0,0,0,205.72,125Z"/><path class="cls-3" d="M200.39,119.77a2,2,0,1,0,2.5,1.21A2,2,0,0,0,200.39,119.77Z"/><path class="cls-3" d="M204.48,116.94a1.77,1.77,0,1,0,2.26,1.09A1.77,1.77,0,0,0,204.48,116.94Z"/><path class="cls-3" d="M214.21,114.81a.33.33,0,1,0,.42.2A.33.33,0,0,0,214.21,114.81Z"/><path class="cls-3" d="M211.53,111.51a2,2,0,1,0,2.52,1.22A2,2,0,0,0,211.53,111.51Z"/><path class="cls-3" d="M200.14,110a1.91,1.91,0,1,0,2.43,1.18A1.91,1.91,0,0,0,200.14,110Z"/><path class="cls-3" d="M200.22,105.42a2.26,2.26,0,1,0,2.87,1.39A2.27,2.27,0,0,0,200.22,105.42Z"/><path class="cls-3" d="M209.54,99.1a1.63,1.63,0,1,0,2.07,1A1.64,1.64,0,0,0,209.54,99.1Z"/><path class="cls-3" d="M199.29,103.18a.64.64,0,0,0-.39.81.61.61,0,0,0,.8.39.62.62,0,0,0,.39-.8A.63.63,0,0,0,199.29,103.18Z"/><path class="cls-3" d="M193.81,102.74a1.7,1.7,0,1,0,2.16,1.05A1.7,1.7,0,0,0,193.81,102.74Z"/><path class="cls-3" d="M201.79,93.91a1.85,1.85,0,1,0,2.35,1.14A1.84,1.84,0,0,0,201.79,93.91Z"/><path class="cls-3" d="M194,92.93a1.09,1.09,0,1,0,1.38.67A1.07,1.07,0,0,0,194,92.93Z"/><path class="cls-3" d="M202.86,84.15a2.13,2.13,0,1,0,2.71,1.31A2.12,2.12,0,0,0,202.86,84.15Z"/><path class="cls-3" d="M196.83,83.66a.17.17,0,0,0-.1.22.16.16,0,0,0,.21.1.16.16,0,0,0,.11-.21A.18.18,0,0,0,196.83,83.66Z"/><path class="cls-3" d="M184.23,87a.61.61,0,1,0,.78.38A.61.61,0,0,0,184.23,87Z"/><path class="cls-3" d="M191.06,75a1.13,1.13,0,1,0,1.43.69A1.13,1.13,0,0,0,191.06,75Z"/><path class="cls-3" d="M195.46,67a1.34,1.34,0,1,0,.88,2.54,1.34,1.34,0,1,0-.88-2.54Z"/><path class="cls-3" d="M184.49,69.86a.53.53,0,0,0-.32.66.52.52,0,1,0,.32-.66Z"/><path class="cls-3" d="M184.91,67.68a.36.36,0,0,0-.22.46.36.36,0,1,0,.68-.24A.36.36,0,0,0,184.91,67.68Z"/><path class="cls-3" d="M187.54,59.52a1,1,0,1,0,1.33.65A1,1,0,0,0,187.54,59.52Z"/><path class="cls-3" d="M175.55,64.45a1.16,1.16,0,1,0,1.48.72A1.16,1.16,0,0,0,175.55,64.45Z"/><path class="cls-3" d="M178.36,57.86a1.62,1.62,0,1,0,2.06,1A1.61,1.61,0,0,0,178.36,57.86Z"/><path class="cls-3" d="M167.81,69.17a.28.28,0,0,0-.17.35.27.27,0,0,0,.35.16.26.26,0,0,0,.16-.34A.26.26,0,0,0,167.81,69.17Z"/><path class="cls-3" d="M177.84,50.31a1.24,1.24,0,1,0,1.59.77A1.24,1.24,0,0,0,177.84,50.31Z"/><circle class="cls-4" cx="128.08" cy="128.08" r="128.08"/></g><g class="cls-5"><g id="forme_1"><path class="cls-3" d="M217.56,185.28a.8.8,0,1,1-.64.93A.81.81,0,0,1,217.56,185.28Z"/><path class="cls-3" d="M207.87,171.17a.8.8,0,1,1-.64.93A.8.8,0,0,1,207.87,171.17Z"/><path class="cls-3" d="M190.28,181.37a.8.8,0,0,1,.3,1.57.8.8,0,1,1-.3-1.57Z"/><path class="cls-3" d="M191.17,168.88a.8.8,0,1,1-.64.94A.8.8,0,0,1,191.17,168.88Z"/><path class="cls-3" d="M214.72,164.78a.8.8,0,0,1,.3,1.58.8.8,0,0,1-.3-1.58Z"/><path class="cls-3" d="M190.74,190a1,1,0,0,1,.37,1.93,1,1,0,0,1-1.15-.78A1,1,0,0,1,190.74,190Z"/><path class="cls-3" d="M207.87,193a1,1,0,0,1,.36,1.93,1,1,0,1,1-.36-1.93Z"/><path class="cls-3" d="M200.41,177.8a1,1,0,0,1,1.15.79,1,1,0,0,1-.79,1.14,1,1,0,0,1-1.14-.78A1,1,0,0,1,200.41,177.8Z"/><path class="cls-3" d="M205.75,160.72a1,1,0,1,1-.78,1.15A1,1,0,0,1,205.75,160.72Z"/><path class="cls-3" d="M216.75,176a1,1,0,1,1-.78,1.14A1,1,0,0,1,216.75,176Z"/><path class="cls-3" d="M221.78,202.44a1,1,0,0,1,1.15.78,1,1,0,0,1-1.94.37A1,1,0,0,1,221.78,202.44Z"/><path class="cls-3" d="M228.94,187.27a1,1,0,1,1-.78,1.15A1,1,0,0,1,228.94,187.27Z"/><path class="cls-3" d="M232,169.12a1,1,0,1,1-.78,1.15A1,1,0,0,1,232,169.12Z"/><path class="cls-3" d="M220.86,157a1,1,0,1,1-.79,1.15A1,1,0,0,1,220.86,157Z"/><path class="cls-3" d="M171.3,165.09a.8.8,0,1,1-.94.63A.8.8,0,0,1,171.3,165.09Z"/><path class="cls-3" d="M167.6,148.38a.8.8,0,1,1-.31,1.57.8.8,0,0,1,.31-1.57Z"/><path class="cls-3" d="M176.35,145a.8.8,0,0,1,.62.95.8.8,0,0,1-1.56-.32A.81.81,0,0,1,176.35,145Z"/><path class="cls-3" d="M199.65,148.16a.8.8,0,1,1-.94.63A.8.8,0,0,1,199.65,148.16Z"/><path class="cls-3" d="M159.43,168.59a1,1,0,0,1,.77,1.15,1,1,0,1,1-.77-1.15Z"/><path class="cls-3" d="M158.2,151.73a1,1,0,0,1,.77,1.16,1,1,0,0,1-1.93-.38A1,1,0,0,1,158.2,151.73Z"/><path class="cls-3" d="M169.56,137.9a1,1,0,1,1-1.16.77A1,1,0,0,1,169.56,137.9Z"/><path class="cls-3" d="M177.18,124.62a1,1,0,1,1-1.16.78A1,1,0,0,1,177.18,124.62Z"/><path class="cls-3" d="M174,156.18a1,1,0,1,1-1.16.77A1,1,0,0,1,174,156.18Z"/><path class="cls-3" d="M168.78,182.58a1,1,0,0,1,.77,1.16,1,1,0,1,1-.77-1.16Z"/><path class="cls-3" d="M181.11,171.2A1,1,0,1,1,180,172,1,1,0,0,1,181.11,171.2Z"/><path class="cls-3" d="M190.76,155.53a1,1,0,0,1,.78,1.15,1,1,0,1,1-1.93-.38A1,1,0,0,1,190.76,155.53Z"/><path class="cls-3" d="M185,140.11a1,1,0,0,1,.77,1.16,1,1,0,1,1-.77-1.16Z"/><path class="cls-3" d="M197.72,133.8a1,1,0,0,1,.77,1.15,1,1,0,1,1-1.93-.38A1,1,0,0,1,197.72,133.8Z"/><path class="cls-3" d="M208.21,151.37a1,1,0,1,1-1.15.77A1,1,0,0,1,208.21,151.37Z"/><path class="cls-3" d="M189,121a.8.8,0,1,1-.94.63A.8.8,0,0,1,189,121Z"/><path class="cls-3" d="M185.32,104.31a.8.8,0,1,1-.31,1.56.8.8,0,1,1,.31-1.56Z"/><path class="cls-3" d="M163.92,107.17a.8.8,0,1,1-.31,1.57.8.8,0,0,1,.31-1.57Z"/><path class="cls-3" d="M170.69,95.93a.8.8,0,1,1-.94.63A.8.8,0,0,1,170.69,95.93Z"/><path class="cls-3" d="M194.06,101a.8.8,0,1,1-.31,1.57.8.8,0,0,1,.31-1.57Z"/><path class="cls-3" d="M217.37,104.09a.8.8,0,1,1-.32,1.57.8.8,0,0,1,.32-1.57Z"/><path class="cls-3" d="M160,94.27a1,1,0,1,1-.38,1.93,1,1,0,0,1,.38-1.93Z"/><path class="cls-3" d="M160.26,115.39a1,1,0,0,1,.77,1.15,1,1,0,1,1-1.93-.38A1,1,0,0,1,160.26,115.39Z"/><path class="cls-3" d="M159.91,127.52a1,1,0,0,1-.39,1.93,1,1,0,0,1-.77-1.16A1,1,0,0,1,159.91,127.52Z"/><path class="cls-3" d="M177.15,124.52a1,1,0,1,1-1.16.77A1,1,0,0,1,177.15,124.52Z"/><path class="cls-3" d="M175.92,107.66a1,1,0,1,1-1.16.77A1,1,0,0,1,175.92,107.66Z"/><path class="cls-3" d="M177,84.18a1,1,0,1,1-.39,1.93,1,1,0,0,1,.39-1.93Z"/><path class="cls-3" d="M187.27,93.82a1,1,0,0,1,.78,1.16,1,1,0,0,1-1.16.77,1,1,0,0,1,.38-1.93Z"/><path class="cls-3" d="M194.9,80.55a1,1,0,0,1,.77,1.16,1,1,0,0,1-1.15.77,1,1,0,1,1,.38-1.93Z"/><path class="cls-3" d="M191.74,112.11a1,1,0,0,1,.78,1.16,1,1,0,0,1-1.93-.39A1,1,0,0,1,191.74,112.11Z"/><path class="cls-3" d="M198.82,127.13a1,1,0,1,1-1.15.77A1,1,0,0,1,198.82,127.13Z"/><path class="cls-3" d="M208.48,111.45a1,1,0,1,1-.38,1.93,1,1,0,0,1-.77-1.15A1,1,0,0,1,208.48,111.45Z"/><path class="cls-3" d="M202.67,96a1,1,0,1,1-1.16.77A1,1,0,0,1,202.67,96Z"/><path class="cls-3" d="M215.44,89.72a1,1,0,1,1-.39,1.93,1,1,0,0,1-.77-1.15A1,1,0,0,1,215.44,89.72Z"/><path class="cls-3" d="M225.93,107.3a1,1,0,0,1,.78,1.15,1,1,0,0,1-1.16.78,1,1,0,0,1,.38-1.93Z"/><path class="cls-3" d="M51.32,94.35a.8.8,0,1,1,.64-.93A.8.8,0,0,1,51.32,94.35Z"/><path class="cls-3" d="M68.91,84.15a.79.79,0,0,1-.93-.63.8.8,0,1,1,1.57-.3A.8.8,0,0,1,68.91,84.15Z"/><path class="cls-3" d="M68,96.64a.8.8,0,1,1,.63-.93A.8.8,0,0,1,68,96.64Z"/><path class="cls-3" d="M44.47,100.74a.8.8,0,0,1-.93-.64.79.79,0,0,1,.63-.93.8.8,0,1,1,.3,1.57Z"/><path class="cls-3" d="M21.69,106.56a.8.8,0,1,1,.64-.93A.81.81,0,0,1,21.69,106.56Z"/><path class="cls-3" d="M68.45,75.48a1,1,0,0,1-1.15-.79,1,1,0,0,1,.79-1.14,1,1,0,1,1,.36,1.93Z"/><path class="cls-3" d="M51.33,72.56a1,1,0,1,1,.78-1.15A1,1,0,0,1,51.33,72.56Z"/><path class="cls-3" d="M58.78,87.72a1,1,0,1,1,.79-1.15A1,1,0,0,1,58.78,87.72Z"/><path class="cls-3" d="M53.44,104.81a1,1,0,0,1-.37-1.94,1,1,0,0,1,1.15.78A1,1,0,0,1,53.44,104.81Z"/><path class="cls-3" d="M42.44,89.53a1,1,0,0,1-.36-1.94,1,1,0,0,1,.36,1.94Z"/><path class="cls-3" d="M27.17,96.4A1,1,0,1,1,28,95.25,1,1,0,0,1,27.17,96.4Z"/><path class="cls-3" d="M38.33,108.51a1,1,0,1,1,.79-1.15A1,1,0,0,1,38.33,108.51Z"/><path class="cls-3" d="M28.86,119.16a1,1,0,1,1,.79-1.15A1,1,0,0,1,28.86,119.16Z"/><path class="cls-3" d="M12.55,106.8a1,1,0,1,1,.78-1.16A1,1,0,0,1,12.55,106.8Z"/><path class="cls-3" d="M87.89,100.43a.8.8,0,1,1,.31-1.57.8.8,0,0,1-.31,1.57Z"/><path class="cls-3" d="M91.59,117.14a.81.81,0,0,1-.63-.94.8.8,0,0,1,.94-.62.8.8,0,1,1-.31,1.56Z"/><path class="cls-3" d="M82.84,120.5a.8.8,0,0,1,.32-1.57.81.81,0,0,1,.63.94A.82.82,0,0,1,82.84,120.5Z"/><path class="cls-3" d="M59.54,117.36a.8.8,0,1,1,.94-.63A.81.81,0,0,1,59.54,117.36Z"/><path class="cls-3" d="M99.76,96.94A1,1,0,0,1,99,95.78a1,1,0,0,1,1.15-.77,1,1,0,0,1,.78,1.15A1,1,0,0,1,99.76,96.94Z"/><path class="cls-3" d="M101,113.79a1,1,0,1,1,1.16-.77A1,1,0,0,1,101,113.79Z"/><path class="cls-3" d="M89.64,127.63A1,1,0,1,1,90,125.7a1,1,0,0,1-.38,1.93Z"/><path class="cls-3" d="M82,140.9a1,1,0,0,1-.77-1.16,1,1,0,0,1,1.15-.77A1,1,0,1,1,82,140.9Z"/><path class="cls-3" d="M85.17,109.34a1,1,0,0,1-.78-1.15,1,1,0,1,1,1.93.38A1,1,0,0,1,85.17,109.34Z"/><path class="cls-3" d="M90.41,82.94a1,1,0,0,1-.77-1.16A1,1,0,0,1,90.79,81a1,1,0,1,1-.38,1.93Z"/><path class="cls-3" d="M78.09,94.32a1,1,0,1,1,1.15-.77A1,1,0,0,1,78.09,94.32Z"/><path class="cls-3" d="M68.43,110a1,1,0,1,1,1.15-.77A1,1,0,0,1,68.43,110Z"/><path class="cls-3" d="M74.24,125.41a1,1,0,1,1,1.16-.77A1,1,0,0,1,74.24,125.41Z"/><path class="cls-3" d="M61.47,131.73a1,1,0,1,1,.39-1.93,1,1,0,0,1,.77,1.15A1,1,0,0,1,61.47,131.73Z"/><path class="cls-3" d="M51,114.15A1,1,0,0,1,50.2,113a1,1,0,1,1,1.93.38A1,1,0,0,1,51,114.15Z"/><path class="cls-3" d="M70.17,144.5a.79.79,0,0,1-.62-.94.8.8,0,1,1,1.56.31A.79.79,0,0,1,70.17,144.5Z"/><path class="cls-3" d="M73.87,161.21a.8.8,0,0,1,.32-1.56.8.8,0,1,1-.32,1.56Z"/><path class="cls-3" d="M95.27,158.35a.8.8,0,1,1,.31-1.57.8.8,0,0,1-.31,1.57Z"/><path class="cls-3" d="M88.5,169.59a.8.8,0,0,1-.63-.94.81.81,0,0,1,.94-.63.8.8,0,0,1,.63.95A.79.79,0,0,1,88.5,169.59Z"/><path class="cls-3" d="M65.13,164.57a.8.8,0,1,1,.94-.63A.8.8,0,0,1,65.13,164.57Z"/><path class="cls-3" d="M41.82,161.43a.79.79,0,0,1-.62-.94.8.8,0,1,1,1.56.31A.79.79,0,0,1,41.82,161.43Z"/><path class="cls-3" d="M99.21,171.25a1,1,0,0,1-.77-1.16,1,1,0,0,1,1.15-.77,1,1,0,0,1-.38,1.93Z"/><path class="cls-3" d="M98.94,150.13a1,1,0,1,1,1.15-.77A1,1,0,0,1,98.94,150.13Z"/><path class="cls-3" d="M99.28,138a1,1,0,0,1-.77-1.16,1,1,0,1,1,.77,1.16Z"/><path class="cls-3" d="M82,141a1,1,0,1,1,1.16-.77A1,1,0,0,1,82,141Z"/><path class="cls-3" d="M83.28,157.86a1,1,0,1,1,1.15-.77A1,1,0,0,1,83.28,157.86Z"/><path class="cls-3" d="M82.17,181.34a1,1,0,1,1,1.15-.77A1,1,0,0,1,82.17,181.34Z"/><path class="cls-3" d="M71.92,171.7a1,1,0,0,1-.77-1.16,1,1,0,1,1,.77,1.16Z"/><path class="cls-3" d="M64.29,185a1,1,0,1,1,.39-1.93,1,1,0,0,1,.77,1.16A1,1,0,0,1,64.29,185Z"/><path class="cls-3" d="M67.45,153.41a1,1,0,0,1,.38-1.92,1,1,0,1,1-.38,1.92Z"/><path class="cls-3" d="M60.37,138.39a1,1,0,1,1,.38-1.93,1,1,0,0,1,.78,1.16A1,1,0,0,1,60.37,138.39Z"/><path class="cls-3" d="M50.71,154.07a1,1,0,0,1-.77-1.16,1,1,0,0,1,1.93.38A1,1,0,0,1,50.71,154.07Z"/><path class="cls-3" d="M56.52,169.48a1,1,0,1,1,.39-1.93,1,1,0,0,1-.39,1.93Z"/><path class="cls-3" d="M43.76,175.8a1,1,0,0,1,.38-1.93,1,1,0,0,1-.38,1.93Z"/><path class="cls-3" d="M33.26,158.23a1,1,0,0,1-.77-1.16,1,1,0,0,1,1.93.38A1,1,0,0,1,33.26,158.23Z"/><path class="cls-3" d="M172.39,46.84a.8.8,0,1,1,.94.64A.82.82,0,0,1,172.39,46.84Z"/><path class="cls-3" d="M182.59,64.43a.82.82,0,0,1,.64-.94.8.8,0,1,1-.64.94Z"/><path class="cls-3" d="M170.11,63.54a.8.8,0,0,1,1.57-.3.81.81,0,0,1-.64.94A.8.8,0,0,1,170.11,63.54Z"/><path class="cls-3" d="M166,40a.8.8,0,1,1,1.57-.3A.8.8,0,0,1,166,40Z"/><path class="cls-3" d="M191.27,64a1,1,0,0,1,.78-1.15,1,1,0,1,1,.36,1.93A1,1,0,0,1,191.27,64Z"/><path class="cls-3" d="M194.19,46.84a1,1,0,1,1,1.15.79A1,1,0,0,1,194.19,46.84Z"/><path class="cls-3" d="M179,54.3a1,1,0,1,1,1.15.78A1,1,0,0,1,179,54.3Z"/><path class="cls-3" d="M161.94,49a1,1,0,1,1,1.15.79A1,1,0,0,1,161.94,49Z"/><path class="cls-3" d="M177.22,38a1,1,0,1,1,1.15.78A1,1,0,0,1,177.22,38Z"/><path class="cls-3" d="M170.34,22.68a1,1,0,1,1,1.15.79A1,1,0,0,1,170.34,22.68Z"/><path class="cls-3" d="M158.23,33.85A1,1,0,0,1,159,32.7a1,1,0,0,1,1.16.78,1,1,0,0,1-1.94.37Z"/><path class="cls-3" d="M147.59,24.38a1,1,0,0,1,1.93-.37,1,1,0,0,1-.78,1.15A1,1,0,0,1,147.59,24.38Z"/><path class="cls-3" d="M166.31,83.4a.8.8,0,1,1,.63.95A.82.82,0,0,1,166.31,83.4Z"/><path class="cls-3" d="M149.6,87.11a.8.8,0,1,1,.63.94A.8.8,0,0,1,149.6,87.11Z"/><path class="cls-3" d="M146.25,78.36a.81.81,0,0,1,.94-.63.8.8,0,0,1,.62.94.78.78,0,0,1-.93.63A.8.8,0,0,1,146.25,78.36Z"/><path class="cls-3" d="M149.39,55.06a.79.79,0,0,1,.94-.63.8.8,0,0,1,.62.94.8.8,0,0,1-1.56-.31Z"/><path class="cls-3" d="M169.81,95.28a1,1,0,1,1,1.93.38,1,1,0,0,1-1.16.77A1,1,0,0,1,169.81,95.28Z"/><path class="cls-3" d="M153,96.51a1,1,0,1,1,1.92.38,1,1,0,1,1-1.92-.38Z"/><path class="cls-3" d="M139.12,85.15a1,1,0,0,1,1.16-.77,1,1,0,1,1-1.16.77Z"/><path class="cls-3" d="M125.85,77.52a1,1,0,0,1,1.16-.77,1,1,0,0,1-.39,1.93A1,1,0,0,1,125.85,77.52Z"/><path class="cls-3" d="M157.4,80.68a1,1,0,1,1,.77,1.16A1,1,0,0,1,157.4,80.68Z"/><path class="cls-3" d="M183.81,85.93a1,1,0,1,1,1.92.38,1,1,0,0,1-1.92-.38Z"/><path class="cls-3" d="M172.43,73.6a1,1,0,1,1,.77,1.16A1,1,0,0,1,172.43,73.6Z"/><path class="cls-3" d="M156.75,63.94a1,1,0,1,1,.77,1.16A1,1,0,0,1,156.75,63.94Z"/><path class="cls-3" d="M141.34,69.76a1,1,0,1,1,.77,1.15A1,1,0,0,1,141.34,69.76Z"/><path class="cls-3" d="M135,57a1,1,0,1,1,.77,1.15A1,1,0,0,1,135,57Z"/><path class="cls-3" d="M152.59,46.49a1,1,0,1,1,.78,1.16A1,1,0,0,1,152.59,46.49Z"/><path class="cls-3" d="M122.24,65.69a.81.81,0,0,1,.94-.63.8.8,0,1,1-.31,1.57A.81.81,0,0,1,122.24,65.69Z"/><path class="cls-3" d="M105.53,69.39a.8.8,0,1,1,.63.94A.8.8,0,0,1,105.53,69.39Z"/><path class="cls-3" d="M108.4,90.79a.78.78,0,0,1,.93-.63.79.79,0,0,1,.63.94.8.8,0,1,1-1.56-.31Z"/><path class="cls-3" d="M97.15,84a.8.8,0,0,1,1.57.31A.8.8,0,1,1,97.15,84Z"/><path class="cls-3" d="M102.18,60.64a.8.8,0,0,1,1.56.31.8.8,0,1,1-1.56-.31Z"/><path class="cls-3" d="M105.31,37.34a.8.8,0,1,1,.63.94A.8.8,0,0,1,105.31,37.34Z"/><path class="cls-3" d="M95.5,94.72A1,1,0,0,1,96.65,94a1,1,0,1,1-.38,1.93A1,1,0,0,1,95.5,94.72Z"/><path class="cls-3" d="M116.61,94.45a1,1,0,1,1,.77,1.16A1,1,0,0,1,116.61,94.45Z"/><path class="cls-3" d="M128.75,94.8a1,1,0,1,1,1.92.39,1,1,0,1,1-1.92-.39Z"/><path class="cls-3" d="M125.74,77.56a1,1,0,0,1,1.15-.77,1,1,0,1,1-1.15.77Z"/><path class="cls-3" d="M108.88,78.79A1,1,0,0,1,110,78a1,1,0,0,1-.38,1.93A1,1,0,0,1,108.88,78.79Z"/><path class="cls-3" d="M85.4,77.68a1,1,0,1,1,1.93.39,1,1,0,0,1-1.15.77A1,1,0,0,1,85.4,77.68Z"/><path class="cls-3" d="M95.05,67.43a1,1,0,0,1,1.15-.77,1,1,0,1,1-.38,1.93A1,1,0,0,1,95.05,67.43Z"/><path class="cls-3" d="M81.78,59.81A1,1,0,1,1,82.55,61,1,1,0,0,1,81.78,59.81Z"/><path class="cls-3" d="M113.33,63a1,1,0,1,1,.77,1.16A1,1,0,0,1,113.33,63Z"/><path class="cls-3" d="M128.35,55.88a1,1,0,1,1,1.93.39,1,1,0,0,1-1.15.77A1,1,0,0,1,128.35,55.88Z"/><path class="cls-3" d="M112.68,46.22a1,1,0,1,1,.77,1.16A1,1,0,0,1,112.68,46.22Z"/><path class="cls-3" d="M97.27,52a1,1,0,0,1,1.93.38A1,1,0,1,1,97.27,52Z"/><path class="cls-3" d="M91,39.27a1,1,0,1,1,.77,1.16A1,1,0,0,1,91,39.27Z"/><path class="cls-3" d="M108.52,28.78a1,1,0,1,1,.77,1.15A1,1,0,0,1,108.52,28.78Z"/><path class="cls-3" d="M87.88,221.81a.8.8,0,1,1-.94-.64A.8.8,0,0,1,87.88,221.81Z"/><path class="cls-3" d="M102,212.11a.79.79,0,0,1-.63.94.8.8,0,1,1-.3-1.57A.79.79,0,0,1,102,212.11Z"/><path class="cls-3" d="M91.79,194.52a.8.8,0,1,1-1.57.3.79.79,0,0,1,.63-.93A.8.8,0,0,1,91.79,194.52Z"/><path class="cls-3" d="M104.27,195.41a.79.79,0,0,1-.63.94.81.81,0,0,1-.94-.64.8.8,0,0,1,.64-.93A.79.79,0,0,1,104.27,195.41Z"/><path class="cls-3" d="M108.37,219a.8.8,0,1,1-.93-.64A.8.8,0,0,1,108.37,219Z"/><path class="cls-3" d="M83.11,195A1,1,0,1,1,82,194.2,1,1,0,0,1,83.11,195Z"/><path class="cls-3" d="M80.19,212.11a1,1,0,1,1-1.15-.78A1,1,0,0,1,80.19,212.11Z"/><path class="cls-3" d="M95.35,204.65a1,1,0,1,1-1.15-.78A1,1,0,0,1,95.35,204.65Z"/><path class="cls-3" d="M112.44,210a1,1,0,1,1-1.15-.78A1,1,0,0,1,112.44,210Z"/><path class="cls-3" d="M97.16,221a1,1,0,0,1-1.93.36,1,1,0,1,1,1.93-.36Z"/><path class="cls-3" d="M116.15,225.1a1,1,0,1,1-1.15-.78A1,1,0,0,1,116.15,225.1Z"/><path class="cls-3" d="M108.06,175.55a.8.8,0,1,1-1.56-.31.8.8,0,1,1,1.56.31Z"/><path class="cls-3" d="M124.78,171.85a.8.8,0,0,1-.94.62.79.79,0,0,1-.63-.94.8.8,0,0,1,1.57.32Z"/><path class="cls-3" d="M128.13,180.59a.8.8,0,0,1-.94.63.8.8,0,1,1,.31-1.57A.8.8,0,0,1,128.13,180.59Z"/><path class="cls-3" d="M125,203.9a.8.8,0,1,1-.62-.94A.79.79,0,0,1,125,203.9Z"/><path class="cls-3" d="M104.57,163.68a1,1,0,1,1-.77-1.16A1,1,0,0,1,104.57,163.68Z"/><path class="cls-3" d="M121.42,162.45a1,1,0,0,1-1.15.77,1,1,0,1,1,.38-1.93A1,1,0,0,1,121.42,162.45Z"/><path class="cls-3" d="M135.26,173.8a1,1,0,0,1-1.16.77,1,1,0,0,1-.77-1.15,1,1,0,0,1,1.16-.77A1,1,0,0,1,135.26,173.8Z"/><path class="cls-3" d="M148.53,181.43a1,1,0,0,1-1.15.77,1,1,0,1,1,1.15-.77Z"/><path class="cls-3" d="M117,178.27a1,1,0,1,1-.77-1.16A1,1,0,0,1,117,178.27Z"/><path class="cls-3" d="M90.57,173a1,1,0,0,1-1.15.77,1,1,0,1,1,1.15-.77Z"/><path class="cls-3" d="M102,185.35a1,1,0,1,1-.77-1.15A1,1,0,0,1,102,185.35Z"/><path class="cls-3" d="M117.63,195a1,1,0,0,1-1.16.77,1,1,0,0,1-.77-1.15,1,1,0,0,1,1.16-.78A1,1,0,0,1,117.63,195Z"/><path class="cls-3" d="M133,189.2a1,1,0,0,1-1.16.77,1,1,0,0,1,.39-1.93A1,1,0,0,1,133,189.2Z"/><path class="cls-3" d="M139.36,202a1,1,0,1,1-.77-1.15A1,1,0,0,1,139.36,202Z"/><path class="cls-3" d="M121.79,212.46a1,1,0,0,1-1.16.77,1,1,0,0,1,.38-1.93A1,1,0,0,1,121.79,212.46Z"/><path class="cls-3" d="M152.14,193.27a.8.8,0,0,1-.94.62.79.79,0,0,1-.63-.94.8.8,0,1,1,1.57.32Z"/><path class="cls-3" d="M168.85,189.56a.8.8,0,1,1-1.57-.31.8.8,0,0,1,1.57.31Z"/><path class="cls-3" d="M166,168.17a.8.8,0,1,1-1.56-.32.8.8,0,0,1,1.56.32Z"/><path class="cls-3" d="M177.23,174.94a.8.8,0,0,1-.94.62.79.79,0,0,1-.63-.94.8.8,0,0,1,1.57.32Z"/><path class="cls-3" d="M172.2,198.31a.8.8,0,0,1-.94.63.81.81,0,0,1-.63-.94.8.8,0,1,1,1.57.31Z"/><path class="cls-3" d="M169.07,221.61a.8.8,0,1,1-1.57-.31.79.79,0,0,1,.94-.62A.8.8,0,0,1,169.07,221.61Z"/><path class="cls-3" d="M178.88,164.23a1,1,0,0,1-1.93-.38,1,1,0,1,1,1.93.38Z"/><path class="cls-3" d="M157.77,164.5a1,1,0,0,1-1.16.77,1,1,0,1,1,1.16-.77Z"/><path class="cls-3" d="M145.63,164.15a1,1,0,1,1-.77-1.15A1,1,0,0,1,145.63,164.15Z"/><path class="cls-3" d="M148.64,181.39a1,1,0,0,1-1.15.78,1,1,0,0,1-.78-1.16,1,1,0,0,1,1.93.38Z"/><path class="cls-3" d="M165.49,180.16a1,1,0,0,1-1.15.77,1,1,0,1,1,1.15-.77Z"/><path class="cls-3" d="M189,181.27a1,1,0,1,1-.77-1.16A1,1,0,0,1,189,181.27Z"/><path class="cls-3" d="M179.33,191.52a1,1,0,0,1-1.15.77,1,1,0,0,1-.78-1.16,1,1,0,1,1,1.93.39Z"/><path class="cls-3" d="M192.61,199.15a1,1,0,1,1-.78-1.16A1,1,0,0,1,192.61,199.15Z"/><path class="cls-3" d="M161.05,196a1,1,0,0,1-1.16.77,1,1,0,0,1,.39-1.93A1,1,0,0,1,161.05,196Z"/><path class="cls-3" d="M146,203.07a1,1,0,0,1-1.16.77,1,1,0,0,1,.38-1.93A1,1,0,0,1,146,203.07Z"/><path class="cls-3" d="M161.7,212.73a1,1,0,1,1-.77-1.16A1,1,0,0,1,161.7,212.73Z"/><path class="cls-3" d="M177.11,206.91a1,1,0,0,1-1.15.78,1,1,0,1,1,.38-1.93A1,1,0,0,1,177.11,206.91Z"/><path class="cls-3" d="M183.43,219.68a1,1,0,0,1-1.16.77,1,1,0,0,1-.77-1.15,1,1,0,1,1,1.93.38Z"/><path class="cls-3" d="M165.86,230.18a1,1,0,1,1-.77-1.16A1,1,0,0,1,165.86,230.18Z"/><circle class="cls-4" cx="128.08" cy="128.08" r="128.08"/></g></g></g></g></g></svg>